/* XPM */
static char *result[] = {
/* columns rows colors chars-per-pixel */
"38 50 92 1 ",
"  c #415E64",
". c #426066",
"X c #45646C",
"o c #48676F",
"O c #48686F",
"+ c #4A6B74",
"@ c #4D6F78",
"# c #4F717A",
"$ c #51747E",
"% c #537781",
"& c #557A85",
"* c #587B85",
"= c #577D88",
"- c #587F8A",
"; c #5B828D",
": c #5E8692",
"> c #5F8894",
", c #608692",
"< c #618A96",
"1 c #698A96",
"2 c #638E9B",
"3 c #6A8E9B",
"4 c #66919E",
"5 c #6D919E",
"6 c #6793A1",
"7 c #6A95A4",
"8 c #6B98A7",
"9 c #6D9BAB",
"0 c #7296A4",
"q c #759AA6",
"w c #729DAC",
"e c #789FAF",
"r c #70A0AF",
"t c #6FA0B0",
"y c #72A2B2",
"u c #7CA4B4",
"i c #75A7B8",
"p c #7BA7B8",
"a c #76A9BA",
"s c #7AACBD",
"d c #7BAFC0",
"f c #7DB2C4",
"g c #81A7B7",
"h c #82ABBC",
"j c #84AFC0",
"k c #84B3C5",
"l c #89B7C7",
"z c #83B6C9",
"x c #8AB6C9",
"c c #87B9CD",
"v c #8BBACD",
"b c #92BBCC",
"n c #9ABECB",
"m c #8DBED2",
"M c #92BED2",
"N c #A0BECC",
"B c #92C1D5",
"V c #9AC0D5",
"C c #96C3D8",
"Z c #9AC6DB",
"A c #9CC8DE",
"S c #A3C4D3",
"D c #B4D1DC",
"F c #9FCAE0",
"G c #A5CEE4",
"H c #AACEE5",
"J c #A7D0E6",
"K c #AED1E1",
"L c #ADD3EB",
"P c #B2D3E2",
"I c #B1D6EC",
"U c #B3D8EF",
"Y c #BBDBEC",
"T c #B5DAF3",
"R c #BCDDF4",
"E c #C4D9E1",
"W c #C5DFEC",
"Q c #CDE3EC",
"! c #D6E3EA",
"~ c #CBE4F5",
"^ c #D2E7F1",
"/ c #D8E7F1",
"( c #D6EAF8",
") c #DAECF9",
"_ c #E4EFF4",
"` c #E0EFF9",
"' c #E6F1F6",
"] c #E5F2FB",
"[ c #EFF7FB",
"{ c #F1F8FB",
"} c #FBFCFC",
"| c None",
/* pixels */
"||||||||||||hjlkw6246626242|||||||||||",
"||||||||||kvmmmmzfstradsdddi||||||||||",
"||||||||pvMCKGGAmfffaiffffffs9||||||||",
"|||||||hvCI`)TJJJAmffayffffffd9|||||||",
"||||||uvC~{QZmxvmcmvfftyzzzzzzzy||||||",
"||||||zC^_Pjq31132yzffi9MILILIIH||||||",
"|||||pBJPMq13eppe$o<dfi9h/]]]]]]!|||||",
"||||elGGx33jCHLIHM<o;sityN~~~~~~~S||||",
"||||hCGx70vY(RTJAmf9+&8tyyHTTTTTTL||||",
"|||4jGMq0M~{~LMppkfft+%6rrpCCCCCCCs|||",
"|||7bAg3b^[~GBuq2sfff7O:7r6affdfffs|||",
"||<9Mv5hW)RGMjg4=affff-@<979fdddddd9||",
"||2wvu0ZTTJmMhl:&sffff9O-48<99999996||",
"||7ys3jLRHmmDSf:&sffffi%@24<78888888||",
"|<7i6;ATIMMP[_S1%sfffdt4o:2<288888882|",
"|<6i%4LTAmCE}[D3&sffdsi9+%2<<88888884|",
"|>48+jTJBBcgEDs:&sfffary;X:2;88888886|",
"|>>:#ATmcvhgqlf:&sfffyyy2X=2;68888888|",
";>>%>LGffsu8&sf:&sffayyy8O$:;28888888>",
";:;+qTBffrg&&kf>&sffityy9#+;;28888888>",
":;=OhLcfaq7*5ks:&sfattytt&O&;>88888882",
":=%ObGffa87wubs:&ssiytyyt;X&;:98888982",
":;%+bCffffffund:&ittyyyty:X#;:2442244>",
":=#Ohkffffffuxd:%9ttytyyy:X#;&&%&&&&&%",
">=@Oppidffffycd:%9ytyyyy9:X@;&&&&&&&&%",
":=@oeiriissswld:%9yytyty7;X@=&&&&&&&&%",
":=+o7iryyyty0ld:&8yyyyt86=X@-&&&&&&&&%",
":=@o<rryryyy8xd:&9ytyy966&X+;&&&&&&&&%",
"--@o,8yryyyy7cs:%9yty9764%X@-&&&&&&&&$",
"==@X-6yytyyt0cs:%9yy97662@X#-&&&&&&&&%",
"%=@o&2wryyyy8xs;&9y96666>+o#-&&&&&&=&$",
"%-@o@<7yyyyy0xs;&9866664;Xo$;%&&&&&&&@",
"|;#oO>29ttyy8xs;%466666>&.+%;%&&&&&&=|",
"|-%+X&>4ttty8ls;%266662:%X+&&&&&&&&&%|",
"|=&+X#;;29996la;%26664:;OO@;%@@@+%%@@|",
"|%=@OO;;;>463la;%4662:;&X+@;@+++++++o|",
"||;#+X&;;:><2ki;%>4>:;;@X+%&+++++++o||",
"||&&+XO;;;;:,jy;%;:;;;&.++;%++++++++||",
"||&=++X#;;;;:dw;%;;;;;+X+#;++++++++o||",
"|||;#@XX&:;;;p7&#;;;;%.++&%++++++++|||",
"|||&&++XX=:;;6<#%=;;%XO+@-@++++++++|||",
"||||-$@+XX&;&&&&%;;%XX+@%%++++++++||||",
"||||&=+++X.$;;;;;=@ X+@#=@+++++++o||||",
"|||||=&+++X .+#@O. o+++%%++++++++|||||",
"||||||-$@+++X....o+@++%%++++++++X|||||",
"||||||&-$+++++++++++@%=@+++++++X||||||",
"|||||||&;&++++++@++@%=@++++++++|||||||",
"|||||||||=;&#@+@@#%;%ooooo++++||||||||",
"||||||||||&;;=-=;-&@.       .|||||||||",
"||||||||||||&&&&$+.        |||||||||||"
};
