/* XPM */
static char *result[] = {
/* columns rows colors chars-per-pixel */
"45 50 113 2 ",
"   c #415E64",
".  c #426067",
"X  c #45646B",
"o  c #48676F",
"O  c #48686F",
"+  c #486770",
"@  c #4A6B74",
"#  c #4D6F78",
"$  c #4F717A",
"%  c #51747D",
"&  c #527781",
"*  c #557A84",
"=  c #587B85",
"-  c #577E88",
";  c #587E89",
":  c #5A828D",
">  c #5D8692",
",  c #5F8894",
"<  c #618793",
"1  c #618996",
"2  c #698A96",
"3  c #638D9A",
"4  c #6C8E9A",
"5  c #65919E",
"6  c #6A919F",
"7  c #74939D",
"8  c #6793A1",
"9  c #6A95A4",
"0  c #6B98A7",
"q  c #6D9CAB",
"w  c #7397A5",
"e  c #7298A6",
"r  c #729CAC",
"t  c #799EAE",
"y  c #70A0AF",
"u  c #7BA1AF",
"i  c #71A1B1",
"p  c #7BA4B4",
"a  c #76A7B8",
"s  c #7CA7B8",
"d  c #77A9BA",
"f  c #7AABBC",
"g  c #7BAFC0",
"h  c #7DB2C4",
"j  c #85A2AC",
"k  c #8AA2A9",
"l  c #81A7B9",
"z  c #82ACBD",
"x  c #8DADB9",
"c  c #90ADB7",
"v  c #98ACB1",
"b  c #A2B7BE",
"n  c #83AEC0",
"m  c #89AFC1",
"M  c #84B3C5",
"N  c #8AB4C4",
"B  c #84B6C9",
"V  c #8AB7CA",
"C  c #86B9CB",
"Z  c #8BBACD",
"A  c #95B5C3",
"S  c #97B7C9",
"D  c #92BCCE",
"F  c #8DBDD1",
"G  c #93BED3",
"H  c #A2BDC9",
"J  c #93C1D5",
"K  c #9CC1D4",
"L  c #97C4D9",
"P  c #9AC6DA",
"I  c #9DC8DE",
"U  c #A0C7DC",
"Y  c #A5CBDB",
"T  c #ACCFDD",
"R  c #B7CFD9",
"E  c #AED1DF",
"W  c #B2D2DD",
"Q  c #BFD4DB",
"!  c #A3CCE3",
"~  c #A9CFE0",
"^  c #A7D0E7",
"/  c #ABD1E5",
"(  c #A7D0E8",
")  c #ACD3EB",
"_  c #B0D3E4",
"`  c #B9D6E0",
"'  c #BDD9E5",
"]  c #B3D6EC",
"[  c #BCDBEB",
"{  c #B5DAF3",
"}  c #BADCF3",
"|  c #C7D2D5",
" . c #C3D3D8",
".. c #C8D4D9",
"X. c #C2DCE7",
"o. c #C3DEF0",
"O. c #CBE2ED",
"+. c #D2E3EB",
"@. c #DCE7EC",
"#. c #CBE5F6",
"$. c #D1E7F5",
"%. c #DCECF4",
"&. c #D4E9F8",
"*. c #DCEDF9",
"=. c #E2EFF5",
"-. c #E2EFF9",
";. c #ECF3F5",
":. c #E5F2FB",
">. c #ECF5FB",
",. c #F0F7FA",
"<. c #F5FAFC",
"1. c #FEFFFF",
"2. c None",
/* pixels */
"2.2.2.2.2.2.2.2.2.2.2.2.2.2.2.s M M V M a 0 9 3 3 8 8 3 3 , 2.2.2.2.2.2.2.2.2.2.2.2.2.2.2.",
"2.2.2.2.2.2.2.2.2.2.2.2.2.M Z F F F F G F h g g i 0 0 y y y q 0 2.2.2.2.2.2.2.2.2.2.2.2.2.",
"2.2.2.2.2.2.2.2.2.2.2.M Z J J ~ _ ! ! I P F h h h g d i g g h h g i 2.2.2.2.2.2.2.2.2.2.2.",
"2.2.2.2.2.2.2.2.2.z Z F P ] *.:.#.) ) ( ( ( I F B h h g y g h h h h g 0 2.2.2.2.2.2.2.2.2.",
"2.2.2.2.2.2.2.2.s F J / *.<.%.~ I Z V V Z F C F F B h g i q f B B B B B a 2.2.2.2.2.2.2.2.",
"2.2.2.2.2.2.2.p Z J [ :.%.T N p j 4 2 2 4 6 3 r h B B h d y t I ) { ) ] ] K 2.2.2.2.2.2.2.",
"2.2.2.2.2.2.t M L ( ] Y N e 2 7 c u p z p e # X * y h h d i y z $.-.:.:.-.-...2.2.2.2.2.2.",
"2.2.2.2.2.r z J / ! Z p 2 4 s K [ ( ) ) ) ~ Z 8 # X , g f i y y A #.#.#.#.$.o.S 2.2.2.2.2.",
"2.2.2.2.2.s V ! ! Z t 2 p Z _ *.*.{ { ) ! P F h g , o & 9 q i i q G { { { { { ) 2.2.2.2.2.",
"2.2.2.2.5 z I ! F r 2 s I $.<.>.-./ P z d s h h h h 0 + $ , 9 i i q G G L P L L M 2.2.2.2.",
"2.2.2.2.9 M ! G u 2 z ~ :.,.$.$.=.J z t w 2 f h h h h y X $ 3 9 i 0 0 g h h h h g 2.2.2.2.",
"2.2.2.5 0 D L n 2 s _ -.&.} ( O.,.G l M ; : d h h h h h 9 X - 3 0 q 3 a h g g g g a 2.2.2.",
"2.2.2.9 r Z V 4 r L } } { ! G %.1.H D p * : d h h h h h d - + > 3 q 3 3 q q q q q 0 2.2.2.",
"2.2.3 0 i h 0 2 Z ) { { ! F T <.1.%.J i $ : d h h h h h d 0 @ $ 3 8 5 , 9 0 0 0 0 0 5 2.2.",
"2.2.9 9 d i # p ! } } ~ Y X.;.1.1.1.;.Q k 7 M h h h h h i i : X ; 3 3 1 3 0 0 0 0 0 9 2.2.",
"2.: 8 9 f : # V { } ] ' %.1.1.1.1.1.1.;.| b D h h h h h i i 0 X # , 3 1 , 0 0 0 0 0 0 , 2.",
"2.> 3 8 q + 1 ! { ( J F J E @.1.1.<.Q z * - d h h h h d i i y * X - , 3 : 0 0 0 0 0 0 3 2.",
"2.1 > 8 1 o f { { F C F F M A ;.1.+.h i * : d h h h f a i i y 5 X $ , , : 3 0 0 0 0 0 8 2.",
"2.1 : 3 % $ L } P h h h h p M | 1.W h i * * f h h h d i i y i 0 @ + : , : , q 0 0 0 0 9 2.",
": 1 * > o 1 ( ] C h h h i x 1 v 1.Y h i & : f h h f i i i i i y & X * : : > 0 0 0 0 0 0 , ",
": , * ;   r { ! h h h i u r - k <.U h i * : f h g i i y i i y i > X # ; : > 9 0 0 0 0 0 3 ",
"> , & * X z { F h h h i q 9 5 N <.E h i * * d h i i i i i i i i , . @ - : : 9 q 0 0 0 0 5 ",
"> > & % X z ( B h h h h h h h Z ;.W h y % : i i i i i i i i i i 8 X + * : ; , 8 5 5 5 5 , ",
", > % # o l G h h h h h h h h C +.K h y * * q y i i i y i i y i 8 X + & > ; * * - * * * & ",
"< > % @ o p N y d h h h h h h B R J h i * * q i i i i i i i i y 5 X + & ; ; * * - & * * & ",
"> > % @ X e n y i i d d f g f f S J h y & * q i i i i i i y y 9 , X + # : ; & * * - * * & ",
"> > # @ X 6 a y i i i i i i i i x J h y * * q i i y i y i y 0 8 , X + # : ; * * * * * * & ",
"> > $ @ X < r y i i i i i i i i p J h q * * q i i i i i y 9 8 8 > X + # ; - * * * * * * & ",
"- > $ @ X > 6 y i i i i i i i i e G M q * * q i i i i q 9 8 8 8 ;   @ # ; ; * * * * * * & ",
"* ; & #   ; 3 q i i i i i i i q e J h q * * q i i i q 9 8 8 9 , * X # # ; * * * * * * * & ",
"& > & # X $ 3 5 q i i i i i i i r G h q * * q i y 0 8 8 8 9 8 , #   @ & > * * * * * * * $ ",
"2.; & # X @ , 3 0 y i i i i i r r J h q & * q q 9 8 8 8 8 9 , : + + @ * ; * * * * * * * 2.",
"2.: * # + X : 1 3 q i i i i i i e J h 0 * * 5 5 9 5 9 5 8 5 , : . O @ : : & & * * * * & 2.",
"2.- ; # @ X $ > 1 3 q i i i i i e J h 0 % * 5 9 5 9 5 9 5 , : % . @ O : : & * * * * * & 2.",
"2.* : $ @ o o ; : > , 9 q q q 0 9 Z h 0 * * 5 5 9 5 9 5 , : : O O @ $ : & $ $ # & $ $ # 2.",
"2.2.: * @ @   $ > : : > , 8 8 8 6 J f 9 * * 3 5 5 5 5 , : : % . O @ & : # @ @ @ @ @ @ 2.2.",
"2.2.- : # @ X X : : : > > > , 8 6 Z f 9 * * 5 5 5 , : : : : X X @ $ : & @ @ @ @ @ @ @ 2.2.",
"2.2.2.: & @ @ X @ : : : : > : > 4 V f 5 * % > : : : : : : # . @ @ % : $ @ @ @ @ @ @ 2.2.2.",
"2.2.2.- ; # @ + . $ : : : : > : 1 V i 5 * % : : : > : : % . O @ # : : @ @ @ @ @ @ X 2.2.2.",
"2.2.2.2.: % @ @ X X & > : : : : 1 f q 5 % % : : : : : : . O @ @ % : @ O @ @ @ @ @ 2.2.2.2.",
"2.2.2.2.- : $ @ @ X . $ : : : : : q 5 : @ % : : : : % X o @ @ @ - & @ @ @ @ @ @ @ 2.2.2.2.",
"2.2.2.2.2.: & @ @ @ X . $ : : : * - * * & & : : : $ . X @ @ @ & ; # @ @ @ @ @ + 2.2.2.2.2.",
"2.2.2.2.2.* : % @ @ @ O   X $ : : : : : : : : $ X   o @ @ @ $ : $ @ @ @ @ @ @ o 2.2.2.2.2.",
"2.2.2.2.2.2.& : $ # # @ + X . . + $ $ $ $ @ .   . @ @ @ @ # - % @ @ @ @ + @ @ 2.2.2.2.2.2.",
"2.2.2.2.2.2.2.- : $ @ @ @ @ O O X         . o @ @ @ @ @ $ - * @ @ @ @ @ @ X 2.2.2.2.2.2.2.",
"2.2.2.2.2.2.2.2.* : * @ # @ @ @ # @ @ @ @ @ @ @ @ @ # % ; & @ @ @ @ @ @ @ 2.2.2.2.2.2.2.2.",
"2.2.2.2.2.2.2.2.2.* : - $ @ @ @ @ @ # @ @ @ @ @ @ $ * : @ X X X X X X X 2.2.2.2.2.2.2.2.2.",
"2.2.2.2.2.2.2.2.2.2.2.: : - * $ @ # @ @ @ # $ $ - : % o             2.2.2.2.2.2.2.2.2.2.2.",
"2.2.2.2.2.2.2.2.2.2.2.2.2.- : : ; - * - - : : - % O .           2.2.2.2.2.2.2.2.2.2.2.2.2.",
"2.2.2.2.2.2.2.2.2.2.2.2.2.2.2.& - - ; - * % # X             2.2.2.2.2.2.2.2.2.2.2.2.2.2.2."
};
