/* XPM */
static char *result[] = {
/* columns rows colors chars-per-pixel */
"50 50 201 2 ",
"   c #0B0303",
".  c #0D0A0A",
"X  c #140E0E",
"o  c #180E0E",
"O  c #1A1010",
"+  c #240E0E",
"@  c #2D0C0C",
"#  c #2D0707",
"$  c #330B0B",
"%  c #380909",
"&  c #221313",
"*  c #241A1A",
"=  c #2D1919",
"-  c #2F1616",
";  c #351111",
":  c #331B1B",
">  c #3A1F1F",
",  c #2A2525",
"<  c #3C2121",
"1  c #3B2C2C",
"2  c #373333",
"3  c #3C3333",
"4  c #460B0B",
"5  c #470707",
"6  c #5A0606",
"7  c #5A0808",
"8  c #491C1C",
"9  c #501414",
"0  c #620505",
"q  c #690B0B",
"w  c #7B0F0F",
"e  c #730909",
"r  c #671515",
"t  c #482727",
"y  c #4E2929",
"u  c #412222",
"i  c #532B2B",
"p  c #582B2B",
"a  c #413B3B",
"s  c #403636",
"d  c #513737",
"f  c #5B3939",
"g  c #6D2C2C",
"h  c #7D2B2B",
"j  c #653333",
"k  c #6C3939",
"l  c #683636",
"z  c #743D3D",
"x  c #713636",
"c  c #444040",
"v  c #494444",
"b  c #564E4E",
"n  c #5A5656",
"m  c #5D5D5D",
"M  c #535050",
"N  c #764343",
"B  c #645A5A",
"V  c #7A5959",
"C  c #646565",
"Z  c #7A6767",
"A  c #7D7B7B",
"S  c #777373",
"D  c #840404",
"F  c #950202",
"G  c #9A0A0A",
"H  c #960808",
"J  c #9F1F1F",
"K  c #A30808",
"L  c #B50303",
"P  c #B90606",
"I  c #B70909",
"U  c #BC0909",
"Y  c #B31212",
"T  c #BB1313",
"R  c #BC1A1A",
"E  c #842D2D",
"W  c #9D2020",
"Q  c #833D3D",
"!  c #A92424",
"~  c #BE2323",
"^  c #A83F3F",
"/  c #C40F0F",
"(  c #C90F0F",
")  c #C91313",
"_  c #C41A1A",
"`  c #CA1919",
"'  c #C51414",
"]  c #D11E1E",
"[  c #CC2323",
"{  c #CB2E2E",
"}  c #C22727",
"|  c #D52525",
" . c #D72B2B",
".. c #D82C2C",
"X. c #C33636",
"o. c #CA3333",
"O. c #C83F3F",
"+. c #D73232",
"@. c #D83333",
"#. c #D63C3C",
"$. c #DA3A3A",
"%. c #8C4242",
"&. c #8D4949",
"*. c #904B4B",
"=. c #9D4E4E",
"-. c #9E5050",
";. c #AA4747",
":. c #A44545",
">. c #B84949",
",. c #AE5959",
"<. c #A05151",
"1. c #BB5555",
"2. c #B45A5A",
"3. c #B85D5D",
"4. c #B45252",
"5. c #8E6868",
"6. c #956868",
"7. c #847777",
"8. c #B86969",
"9. c #C74444",
"0. c #CA4646",
"q. c #CA4A4A",
"w. c #C34949",
"e. c #D74343",
"r. c #D94545",
"t. c #D64B4B",
"y. c #DC4B4B",
"u. c #CE5151",
"i. c #C15D5D",
"p. c #D45353",
"a. c #DE5252",
"s. c #D65B5B",
"d. c #DA5C5C",
"f. c #E14A4A",
"g. c #E25454",
"h. c #E15D5D",
"j. c #C66161",
"k. c #CA6363",
"l. c #D66262",
"z. c #D96464",
"x. c #D46B6B",
"c. c #D96B6B",
"v. c #DB7E7E",
"b. c #D37575",
"n. c #E26363",
"m. c #E36B6B",
"M. c #E37B7B",
"N. c #E87272",
"B. c #878585",
"V. c #8B8E8E",
"C. c #878989",
"Z. c #978686",
"A. c #9F9696",
"S. c #BD8686",
"D. c #A29696",
"F. c #A59A9A",
"G. c #BF9494",
"H. c #AAADAD",
"J. c #A4A6A6",
"K. c #BAB7B7",
"L. c #DC8C8C",
"P. c #DA8484",
"I. c #C09696",
"U. c #D49797",
"Y. c #EA8585",
"T. c #E38C8C",
"R. c #EB8A8A",
"E. c #E08080",
"W. c #F08D8D",
"Q. c #EC9494",
"!. c #E59C9C",
"~. c #ED9C9C",
"^. c #E69595",
"/. c #F39E9E",
"(. c #F09797",
"). c #CDAEAE",
"_. c #C9A3A3",
"`. c #D3B6B6",
"'. c #E9A7A7",
"]. c #EDB3B3",
"[. c #F1BDBD",
"{. c #F2B7B7",
"}. c #CFC1C1",
"|. c #DDC8C8",
" X c #D5D6D6",
".X c #E0CBCB",
"XX c #F4C4C4",
"oX c #FDC4C4",
"OX c #F4CBCB",
"+X c #E5DCDC",
"@X c #F5D2D2",
"#X c #F9DDDD",
"$X c #F6DCDC",
"%X c #D8E1E1",
"&X c #FDEDED",
"*X c #F6E5E5",
"=X c #EFF2F2",
"-X c #FDF2F2",
";X c #FFFDFD",
":X c gray95",
">X c None",
/* pixels */
">X>X>X>X>X>X>X>X>X>X>X>X>X>X>X>X>X>X>XX . . . . .   .   X . . >X>X>X>X>X>X>X>X>X>X>X>X>X>X>X>X>X>X>X",
">X>X>X>X>X>X>X>X>X>X>X>X>X>X>X>X>X>X>XO & & & & & & & & & & & >X>X>X>X>X>X>X>X>X>X>X>X>X>X>X>X>X>X>X",
">X>X>X>X>X>X>X>X>X>X>X>X>X>X>X>X>X>X> t y y y y i y y y y y t < >X>X>X>X>X>X>X>X>X>X>X>X>X>X>X>X>X>X",
">X>X>X>X>X>X>X>X>X>X>X>X>X>X>X>X>X& i z &.*.*.&.&.&.&.&.&.&.z i * >X>X>X>X>X>X>X>X>X>X>X>X>X>X>X>X>X",
">X>X>X>X>X>X>X>X>X>X>X>X>X>X>X>Xo : j =.i.k.k.j.j.j.j.k.k.i.=.j : X >X>X>X>X>X>X>X>X>X>X>X>X>X>X>X>X",
">X>X>X>X>X>X>X>X>X>X>X>X>X>X>X: u p Q 4.s.h.h.d.d.d.d.h.n.s.>.h 9 % # >X>X>X>X>X>X>X>X>X>X>X>X>X>X>X",
">X>X>X>X>X>X>X>X>X>X>X>X>X>X= i z %.;.9.r.y.f.r.y.f.y.f.f.r.~ W w 0 4 @ >X>X>X>X>X>X>X>X>X>X>X>X>X>X",
">X>X>X>X>X>X>X>X>X>X>X>X>XX : l <.i.t.e.@.@.@.@.@.@.@.@.$.+.{ R K D 6 @ O >X>X>X>X>X>X>X>X>X>X>X>X>X",
">X>X>X>X>X>X>X>X>X>X>X>X. X : k 2.z.h.$...|  . . . .......| ] ) L F 6 @ X . >X>X>X>X>X>X>X>X>X>X>X>X",
">X>X>X>X>X>X>X>X>X>X>X>X>X. - l ,.c.g.$...| | | | | | | ..| ] ( L F 6 + X >X>X>X>X>X>X>X>X>X>X>X>X>X",
">X>X>X>X>X>X>X>X>X>X>X>X. X : k ,.l.g.$... . . . .|  . ...| ] ) I F 7 $ X X >X>X>X>X>X>X>X>X>X>X>X>X",
">X>X>X>X>X>X>X>X>X>X>X>X= : i Q 4.s.y.$... .@.@.$.$.$.@.@...| ) I G e 4 $ + >X>X>X>X>X>X>X>X>X>X>X>X",
">X>X>X>X>X>X>X>X>X>X>X: i k Q :.w.t.#.+...@.e.t.t.p.t.e.$...| ] _ Y H e 7 4 @ >X>X>X>X>X>X>X>X>X>X>X",
">X>X>X>X>X>X>X>X>X>Xo > k =.1.q.#.+... .+.#.p.s.z.l.d.p.$.@. .| | ` Y G D 7 $ O >X>X>X>X>X>X>X>X>X>X",
">X>X>X>X>X>X>X>X>X. X > z 2.l.g.$... .| +.e.s.x.x.l.s.t.#... . . .] ) L F 0 @ O X >X>X>X>X>X>X>X>X>X",
">X>X>X>X>X>X>X>X>X. o > z 3.z.g.$. .| | ..e.s.l.l.u.9.X.+....... .| ) / F 0 - O X >X>X>X>X>X>X>X>X>X",
">X>X>X>X>X>X>X>X>X. o > z 3.l.a.$. .| | @.r.s.l.u.X.R _ [  .......| ) P F 0 $ o X >X>X>X>X>X>X>X>X>X",
">X>X>X>X>X>X>X>X>X. o > z 2.l.a.$.......$.t.d.l.q.~ I U `  .......` ) P F 0 $ o X >X>X>X>X>X>X>X>X>X",
">X>X>X>X>X>X>X>X>X. o > z 2.d.a.$...@.$.t.s.l.l.0.R I P _ | ..@. .| ) I F 0 $ o X >X>X>X>X>X>X>X>X>X",
">X>X>X>X>X>X>X>X>X. o > z 2.l.a.$.$.$.p.s.x.c.l.0.~ I P `  ..... .] ) P F 0 $ o X >X>X>X>X>X>X>X>X>X",
">X>X>X>X>X>X>X>X>X. X > z 2.l.f.$.+.e.p.l.c.c.l.0.~ P U `  ..... .| / I F 0 $ o X >X>X>X>X>X>X>X>X>X",
">X>X>X>X>X>X>X>X>X. o > z 2.l.g.$.+.#.t.p.l.c.l.0.~ I U ' | .... .] ) P F 0 $ o X >X>X>X>X>X>X>X>X>X",
">X>X>X>X>X>X>X>X>X. o > z 2.l.y.$.....@.r.p.z.l.q.~ I U _ | ..@. .| ) P F 0 $ o X >X>X>X>X>X>X>X>X>X",
">X>X>X>X>X>X>X>X>X. o > z 2.l.a.$. . . .@.r.d.l.q.~ I U `  .....| | ) U F 0 $ o . >X>X>X>X>X>X>X>X>X",
">X>X>X>X>X>X>X>X>X. X > z 2.l.g.$...| | ..e.s.l.0.~ I U ` | .... .] ( L F 0 $ o . >X>X>X>X>X>X>X>X>X",
">X>X>X>X>X>X>X>X>X. o > z 2.l.a.$...| | +.r.s.l.q.~ I U ` | .... .] ( L F 6 $ o X >X>X>X>X>X>X>X>X>X",
">X>X>X>X>X>X>X>X>X. o > z 2.l.a.$...|  .+.r.s.l.q.~ I U ` | @... .| ` U G q $ o X >X>X>X>X>X>X>X>X>X",
">X>X>X>X>X>X>X>X>X. o > z 2.l.f.$... .| +.r.s.l.0.~ I U ` |  . . .@.#.0.^ g : o . >X>X>X>X>X>X>X>X>X",
">X>X>X>X>X>X>X>X>X. X > z 2.l.a.$...|  .+.r.s.l.q.~ P U ` |  .| | $.m.^.S.V 1 o . >X>X>X>X>X>X>X>X>X",
">X>X>X>X>X>X>X>X>X. o > z 2.l.f.$... .| +.r.d.l.0.~ I U ` |  .| @.h./.OX}.7.s o   >X>X>X>X>X>X>X>X>X",
">X>X>X>X>X>X>X>X>X. o > z 2.l.g.$...|  .+.r.l.l.q.~ I U ) | @.f.h.R.oX-X XV.a o   >X>X>X>X>X>X>X>X>X",
">X>X>X>X>X>X>X>X>X. o > z 2.l.g.$...| | +.r.d.l.q.~ I P ( | r.m.~.XX-X;X%XV.a X   >X>X>X>X>X>X>X>X>X",
">X>X>X>X>X>X>X>X>X. o > z 2.l.y.$. .| ....r.d.l.q.~ I I ' +.h.~.@X-X;X;X XB.s O   >X>X>X>X>X>X>X>X>X",
">X>X>X>X>X>X>X>X>X. o > z 2.l.g.$. ...| +.$.q.q.X.T P T  .p.R.XX&X;X-XOXI.Z t O   >X>X>X>X>X>X>X>X>X",
">X>X>X>X>X>X>X>X>X. X > z 2.l.a.$. . . . .{ { { R L L } s.Q.XX&X;X&X[.P.,.x > o . >X>X>X>X>X>X>X>X>X",
">X>X>X>X>X>X>X>X>X. o > z 2.s.g.$. ... . .[ _ I L L I O.L.OX&X;X;X@XT.9.J r ; o . >X>X>X>X>X>X>X>X>X",
">X>X>X>X>X>X>X>X>X. o > z 3.l.g.$... . ...` / I I T ~ b.[.:X;X-X$X].M.0.! r ; o . >X>X>X>X>X>X>X>X>X",
">X>X>X>X>X>X>X>X>X. o > z 3.z.g.$. .|  . .` / ' o.u.v.].*X;X-XOX~.R.Y.P.8.N < o . >X>X>X>X>X>X>X>X>X",
">X>X>X>X>X>X>X>X>X. o > z 3.l.f.$... . . .| ]  .s.^.OX*X;X;X@XQ.z.m.Q.[.).7.3 o   >X>X>X>X>X>X>X>X>X",
">X>X>X>X>X>X>X>X>X>Xo > k <.1.u.#.+... . .@.$.g.Y.XX-X;X:X#X{.Y.h.m.!.|.K.A a X >X>X>X>X>X>X>X>X>X>X",
">X>X>X>X>X>X>X>X>X>X>X: i z %.:.q.r.@. ...r.m.Q.XX&X;X-XOX/.Q.R.R.L.G.D.C.C 3 >X>X>X>X>X>X>X>X>X>X>X",
">X>X>X>X>X>X>X>X>X>X>X>X: < p Q 4.s.f.@.@.m.~.@X&X;X;X@XQ.m.N./.XX`.Z.B c 2 >X>X>X>X>X>X>X>X>X>X>X>X",
">X>X>X>X>X>X>X>X>X>X>X>X>Xo : l -.i.u.r.g.Y.oX-X;X-X#X].M.g.m.'..XK.A 3 o >X>X>X>X>X>X>X>X>X>X>X>X>X",
">X>X>X>X>X>X>X>X>X>X>X>X>X>X* y z *.,.b.(.oX&X;X*XXX!.R.Y.Y.L.I.F.C.m , >X>X>X>X>X>X>X>X>X>X>X>X>X>X",
">X>X>X>X>X>X>X>X>X>X>X>X>X>X>X: < f 5._.@X-X;X-XXXv.p.z.Q.[.).Z.B v 2 >X>X>X>X>X>X>X>X>X>X>X>X>X>X>X",
">X>X>X>X>X>X>X>X>X>X>X>X>X>X>X>Xo 1 Z K.+X:X=X+XU.4.R >.U.|.K.S 3 O >X>X>X>X>X>X>X>X>X>X>X>X>X>X>X>X",
">X>X>X>X>X>X>X>X>X>X>X>X>X>X>X>X>X, m V.J.H.H.F.6.h w E 6.A.V.B , >X>X>X>X>X>X>X>X>X>X>X>X>X>X>X>X>X",
">X>X>X>X>X>X>X>X>X>X>X>X>X>X>X>X>X>Xa M n n n M d 8 4 8 d n M a >X>X>X>X>X>X>X>X>X>X>X>X>X>X>X>X>X>X",
">X>X>X>X>X>X>X>X>X>X>X>X>X>X>X>X>X>X>X* * * * * & & + & & * * >X>X>X>X>X>X>X>X>X>X>X>X>X>X>X>X>X>X>X",
">X>X>X>X>X>X>X>X>X>X>X>X>X>X>X>X>X>X>X            X . .     . >X>X>X>X>X>X>X>X>X>X>X>X>X>X>X>X>X>X>X"
};
