/* XPM */
static char *result[] = {
/* columns rows colors chars-per-pixel */
"50 50 102 2 ",
"   c #3F5C62",
".  c #415E64",
"X  c #426067",
"o  c #45646B",
"O  c #48676F",
"+  c #48686F",
"@  c #486770",
"#  c #4A6B74",
"$  c #4D6F78",
"%  c #4F717B",
"&  c #50747D",
"*  c #537781",
"=  c #557A85",
"-  c #577E88",
";  c #587E89",
":  c #5B828D",
">  c #5D8691",
",  c #5F8894",
"<  c #618A96",
"1  c #698A96",
"2  c #638D9A",
"3  c #6B8D9A",
"4  c #65919E",
"5  c #6D909E",
"6  c #6793A1",
"7  c #6995A4",
"8  c #6B98A7",
"9  c #6E9CAB",
"0  c #7195A3",
"q  c #7398A7",
"w  c #729CAC",
"e  c #799DAC",
"r  c #70A0AF",
"t  c #71A1B1",
"y  c #7CA4B4",
"u  c #75A7B8",
"i  c #76A9BA",
"p  c #7AACBD",
"a  c #7BAFC1",
"s  c #7DB2C4",
"d  c #80A7B7",
"f  c #82A9B6",
"g  c #81A7B9",
"h  c #80ABBC",
"j  c #88ABBA",
"k  c #92B0BB",
"l  c #9BB5BD",
"z  c #84AEC0",
"x  c #8AAFC1",
"c  c #84B3C5",
"v  c #8CB2C4",
"b  c #84B6C9",
"n  c #89B7CA",
"m  c #87B9CC",
"M  c #8BBACD",
"N  c #98B8C6",
"B  c #90B6C9",
"V  c #92BACD",
"C  c #9ABBCE",
"Z  c #8EBED2",
"A  c #92BED3",
"S  c #A3BEC9",
"D  c #93C1D5",
"F  c #9EC6D5",
"G  c #96C4D9",
"H  c #99C5DB",
"J  c #9DC9DE",
"K  c #A6CAD7",
"L  c #A3CBDC",
"P  c #ACD0DE",
"I  c #B1D2DF",
"U  c #BED6DF",
"Y  c #9FCBE1",
"T  c #A4CDE4",
"R  c #ABD1E4",
"E  c #ACD3EB",
"W  c #B5D5E4",
"Q  c #B8D7E7",
"!  c #B2D6ED",
"~  c #B5DAF2",
"^  c #BADCF3",
"/  c #C7D3D8",
"(  c #C2DAE4",
")  c #C4DEEE",
"_  c #C4DFF1",
"`  c #C9E1ED",
"'  c #D2E3ED",
"]  c #CBE5F6",
"[  c #D2E7F4",
"{  c #D6E9F6",
"}  c #DAEAF1",
"|  c #D4E9F9",
" . c #DBECF9",
".. c #E1EEF5",
"X. c #E1EFFA",
"o. c #E5F0F5",
"O. c #E5F2FB",
"+. c #ECF5FB",
"@. c #F4F6F7",
"#. c #F4F9FC",
"$. c #F9FCFD",
"%. c None",
/* pixels */
"%.%.%.%.%.%.%.%.%.%.%.%.%.%.%.%.%.%.< 2 4 2 7 w t g c c n c t r 7 %.%.%.%.%.%.%.%.%.%.%.%.%.%.%.%.%.",
"%.%.%.%.%.%.%.%.%.%.%.%.%.%.%.7 9 r 9 9 t z n M Z Z Z M Z M c s a a u %.%.%.%.%.%.%.%.%.%.%.%.%.%.%.",
"%.%.%.%.%.%.%.%.%.%.%.%.%.u a s s p a n Z Z D J W R T T Y G Z s s s s s i 8 %.%.%.%.%.%.%.%.%.%.%.%.",
"%.%.%.%.%.%.%.%.%.%.%.t a s s s p c Z A H Q { +. .~ E E E E R Y G Z s s s a 9 %.%.%.%.%.%.%.%.%.%.%.",
"%.%.%.%.%.%.%.%.%.e a b b c a i n Z D Q X.#...W H A M n b M M M b Z Z b s s a 9 < %.%.%.%.%.%.%.%.%.",
"%.%.%.%.%.%.%.%.C E ! ! ! T z Z D J [ +.} I n y w 5 1 1 1 3 5 2 6 u s b s a a t 9 6 %.%.%.%.%.%.%.%.",
"%.%.%.%.%.%.%./ X.O.O.O.[ x c A T E W L v q 1 1 3 w y y d y e : o @ ; t s s a t t t 4 %.%.%.%.%.%.%.",
"%.%.%.%.%.%.C _ ] ] ] ) N z A T R D m w 1 3 y c F T E E E E E H i , # o , i s t t t t 2 %.%.%.%.%.%.",
"%.%.%.%.%.%.! ~ ~ ~ ! v g n T T D h 3 1 y Z R ]  .^ ~ ~ E T Y Z m s a , o $ 6 7 r t t r %.%.%.%.%.%.",
"%.%.%.%.%.m G G H G z r z J T A p 1 0 b L [ #.+.] ! T H c y y p s s s s r $ o : 4 7 t t 8 %.%.%.%.%.",
"%.%.%.%.t s s s s i 7 9 A T A h 1 q M Q +.+.| ^ T G Z c e e 5 7 s s s s s i * X ; 2 7 t r , %.%.%.%.",
"%.%.%.%.p s a s a 8 7 w H D c 1 w C ` O.| ^ E H Z Z n g V < * 7 s s s s s s i * o > 2 7 t 4 %.%.%.%.",
"%.%.%.6 9 9 8 w 7 7 8 u Z n 5 0 M R ^ ^ ~ T D M D M y D a > $ 6 s s s s s s a 9 # # , 2 9 6 : %.%.%.",
"%.%.%.8 8 8 8 8 2 8 8 p z 7 1 c T ~ ~ ~ J D Z Z P S C m u > % 6 s s s s s a a t , o = , 4 7 , : %.%.",
"%.%.2 8 8 8 8 6 6 8 8 a 8 # e Y ~ ~ ! H Z Z D K o.@.( m i > & 6 s s s s s s i t r * o ; 4 , , , %.%.",
"%.%.7 8 8 8 8 2 6 6 w p $ $ b E ~ ! H Z Z Z D U $.$.( V i : & 4 s s s s s s t t r 4 o # , , 4 , %.%.",
"%., 8 8 8 8 8 < 4 < t 4 o 6 Y ^ ~ H Z Z Z Z b g ( ( s s p > % 4 s s s s s a r t t 9 *   = , 4 , = %.",
"%.6 8 8 8 8 6 , < > 9 % # b ~ ~ H b m Z Z m p V e f s s i > % 6 s s s s s u t t t t , X # : , , ; %.",
"%.7 8 8 8 8 2 < > > < o : J ~ T s s s s c e B w & 7 c s i : % 6 s s s s i t t t t t 9 $ X - , : : %.",
"%.8 8 8 8 8 < 2 - : = o w E ~ Z s s s s r x y * & 0 n s i > % 6 s s s a t t t t t t r =   * : : : * ",
"< 8 8 8 8 8 , < = : $ O v ~ T s s s s u y y > = 4 d Z s i : & 6 s s a t t r t t t t t , X # = : : = ",
"2 8 8 8 8 7 < < * - # # D ~ A s s s s t 8 7 7 9 p k F s i > & 6 s i t t t t t t r t t 4 o o * : : = ",
"> 6 6 6 6 < , < & = O % A E b s s s s s s s s s a l K s i : % 4 u t t t t t t r t t r 7 # o $ - : = ",
"* = = = = = , , & * o % B M p s s s s s s s s s a j D s i : % < t t t t r t t t t t t 7 # X $ - : : ",
"* = = = = = > > % * o % v a t u p s s s s s s s a p D s u : & < t r t r t t t r t t r 4 # o $ = > : ",
"* = = = = = , > % % o % g p t t t u u p a p p p u y D s u : % < t t t t r t t t t 9 7 < + o # * : = ",
"* = = = = = > , % % X % w u w t t t t t t t r t 8 y D s u > % < r t r t t r t r 9 7 6 , + o # * : = ",
"* = = = = = ; 2 % % o # 3 w t t t t t t t t t t w y H s t > % < t t t t t t t 9 6 6 6 > + o # * : : ",
"* = = = = = ; > * $ o + , 7 r t t t t t t t r t 9 y G s u : & < t t t t t t 8 6 6 6 6 : o O # * : = ",
"* = = = = = ; ; * % # o , , 8 t t t t t t t t t 9 y G s t : % < t t t t 9 7 6 6 6 6 , = X + # * : = ",
"%.= = = = ; = ; * $ # X : , 6 t t t t t t t t t r y G s t > % < t t t 8 6 6 6 6 6 6 , % X # # = : * ",
"%.= = = = = ; ; - # $ o % 2 , 6 9 t t r r t t t 9 y D s t : % < t 8 6 6 6 6 6 6 6 , : # o # $ : : %.",
"%.* = = = = = ; : $ # o o , , 4 8 t t t t t t t 9 y G s r : & : 7 4 7 4 6 6 6 4 4 : :   + # % : ; %.",
"%.* = = = * * = : * # #   * , , , 7 r t r t t t 9 y D s r : % : 4 7 7 7 6 7 6 4 > : % . # # * : = %.",
"%.%.* $ % * $ * ; = # # o o ; : : > 4 8 r 9 9 9 6 y D a 9 : % : 4 7 4 7 4 4 < : : : X o # # : : %.%.",
"%.%.@ # # # # # - : * @ @   * : : : : > < 6 6 6 4 r D a 9 : % : 6 4 7 4 4 , > : : $   # # % : = %.%.",
"%.%.%.# # # # @ * : * # # o X - : : : : : , < 4 4 e D a 7 : % : 6 4 4 , : : : : * . O # # = : * %.%.",
"%.%.%.# # # # # # - - * $ #   @ : : : : : > : > : q M p 6 > % : , , : > : : : : o o # # % : : %.%.%.",
"%.%.%.%.# # # # @ * : * # # #   # : : : : : : : : 8 m i 6 : % = : : : : : : : + X # # % = : %.%.%.%.",
"%.%.%.%.@ # # # # # = ; * # $ @   # : , : : : > : 5 c 8 4 = % = : : : : > : o   + # # & : = %.%.%.%.",
"%.%.%.%.%.# # # # @ # ; - # # # + X o - : : : : : < 9 2 , $ & = : : : : * O . # # # % - : %.%.%.%.%.",
"%.%.%.%.%.%.# # # # @ * : = # $ # # X X $ : : : : = = : & = & * > : ; # o . # # # # * : %.%.%.%.%.%.",
"%.%.%.%.%.%.O # # # # # * : * # # # # o . o % * : : : : > : : : = # o . o # # $ # & : * %.%.%.%.%.%.",
"%.%.%.%.%.%.%.# # # # # # * : * $ # # # + o . X o + $ % & $ # o X X o # # # # # * : = %.%.%.%.%.%.%.",
"%.%.%.%.%.%.%.%.@ # # # # # * - * $ # # # # # + o X X X X X X o O # # # # # # * : * %.%.%.%.%.%.%.%.",
"%.%.%.%.%.%.%.%.%.%.# # # # # * : : & # # # # # # # # + # # # # # # # # # % ; ; %.%.%.%.%.%.%.%.%.%.",
"%.%.%.%.%.%.%.%.%.%.%.@ o o X o + & : - & # $ # # # # # # # # # # # $ & * : = %.%.%.%.%.%.%.%.%.%.%.",
"%.%.%.%.%.%.%.%.%.%.%.%.%.        X # * : : & & $ $ $ # # # $ # % * ; ; : %.%.%.%.%.%.%.%.%.%.%.%.%.",
"%.%.%.%.%.%.%.%.%.%.%.%.%.%.%.. .   . . # & : : : : = = = = = : : ; - %.%.%.%.%.%.%.%.%.%.%.%.%.%.%.",
"%.%.%.%.%.%.%.%.%.%.%.%.%.%.%.%.%.%.  .     X # % * = : = : : = %.%.%.%.%.%.%.%.%.%.%.%.%.%.%.%.%.%."
};
