/* XPM */
static char *result[] = {
/* columns rows colors chars-per-pixel */
"23 50 77 1 ",
"  c #405D63",
". c #426067",
"X c #45646C",
"o c #4A6B74",
"O c #4D6F78",
"+ c #4F717B",
"@ c #51747E",
"# c #537781",
"$ c #557A84",
"% c #577D88",
"& c #587F8A",
"* c #5B828D",
"= c #5D8591",
"- c #5F8895",
"; c #60848F",
": c #638692",
"> c #618A97",
", c #698A96",
"< c #638D9B",
"1 c #65909E",
"2 c #6A909E",
"3 c #6793A1",
"4 c #6A95A4",
"5 c #6B98A7",
"6 c #6D9BAB",
"7 c #7195A4",
"8 c #729EAD",
"9 c #73A0AF",
"0 c #73A2B2",
"q c #7AA3B3",
"w c #75A7B8",
"e c #77A9BA",
"r c #7AACBD",
"t c #7BAFC0",
"y c #7DB2C4",
"u c #81A6B6",
"i c #84ACBD",
"p c #88ADBD",
"a c #82AFC0",
"s c #83B3C5",
"d c #8AB3C6",
"f c #83B6C9",
"g c #8CB6C9",
"h c #87B9CC",
"j c #8CBACE",
"k c #92BACD",
"l c #8EBDD1",
"z c #94C2D6",
"x c #99C4D7",
"c c #97C4D9",
"v c #9BC5DB",
"b c #9EC9DF",
"n c #A8C3CF",
"m c #A3C4D2",
"M c #ACCAD7",
"N c #A2C7DB",
"B c #A2C8D9",
"V c #B1CDDF",
"C c #A5CDE3",
"Z c #A8CDE4",
"A c #ACD0E7",
"S c #AED4EC",
"D c #B2D4E5",
"F c #B0D6EE",
"G c #B5D8ED",
"H c #BEDBED",
"J c #B5DAF3",
"K c #C7E1EF",
"L c #C8E0ED",
"P c #C7E3F6",
"I c #CBE4F6",
"U c #D3E7F1",
"Y c #DAEBF4",
"T c #DBEEFA",
"R c #E1EFF8",
"E c #E5F2FB",
"W c None",
/* pixels */
"WWWWWWas6<333311-WWWWWW",
"WWWWWslly069000005WWWWW",
"WWWWizZbhy0tttyyyy9WWWW",
"WWWWlLISChewyyyyyyrWWWW",
"WWWaDYxhhlt9fffffffwWWW",
"WWWjUm7,2ey0bFFFSSSCWWW",
"WWqvm77q:$t0nEEEEEEEWWW",
"WWibq8bFv$30pKIIIIIIVWW",
"WWdz7BPSz0#50ZJJJJJJAWW",
"WWkaiYHisy==6fcccccczWW",
"W<kqMTk:wy6$66yyyyyyy6W",
"W3dqLGq;9yr$-5tyyrryy0W",
"W5ipJv9:6yy=-<56666665W",
"W78kFdq=6yy-*-35555553W",
"W61NCpp=9yy4$-35555554W",
"W5>Zcrs*6yy6#-<5555555W",
"&<1Ak8t=6yt6#=<5555555-",
"&=8Ca4w=6tt0$&-5555555<",
"&&uc9:6=6yw0&$=5555555<",
"&$pl5#6=0y00=#*55555553",
"&#dd<#6=6t60-#&5555555<",
"&$ga53w=6t00-o=56555553",
"%#dyyww=30001#&<111131-",
"%+iyyw0=30001o%$$$$%$%$",
"%+9taw0=1000<o$$$$$$$$#",
"%O60r09=1006-o$$$$$$%$#",
"%O40050=1006=o#$$$%$$$#",
"%O20059=1005&#$#$$$$$$#",
"$O>0050=1064&o$$$$$$$$#",
"$o=9050&1063%o#$$$$$$$#",
"#o%805q=1631$o$$%$%$$$#",
"#o%6050&151<##$$$$$$$$#",
"$O#3059*-43<++#$%$$$$$#",
"#+O<959*=43=o+$$#%$$%$+",
"W+o=149*=41*o++++++OO#W",
"W#X%=>8*=4-*X#OoooooooW",
"W#o#*=6*=<=@o#ooooooooW",
"W$o+**4**=*Oo#ooooooooW",
"W#Oo*%4*$**o++oooooooXW",
"W#+X%*1#$*$X++ooooooooW",
"WW@XO*=+$*Oo+OoooooooWW",
"WW@oX@*@**Xo@ooooooooWW",
"WW$OXo***oXO+ooooooooWW",
"WW$+o.o+..o++oooooooWWW",
"WWW*Oo..Xoo@ooooooooWWW",
"WWW@+ooooO++ooooooooWWW",
"WWWW$ooooO@oX.XXX.XWWWW",
"WWWW@*ooo*O        WWWW",
"WWWWW**$*@.       WWWWW",
"WWWWWW@*+.       WWWWWW"
};
