/* XPM */
static char *result[] = {
/* columns rows colors chars-per-pixel */
"50 50 90 1 ",
"  c #415F65",
". c #426067",
"X c #45636A",
"o c #48666E",
"O c #48686F",
"+ c #4B6C75",
"@ c #4D6F78",
"# c #4E717A",
"$ c #50747D",
"% c #527780",
"& c #557B85",
"* c #577E88",
"= c #587F89",
"- c #5B828D",
"; c #5D8692",
": c #5F8894",
"> c #678692",
", c #618A96",
"< c #698A96",
"1 c #638D9A",
"2 c #6A8C99",
"3 c #65919E",
"4 c #6793A1",
"5 c #6995A3",
"6 c #6B98A7",
"7 c #6D9BAA",
"8 c #7194A2",
"9 c #7398A7",
"0 c #739DAC",
"q c #799EAD",
"w c #71A0AF",
"e c #71A1B1",
"r c #7CA4B5",
"t c #75A7B8",
"y c #7EA7B8",
"u c #76A9BA",
"i c #7AACBD",
"p c #7CAFC1",
"a c #7DB2C4",
"s c #80A7B7",
"d c #84A8B6",
"f c #82A7B8",
"g c #82ABBD",
"h c #8AABB8",
"j c #84AFC1",
"k c #8BAFC2",
"l c #85B2C5",
"z c #8EB3C5",
"x c #84B6C9",
"c c #89B6C9",
"v c #85B8CB",
"b c #8ABACD",
"n c #90B5C8",
"m c #94B9CC",
"M c #9ABAC9",
"N c #8EBED2",
"B c #93BED2",
"V c #92C1D5",
"C c #9CC3D5",
"Z c #95C4D9",
"A c #9AC6DB",
"S c #9DC9DF",
"D c #A8C0CA",
"F c #B6C7CD",
"G c #A4C9D5",
"H c #A2CADE",
"J c #B7CCD5",
"K c #9FCAE0",
"L c #A4CDE3",
"P c #AAD1E6",
"I c #ACD3EB",
"U c #B2D3E3",
"Y c #B8D6E3",
"T c #B3D7ED",
"R c #BCDBEB",
"E c #B2D7F0",
"W c #B6DAF3",
"Q c #BDDDF5",
"! c #CAD9DE",
"~ c #C6DFE9",
"^ c #C4E1F5",
"/ c #CBE4F3",
"( c #D1E7F4",
") c #DCECF5",
"_ c #D2E8F8",
"` c #DEEFFA",
"' c #E3F1FA",
"] c #EBF4FA",
"[ c #F4F9FD",
"{ c None",
/* pixels */
"{{{{{{{{{{{{{{{{{{{{glllvcltw7{{{{{{{{{{{{{{{{{{{{",
"{{{{{{{{{{{{{{{{{lcbNNbVBbNvaaaue{{{{{{{{{{{{{{{{{",
"{{{{{{{{{{{{{{gvbNVALULLLSZZvaaaaptw{{{{{{{{{{{{{{",
"{{{{{{{{{{{{gcNVAT/']/EIIIILLSVvaaaau4{{{{{{{{{{{{",
"{{{{{{{{{{{jbVZR`[]~HVBbczbbbvbNNvaape6{{{{{{{{{{{",
"{{{{{{{{{qlNVP)[)YVgw82<<2225<6uaavaate73{{{{{{{{{",
"{{{{{{{{wlVZITUClq<>28wryyrq8$XO-waaateew4{{{{{{{{",
"{{{{{{{rgbSISVl9>2qgmHPPIIIILbw-OO=epueeew4{{{{{{{",
"{{{{{{0icKIAby<2rbHQ`_WWWILSAbaat:+X-77eeee3{{{{{{",
"{{{{{;qjSPZc9>9cS/][`QIKZcysrpaaaat* %;47ee7;{{{{{",
"{{{{{67BPVc8>yBR][`^IKVVlsq92uaaaaap:X+;15ee3{{{{{",
"{{{{36wSZc5<gH('_QEKVNBlfV2%;uaaaaaaa6X+::4w7;{{{{",
"{{{,66yNb9>jZTQWEPZVVNvyCa3+-uaaaaaaap: @:157:-{{{",
"{{{466pa8>yZIWWESVNNNbdCbi3@-taaaaaapte=.&3:43:{{{",
"{{,660a6o5BIWWIANNNNbh!Vai1#-uaaaaaapee7% *:33:-{{",
"{{163tt@oiLWWIBNNNVbyJGaai3+-uaaaaappeee:XO;:11;{{",
"{=,31t; :ZWWIVNNNVNrMguaai3+-taaaaaaeeee7& #::3;%{",
"{;1=47o+aIWIbvNNNbycg-eaai3@-taaaaaueeee7:XX=::;*{",
"{:,*4; ;KWINpaaaxrzl-$eaai3@-uaaaaueeeeee7#.@;:--{",
"{,,%,# wIWKaaaaaehl-$=gcaa3+-uaaapeeeeeeee- +=;--{",
";,;%;oocWIvaaaaerf1&-7zbai3@-taapeeeeeeeee:OO#---%",
";,*%*X%AWKaaaaaw0646uuDVau1@-taueweeeeeeee6+.+&--*",
";1*%% *BIvaaaaaapaaaauFVau1@-eeeeeeeweeeee6# +%--*",
";,%%$ *nBpaaaaaaaaaaauMVau3+-7eeeweweeeeee7# +@--=",
";1&@@ *cjetipaaaaaaaatcVai1@-6eeeeeeeeeeee4% ++---",
";1&@@ %giwewttuuiiiii7zbau1@-4eeeewe7eee741# ++*-=",
";1%@@ %qteeeweeeeeeee6zVau3@-6eeeeeeeee7441# O+*-*",
";1*@@ $47eeeweweeeewe7zVau3@-6eeeeeeee4444:@ ++*;*",
"*;=@@ @14eeeeeeeeeeee6cVat1@-6eeeeee744444;OX++*-*",
"%;=@@oo;:7eeeweeeeeee6zVat1@&5eeee76444441=XX+#*-%",
"{;=@++ =4:6eeeweeeeee6xVat1@-6ee764444444;%XO+#--{",
"{=;@++ %::37eweeeweee7zVit:+-77664444444:-+ ++#--{",
"{*;%++XX;,137eeeeeeee6zNae1#-1335444444:;-.X@O&;*{",
"{%-*@++ #;::17eeeeeee6zBae1@*1354454331;-@ O+@--{{",
"{{--#++XX*--;;46770774zNaw,@&13544343;-;-..+O#--{{",
"{{&-&+++ +----;;144341lba7,@*3534331;---O O@@--${{",
"{{{--#++X #--;--;;1331lba61@&1333:;---;# O++#--{{{",
"{{{&-*@++XX%--------,-gva41@=-,---;---$.X++#--%{{{",
"{{{{*-$+++X.%--;-----=fvu31@&=------;$.X+++#--{{{{",
"{{{{{--@++OX.#-------=ra63-+&-------#.X+++@--{{{{{",
"{{{{{%-*@+++X +&----;-6711$+&*----*+ X++++*-%{{{{{",
"{{{{{{&-%++++O..@*---*%&*&%&%-;;*#. O+++@%-*{{{{{{",
"{{{{{{{*;%#++++. X+%----------%+X X+++++%-&{{{{{{{",
"{{{{{{{{%;&#+++++X  .O+####+X.  X++++++%-%{{{{{{{{",
"{{{{{{{{{%-=%+++++++XX  .   XXO++++++#*-%{{{{{{{{{",
"{{{{{{{{{{{*-&#++++++++++++++++++++@%-*{{{{{{{{{{{",
"{{{{{{{{{{{{%--&#@+++++++++++++++#%*-%{{{{{{{{{{{{",
"{{{{{{{{{{{{{{&=-*&$#@@+++++@#$%*-*&{{{{{{{{{{{{{{",
"{{{{{{{{{{{{{{{{{*--==**&&**==-=*{{{{{{{{{{{{{{{{{",
"{{{{{{{{{{{{{{{{{{{{&&*====*&&{{{{{{{{{{{{{{{{{{{{"
};
