/* XPM */
static char *result[] = {
/* columns rows colors chars-per-pixel */
"38 50 115 2 ",
"   c #415E64",
".  c #426066",
"X  c #45646C",
"o  c #48676F",
"O  c #486770",
"+  c #4A6B74",
"@  c #4D6F78",
"#  c #4F717B",
"$  c #51747E",
"%  c #527781",
"&  c #557A84",
"*  c #587D87",
"=  c #577E88",
"-  c #587F89",
";  c #5B828D",
":  c #5D8591",
">  c #5F8895",
",  c #67878F",
"<  c #608996",
"1  c #698A96",
"2  c #638D9A",
"3  c #6C8E9B",
"4  c #65919E",
"5  c #6B919E",
"6  c #74939E",
"7  c #6793A1",
"8  c #6A95A4",
"9  c #6B98A7",
"0  c #6D9CAB",
"q  c #7295A4",
"w  c #7299A7",
"e  c #7F9BA3",
"r  c #739CAC",
"t  c #799EAE",
"y  c #71A0AF",
"u  c #79A0AF",
"i  c #71A2B2",
"p  c #7AA2B2",
"a  c #75A7B8",
"s  c #77A9BA",
"d  c #7AACBD",
"f  c #7BAFC1",
"g  c #7DB2C4",
"h  c #82A0AB",
"j  c #92A8AD",
"k  c #80A6B8",
"l  c #82ACBD",
"z  c #8AADBD",
"x  c #86B1BF",
"c  c #8BB1BF",
"v  c #94B1BD",
"b  c #99B5BE",
"n  c #83AFC1",
"m  c #83B3C5",
"M  c #89B4C7",
"N  c #83B6C9",
"B  c #8AB7CA",
"V  c #87B9CB",
"C  c #8BBACD",
"Z  c #90B4C4",
"A  c #90BECD",
"S  c #9BBDCC",
"D  c #8DBED2",
"F  c #91BFD3",
"G  c #94C0CF",
"H  c #93C1D4",
"J  c #9BC4D6",
"K  c #96C3D8",
"L  c #9AC4D9",
"P  c #9EC9DF",
"I  c #B5C4C8",
"U  c #A6C4D4",
"Y  c #A3C9D6",
"T  c #A7CDDF",
"R  c #ABCEDC",
"E  c #B1CBD5",
"W  c #B5D4DE",
"Q  c #9FCAE0",
"!  c #A4CDE3",
"~  c #A9CFE1",
"^  c #ABD0E5",
"/  c #ADD4EC",
"(  c #B3D4E5",
")  c #BFDBE7",
"_  c #B0D6EE",
"`  c #B6D9EF",
"'  c #BDDBEB",
"]  c #B6DAF3",
"[  c #BCDCF3",
"{  c #C0D2D8",
"}  c #CCDBDF",
"|  c #C3DCE7",
" . c #C4DFEC",
".. c #C6E0EE",
"X. c #CCE2EB",
"o. c #D5E5EB",
"O. c #D9E7ED",
"+. c #D8E9EF",
"@. c #C4E1F6",
"#. c #CAE4F6",
"$. c #D7EAF6",
"%. c #DCEBF2",
"&. c #D3E8F8",
"*. c #DDEEF9",
"=. c #E9EDEE",
"-. c #E3EFF5",
";. c #E5F0F4",
":. c #EAF1F4",
">. c #E5F2FB",
",. c #ECF5FA",
"<. c #F0F5F7",
"1. c #F2F7F9",
"2. c #F4F9FC",
"3. c #FEFFFF",
"4. c None",
/* pixels */
"4.4.4.4.4.4.4.4.4.4.4.2 4 7 4 4 7 7 4 8 r d M m p 0 4.4.4.4.4.4.4.4.4.4.4.4.",
"4.4.4.4.4.4.4.4.4.4.s f d f f d s i p B D D D F V g g i 4.4.4.4.4.4.4.4.4.4.",
"4.4.4.4.4.4.4.4.0 f g g g g g f d V D L ~ ^ Q Q K N g g d 9 4.4.4.4.4.4.4.4.",
"4.4.4.4.4.4.4.0 f g g f g g f f V H ^ &.>.[ / ^ ^ Q H g g f 7 4.4.4.4.4.4.4.",
"4.4.4.4.4.4.p g N m V N N V f C H ' 1.%.~ J B B C V D C g g i 4 4.4.4.4.4.4.",
"4.4.4.4.4.4.^ _ _ _ _ / _ F n F ' >.| B t h 3 1 5 2 0 g N g s 0 4.4.4.4.4.4.",
"4.4.4.4.4.o.>.>.>.>.>.>.$.Z C ! ( J p 1 q v p k u , X ; d g s i 9 4.4.4.4.4.",
"4.4.4.4.U #.#.#.#.#.#.#.U n Q ! D w 1 p J  ./ / ^ K 9 # # i s i i 4 4.4.4.4.",
"4.4.4.4./ ] ] ] ] ] ] ! n C ^ F t 3 m ( *.*.` / Q D N a % # 7 0 i 0 4.4.4.4.",
"4.4.4.n K K K K K K K k p P L p 3 M ' ,.>.*.P m p s g g s $ # 2 0 i 2 4.4.4.",
"4.4.4.d g g g g g g s 9 n ! n 3 l ' 1.&.#.-.C w q 5 g g g i + * 4 y 7 4.4.4.",
"4.4.0 f f f d f f g 0 8 B F w t ( *.#.^  .1.v k - 2 g g g g 4 O > 9 9 ; 4.4.",
"4.4.7 0 0 0 0 0 0 9 7 0 m n 3 D ` [ ^ K +.3.E d $ 2 g g g g s $ $ 4 9 > 4.4.",
"4.4.9 9 9 9 9 9 9 7 7 0 f 8 t ! ] / H T 2.3.%.x & > g g g g a < + > 4 < 4.4.",
"4.2 9 9 9 9 9 9 9 2 9 r y % A ` [ ^ | ,.3.3.3.:.I b G V g g p 9 O * 2 2 ; 4.",
"4.2 9 9 9 9 9 9 9 2 7 y < * T @...%.3.3.3.3.3.3.=.} W H g g i i * + > 2 ; 4.",
"4.7 9 9 9 9 9 9 8 > 2 r # 9 _ / K K R O.3.3.2.E , 5 g g g s y i > X ; 4 ; 4.",
"4.8 9 9 9 9 9 9 7 > > 4 + M ] K V V V z :.3.o.i $ < g g g a i i 9 + $ > ; 4.",
"> 9 9 9 9 9 9 9 4 > : ; $ Q / V g g p p W 3.W i & 4 g g d i y i 0 # + ; ; 4.",
"2 9 9 9 9 9 9 9 2 > - $ - / Q g g d p r j 3.Y a & < g g s y i i y ; o ; : & ",
"2 9 9 9 9 9 9 9 2 : = + 5 _ D f g i t ; e <.H i & > g d i i i i i : X & ; * ",
"4 9 9 9 9 8 9 9 2 : & O t / N g g y 9 9 x ;.G p & > g i i i y i i 4 X # ; & ",
": 4 4 4 4 4 4 2 > - % O t ! g g g g g g C +.A i & > i i i i i i i 7 X + ; = ",
"% & & & & & & = - : % X t B g f g g g g V X.C i & : i i y i y i i 7 X + ; ; ",
"% & & = & & & & ; : # X w n a f g g g g N ) D i & ; y i i i y i y 2 X + ; * ",
"% & & & & & & & - ; @ X 3 s y i a d d d s R D i & ; i i y i i y 0 < X + * = ",
"% & & & & & & & - : # X < i i i i i i i y S V i & : i y i i i 9 7 < X + * & ",
"% & & & & & & & = : # X ; r i i i i i i 0 z V i % ; i i i i 0 8 7 : X + & ; ",
"% & & & & & & & & : # X & 9 i i i i i i y p V i & ; i i i y 8 7 4 ; . + * * ",
"% - & & & & & & & = # O % 2 0 i i y i y 0 p V i % ; i i 0 8 7 7 4 & X + = * ",
"% & & & & & & & & = # O @ > 9 i i y i i y t N i & ; i 0 8 7 7 7 2 # X # = & ",
"% & & & & & & & & ; # + + > 4 0 i i i y y i N y % : 0 8 7 7 7 7 > + X + ; 4.",
"4.& & & & & & & & - % + X - 4 9 i i i y 0 u V y $ ; 4 4 8 4 8 4 ; o o $ = 4.",
"4.& & & & & & & & & & +   % > > 0 i y i 0 u V 0 % ; 7 7 4 8 4 : $ X + $ ; 4.",
"4.% % % % @ @ @ % % - + O O ; : 2 9 0 y 9 y V 0 $ * 7 7 4 4 > ; # X @ ; ; 4.",
"4.O O O + + + + O + - % O X & : ; ; 4 4 4 r N 9 % ; 7 7 4 > ; ; X X o ; % 4.",
"4.4.+ + + + + + + + & % + X @ : ; ; : 2 4 w N 9 & ; 4 4 : ; ; $ . + # ; 4.4.",
"4.4.+ + + + + + + + % = @ O X & ; ; ; ; ; q g 9 % $ < ; ; ; ; o o + & & 4.4.",
"4.4.O + O + + + + + @ = # + X + ; ; ; ; ; 5 d 7 & $ ; ; ; ; # . + # ; & 4.4.",
"4.4.4.+ + + + + + + + & & + + . $ ; ; ; ; 4 a 4 $ $ : ; ; ; . o + $ ; 4.4.4.",
"4.4.4.O + + + + + + + @ = @ + O . & : ; ; : 4 ; + & ; ; = X X @ + * & 4.4.4.",
"4.4.4.4.+ + + + + + + + & & + + X X % ; ; & & & & & : * X X + + # - 4.4.4.4.",
"4.4.4.4.O + + + + + + + # = # + + X   @ * ; ; ; ; ; # X X O + + * & 4.4.4.4.",
"4.4.4.4.4.O + + + + O + + & = + + + O . . O # @ O . . X + + + % = 4.4.4.4.4.",
"4.4.4.4.4.O + + + + + + + + & & + + @ + X . . . . X + + + + $ = 4.4.4.4.4.4.",
"4.4.4.4.4.4.O + + + + + + + + = & + + + @ + + + + + + + + $ = 4.4.4.4.4.4.4.",
"4.4.4.4.4.4.4.+ + + + + + + + # = = # + + + + + + + + # % = & 4.4.4.4.4.4.4.",
"4.4.4.4.4.4.4.4.O + + O + O O X X & ; & # @ + # + # # ; - 4.4.4.4.4.4.4.4.4.",
"4.4.4.4.4.4.4.4.4.. . .             + * ; ; * = * ; ; & 4.4.4.4.4.4.4.4.4.4.",
"4.4.4.4.4.4.4.4.4.4.4.                  + $ * * & & 4.4.4.4.4.4.4.4.4.4.4.4."
};
