/* XPM */
static char *result[] = {
/* columns rows colors chars-per-pixel */
"50 50 187 2 ",
"   c #060202",
".  c #0B0202",
"X  c #0E0C0C",
"o  c #100F0F",
"O  c #1D0E0E",
"+  c #1D1212",
"@  c #200D0D",
"#  c #2B0C0C",
"$  c #250101",
"%  c #350B0B",
"&  c #3D0A0A",
"*  c #211313",
"=  c #2D1919",
"-  c #2B1212",
";  c #321C1C",
":  c #3B1E1E",
">  c #3C2121",
",  c #322B2B",
"<  c #363434",
"1  c #393C3C",
"2  c #430909",
"3  c #4B0909",
"4  c #470404",
"5  c #500A0A",
"6  c #590A0A",
"7  c #630606",
"8  c #6F0505",
"9  c #600909",
"0  c #740404",
"q  c #790505",
"w  c #7A0909",
"e  c #730A0A",
"r  c #781B1B",
"t  c #462525",
"y  c #482626",
"u  c #4D2A2A",
"i  c #552D2D",
"p  c #5A2D2D",
"a  c #532525",
"s  c #433B3B",
"d  c #4C3939",
"f  c #5D3939",
"g  c #683535",
"h  c #743C3C",
"j  c #474141",
"k  c #4D4949",
"l  c #4F4545",
"z  c #514C4C",
"x  c #614A4A",
"c  c #685C5C",
"v  c #646464",
"b  c #646A6A",
"n  c #8B0404",
"m  c #860606",
"M  c #9C0D0D",
"N  c #950D0D",
"B  c #A20202",
"V  c #A90202",
"C  c #A60909",
"Z  c #B70505",
"A  c #BA0404",
"S  c #BD0A0A",
"D  c #A41212",
"F  c #BA1414",
"G  c #B61313",
"H  c #843D3D",
"J  c #812626",
"K  c #BC2222",
"L  c #A23333",
"P  c #C20B0B",
"I  c #C80A0A",
"U  c #C31313",
"Y  c #CC1717",
"T  c #C71A1A",
"R  c #CC1B1B",
"E  c #D31E1E",
"W  c #CE2222",
"Q  c #C62929",
"!  c #D42525",
"~  c #D82626",
"^  c #D72A2A",
"/  c #D82C2C",
"(  c #C93737",
")  c #D63232",
"_  c #D83333",
"`  c #D53B3B",
"'  c #DA3C3C",
"]  c #854545",
"[  c #8D4242",
"{  c #8D4949",
"}  c #854848",
"|  c #9F4F4F",
" . c #904B4B",
".. c #8B5151",
"X. c #AC4747",
"o. c #B64F4F",
"O. c #A55252",
"+. c #BC5454",
"@. c #BF5A5A",
"#. c #B05656",
"$. c #827C7C",
"%. c #977878",
"&. c #B77272",
"*. c #C94444",
"=. c #CC4B4B",
"-. c #C64747",
";. c #D54242",
":. c #DC4444",
">. c #D64B4B",
",. c #DC4A4A",
"<. c #C15656",
"1. c #CD5454",
"2. c #C05E5E",
"3. c #CF5858",
"4. c #DE5555",
"5. c #D75A5A",
"6. c #DB5D5D",
"7. c #E14B4B",
"8. c #E15D5D",
"9. c #C46262",
"0. c #CB6262",
"q. c #DB6464",
"w. c #DC6A6A",
"e. c #D46969",
"r. c #DE7777",
"t. c #DB7B7B",
"y. c #D77C7C",
"u. c #E26464",
"i. c #E36B6B",
"p. c #E47474",
"a. c #E57C7C",
"s. c gray53",
"d. c #8B8B8B",
"f. c #878888",
"g. c #9F8787",
"h. c #998D8D",
"j. c #9D9D9D",
"k. c #A28A8A",
"l. c #A39292",
"z. c #9DA1A1",
"x. c #A0A1A1",
"c. c #C18E8E",
"v. c #CA8282",
"b. c #DE8484",
"n. c #DE8D8D",
"m. c #DF9B9B",
"M. c #E48585",
"N. c #E98686",
"B. c #E28D8D",
"V. c #E98B8B",
"C. c #E39494",
"Z. c #EB9393",
"A. c #E59B9B",
"S. c #ED9C9C",
"D. c #F39C9C",
"F. c #D5ADAD",
"G. c #C2BDBD",
"H. c #DBBBBB",
"J. c #E6A3A3",
"K. c #ECA4A4",
"L. c #E7ABAB",
"P. c #EBACAC",
"I. c #F3A0A0",
"U. c #F0A9A9",
"Y. c #ECB2B2",
"T. c #EDB9B9",
"R. c #F1B4B4",
"E. c #F2BBBB",
"W. c #C2C0C0",
"Q. c #DEC1C1",
"!. c #DFD3D3",
"~. c #EEC2C2",
"^. c #E2CECE",
"/. c #F4C3C3",
"(. c #F4CBCB",
"). c #FFCBCB",
"_. c #F5D4D4",
"`. c #F5DBDB",
"'. c #F9DBDB",
"]. c #E5E4E4",
"[. c #EBECEC",
"{. c #FAE5E5",
"}. c #FCECEC",
"|. c #F7E8E8",
" X c #FDF5F5",
".X c #FFFDFD",
"XX c None",
/* pixels */
"XXXXXXXXXXXXXXXXXXXXXXXXXXXXXXXXXXXXXXX X X X X X X X X X X X XXXXXXXXXXXXXXXXXXXXXXXXXXXXXXXXXXXXXX",
"XXXXXXXXXXXXXXXXXXXXXXXXXXXXXXXXXXXXXX* * * * * * @ * * * * * XXXXXXXXXXXXXXXXXXXXXXXXXXXXXXXXXXXXXX",
"XXXXXXXXXXXXXXXXXXXXXXXXXXXXXXXXXXXX: y a u u u u u u a u u y : XXXXXXXXXXXXXXXXXXXXXXXXXXXXXXXXXXXX",
"XXXXXXXXXXXXXXXXXXXXXXXXXXXXX   X * i h { { { { { { { [ { { h a *     . XXXXXXXXXXXXXXXXXXXXXXXXXXXX",
"XXXXXXXXXXXXXXXXXXXXXXXXXX+ + o O ; g | @.0.0.9.9.9.0.0.0.2.O.g ; + + + * XXXXXXXXXXXXXXXXXXXXXXXXXX",
"XXXXXXXXXXXXXXXXXXXXXXXX: t t t t i H o.6.u.8.6.6.6.6.6.8.5.o...x k k k k s XXXXXXXXXXXXXXXXXXXXXXXX",
"XXXXXXXXXXXXXXXXXXXXXX= i h ] ] ] { X.-.>.7.:.,.:.7.,.:.:.;.3.&.l.j.z.j.d.b , XXXXXXXXXXXXXXXXXXXXXX",
"XXXXXXXXXXXXXXXXXXXX+ : h O.9.9.2.<.=.` ) ) _ _ _ _ ) / / ` q.m.^.].[.].G.$.1 + XXXXXXXXXXXXXXXXXXXX",
"XXXXXXXXXXXXXXXXXX= > p [ +.6.u.q.6.>._ ^ ^ ! ^ ~ ~ ^ ) ' 8.N./. X.X X'.H.k.c j < XXXXXXXXXXXXXXXXXX",
"XXXXXXXXXXXXXXXX; i h [ X.=.,.,.7.:.' ) ^ ~ ^ ~ ! E ~ :.i.Z.E.{..X X).D.n.c.l.f.b 1 XXXXXXXXXXXXXXXX",
"XXXXXXXXXXXXXX+ t h O.<.>.` _ _ _ _ ) / ^ ^ ^ ^ ~ ~ ) 8.S._.}..X.X'.D.u.q.C.T.W.f.j + XXXXXXXXXXXXXX",
"XXXXXXXXXXXX= : p [ <.5.7._ ^ ~ ^ ^ ^ ^ ^ / ) ) ' :.4.N./. X.X X'.R.V.u.i.D./.H.%.f % $ XXXXXXXXXXXX",
"XXXXXXXXXX> p h H X.=.,.' _ ^ ~ ^ ~ ~ ^ / ) ` >.6.p.A.T.{..X X/.S.V.V.Z.S.I.I.b.#.J 9 3 % XXXXXXXXXX",
"XXXXXXXX+ t h O.+.>.' _ / / ^ ^ ^ ^ ~ ^ / ` >.q.M.Y._.}..X.X_.Z.u.i.A././.I.i.;.Q D n 7 & O XXXXXXXX",
"XXXXXXX O t ] 9.q.,._ ^ ^ ~ ^ ^ ^ ^ / / ` ,.e.b.Y.`. X.X X_.Y.M.8.i.D.(./.V.7.~ I A B 8 & O X XXXXXX",
"XXXXXXX + t ] 9.6.7._ ^ / ^ ^ ^ ^ / ) ` >.w.C.Y._. X.X|.Y.C.t.M.V.Z.K.K.V.u.' ! I P C 0 & + o XXXXXX",
"XXXXXXX + t ] 9.q.,._ ^ ~ ^ ^ ^ ^ / ` >.e.n.T.`. X.X.X~.y.-.3.n.T.E.S.i.4.' ) ! U A V 8 & O o XXXXXX",
"XXXXXXX + t ] 2.6.,._ ^ ^ ^ ^ ^ / ` >.q.b.Y.`. X.X.X`.P.e.( =.m.(./.N.,.^ ^ ^ ! Y P B 8 & O o XXXXXX",
"XXXXXXX + y ] 2.q.,.) ^ ^ ^ / ) ' >.w.C.P._. X.X}./.K.B.t.e.y.C.K.Z.u.` ~ ~ ~ ! R A B 8 & O o XXXXXX",
"XXXXXXX + y ] 2.6.,._ ^ ~ ^ ) ' >.q.B.T.`. X.X.X(.Z.i.p.A.Y.P.C.i.4.:./ ~ ^ ^ ~ Y S B 8 & + o XXXXXX",
"XXXXXXX + y ] 2.6.,._ ^ ~ ^ ) >.e.b.L.`. X.X.X'.R.p.8.p.P.(.T.M.:./ ^ ^ ^ / ^ ^ Y S M 0 & O X XXXXXX",
"XXXXXXX + y ] 2.q.,._ ^ ! ~ _ 6.M.P._. X.X}.(.P.Z.N.p.M.A.J.M.6.) ! ~ ^ / / ^ ! Y P B 8 & O o XXXXXX",
"XXXXXXX + y ] 2.q.,._ ^ E ~ ' p.Y.`. X.X X(.Z.i.M.I.R.L.y.5.*.) / ! ^ ^ ^ / ^ W Y A V 8 & O X XXXXXX",
"XXXXXXX + t ] 2.6.,._ ^ ^ _ 4.Z._. X.X.X|.P.p.4.p.R._.L.0.K S T ! ^ ^ / ^ / ^ ^ Y S B 8 & O X XXXXXX",
"XXXXXXX O y ] 2.6.:._ _ :.u.N.E.}..X X{./.K.N.p.V.U.Y.M.-.S Z P ! / / / / / / W Y P B 8 & O o XXXXXX",
"XXXXXXX + t ] 2.5.:./ ' i.S./.}..X X`.Y.A.J.Y.R.U.Z.p.>.Q Z A U W ^ / / ^ / / ! Y A M 8 & + o XXXXXX",
"XXXXXXX O t ] 2.6.,.' 4.Z.(. X.X X|./.C.n.J.(.`.R.a.7.! S Z S U ^ / / ^ ^ / ^ ! Y P B 8 & O o XXXXXX",
"XXXXXXX + t ] 2.w.u.i.N.E.}..X}._.T.L.A.A.L.E.E.Z.8.^ I S Z S T W / / / ^ / ^ W Y A B 8 & O o XXXXXX",
"XXXXXXX + t H @.r.V.K./.{..X X/.Z.a.Z.Y.~.Y.S.a.8.:.^ T S Z S U ! / / ^ ^ / ^ ! Y S B 0 & O o XXXXXX",
"XXXXXXX @ t ] 9.B.R.'. X.X.X'.K.i.8.N./.'.Y.p.:._ _ ^ R U Z S T ! / / / ^ / ^ ! Y P M 8 & O X XXXXXX",
"XXXXXXX + t ..v.P.'. X.X X_.R.Z.i.p.Z.~.(.S.8./ ~ ~ ^ R S Z S T ! / / ^ / / ^ ! Y P B 8 & O X XXXXXX",
"XXXXXX. + d %.F.'. X.X X/.Z.M.V.S.P.Y.Y.L.a.,.^ ~ ^ / R F Z S U ! / / ^ ^ / ^ ! Y A B 8 & + o XXXXXX",
"XXXXXX. + k h.!..X.X.X'.S.u.u.V./._./.A.r.5.;./ ^ ^ ^ R U Z S T ! / / ^ ^ / ^ ! T S B 8 & O X XXXXXX",
"XXXXXX. = z z.]..X X_.E.V.i.i.V.E./.L.t.5.;.) W R W W T U S U T ! / / / / / / ! Y P B 8 & O X XXXXXX",
"XXXXXX. + z l.[. X).S.V.V.S.S.S.Z.V.p.6.' Q W U P F U U U U R W ^ / / ^ / / / ~ Y I V 0 & O o XXXXXX",
"XXXXXX. + z z.].'.I.u.u.Z./.(.K.i.,.' _ ) W F S Z Z S S T W ^ ^ ^ ^ ^ ^ ^ ^ ^ ! Y S M 8 & + o XXXXXX",
"XXXXXXXX+ k d.G.H.n.u.i.D./.E.V.7.^ ~ ~ ^ R U S Z Z S U R ^ ^ / ^ ^ / / ^ ^ ! T F C m 7 & O XXXXXXXX",
"XXXXXXXXXXs v $.g.c.C.D.D.S.V.u.' ! ! ! ^ R T U U U U T W ^ _ / / / / / ~ ! E F N w 7 3 % XXXXXXXXXX",
"XXXXXXXXXXXX, s c l.Q./.D.i.,.' ) ^ ^ ^ ^ ! ! ! ! W ! ! ^ / / / ^ / / / ! R P C w 5 % # XXXXXXXXXXXX",
"XXXXXXXXXXXXXX+ s s.W.H.C.4._ / ) ) ) / / / / ^ ^ / ^ ^ ^ ^ ^ W W ! ^ W R F C m 7 % O XXXXXXXXXXXXXX",
"XXXXXXXXXXXXXXXX< b s.k.&.1.:.7.,.:.:._ / / / / _ / / / / / ~ E E Y Y Y F N w 7 3 # XXXXXXXXXXXXXXXX",
"XXXXXXXXXXXXXXXXXX< j x  .<.6.8.6.5.>._ / / ^ ^ ^ / / / / / W T P A I A C w 3 % # XXXXXXXXXXXXXXXXXX",
"XXXXXXXXXXXXXXXXXXXX+ > h O.@.9.9.@.=.( ^ ! ~ ~ ~ ! ! ! ^ ! R G C B V M n 7 % O XXXXXXXXXXXXXXXXXXXX",
"XXXXXXXXXXXXXXXXXXXXXX- i h } } ] [ L K R Y Y R R R Y E R T G N q 8 8 0 9 3 # XXXXXXXXXXXXXXXXXXXXXX",
"XXXXXXXXXXXXXXXXXXXXXXXX: t t t t a r C S I P P P S S P P S M e 3 & % & & % XXXXXXXXXXXXXXXXXXXXXXXX",
"XXXXXXXXXXXXXXXXXXXXXXXXXX+ + o O # 6 m M V V V V V V V V B m 6 % O O O O XXXXXXXXXXXXXXXXXXXXXXXXXX",
"XXXXXXXXXXXXXXXXXXXXXXXXXXXXX X X O 4 7 0 q q 0 0 0 0 0 q 0 7 2 O o X o XXXXXXXXXXXXXXXXXXXXXXXXXXXX",
"XXXXXXXXXXXXXXXXXXXXXXXXXXXXXXXXXXXX# & 4 4 2 2 2 2 2 2 2 2 2 % XXXXXXXXXXXXXXXXXXXXXXXXXXXXXXXXXXXX",
"XXXXXXXXXXXXXXXXXXXXXXXXXXXXXXXXXXXXXXO @ @ @ @ @ @ @ @ @ @ O XXXXXXXXXXXXXXXXXXXXXXXXXXXXXXXXXXXXXX",
"XXXXXXXXXXXXXXXXXXXXXXXXXXXXXXXXXXXXXXo o o o o o o o o o o o XXXXXXXXXXXXXXXXXXXXXXXXXXXXXXXXXXXXXX"
};
