/* XPM */
static char *result[] = {
/* columns rows colors chars-per-pixel */
"50 50 194 2 ",
"   c #0B0303",
".  c #0D0C0C",
"X  c #050000",
"o  c #120E0E",
"O  c #180E0E",
"+  c #1A1111",
"@  c #210D0D",
"#  c #2D0C0C",
"$  c #2B0101",
"%  c #330B0B",
"&  c #3C0A0A",
"*  c #370707",
"=  c #221515",
"-  c #241A1A",
";  c #281717",
":  c #331C1C",
">  c #3A1F1F",
",  c gray17",
"<  c #3B2121",
"1  c #342B2B",
"2  c #3D2A2A",
"3  c #322020",
"4  c #3B3232",
"5  c #3F3939",
"6  c #450505",
"7  c #430909",
"8  c #4B0A0A",
"9  c #5A0707",
"0  c #570A0A",
"q  c #5A0707",
"w  c #620606",
"e  c #6E0909",
"r  c #760404",
"t  c #780505",
"y  c #740909",
"u  c #7B1818",
"i  c #4F2C2C",
"p  c #402424",
"a  c #542222",
"s  c #552C2C",
"d  c #403737",
"f  c #413939",
"g  c #513434",
"h  c #6A3838",
"j  c #743D3D",
"k  c #474242",
"l  c #554545",
"z  c #524A4A",
"x  c #5A5353",
"c  c #535151",
"v  c #764141",
"b  c #784848",
"n  c #635C5C",
"m  c #7C5757",
"M  c #5F6363",
"N  c #606060",
"B  c #756E6E",
"V  c #7E7C7C",
"C  c #777171",
"Z  c #850404",
"A  c #960202",
"S  c #9A0202",
"D  c #940D0D",
"F  c #9D0909",
"G  c #A40404",
"H  c #A90202",
"J  c #A60909",
"K  c #B50505",
"L  c #B90606",
"P  c #B70909",
"I  c #BC0A0A",
"U  c #A01212",
"Y  c #B41212",
"T  c #B91111",
"R  c #BC1C1C",
"E  c #843E3E",
"W  c #BE2323",
"Q  c #A43737",
"!  c #C20A0A",
"~  c #C90A0A",
"^  c #C41313",
"/  c #CA1414",
"(  c #C41A1A",
")  c #CA1919",
"_  c #D01B1B",
"`  c #CC2222",
"'  c #C82E2E",
"]  c #D32525",
"[  c #D72B2B",
"{  c #D82D2D",
"}  c #CA3333",
"|  c #C53838",
" . c #D63232",
".. c #D93535",
"X. c #D63D3D",
"o. c #DA3B3B",
"O. c #8B4141",
"+. c #8F4D4D",
"@. c #8A5A5A",
"#. c #9F5050",
"$. c #955F5F",
"%. c #A94646",
"&. c #A05151",
"*. c #BB5555",
"=. c #B45A5A",
"-. c #B55A5A",
";. c #816464",
":. c #946161",
">. c #837373",
",. c #837E7E",
"<. c #B76565",
"1. c #BC7373",
"2. c #CA4747",
"3. c #CB4A4A",
"4. c #D74545",
"5. c #D84545",
"6. c #D54D4D",
"7. c #DC4C4C",
"8. c #C85757",
"9. c #D75555",
"0. c #DE5252",
"q. c #D55D5D",
"w. c #D95C5C",
"e. c #E15D5D",
"r. c #E25252",
"t. c #CE6666",
"y. c #D66262",
"u. c #D96363",
"i. c #D96B6B",
"p. c #CB7575",
"a. c #DC7979",
"s. c #DE7070",
"d. c #E16262",
"f. c #E56B6B",
"g. c #E57373",
"h. c #E67C7C",
"j. c #E97878",
"k. c #878181",
"l. c #8A8484",
"z. c #9E8585",
"x. c #978989",
"c. c #8C9090",
"v. c #999797",
"b. c #BC8888",
"n. c #A39E9E",
"m. c #A6A3A3",
"M. c #AAABAB",
"N. c #B9B6B6",
"B. c #C18B8B",
"V. c #D38C8C",
"C. c #DF8888",
"Z. c #CA9E9E",
"A. c #DE9A9A",
"S. c #E68080",
"D. c #EA8484",
"F. c #E38C8C",
"G. c #EA8B8B",
"H. c #E49393",
"J. c #EC9393",
"K. c #EC9B9B",
"L. c #E59898",
"P. c #F39E9E",
"I. c #C9ABAB",
"U. c #CCB6B6",
"Y. c #D7B7B7",
"T. c #EDA4A4",
"R. c #ECA9A9",
"E. c #E7A3A3",
"W. c #F3A3A3",
"Q. c #F5ACAC",
"!. c #EDB3B3",
"~. c #E8BABA",
"^. c #F2B5B5",
"/. c #F3BDBD",
"(. c #F9B9B9",
"). c #CCCECE",
"_. c #CFC1C1",
"`. c #D4C4C4",
"'. c #D3D6D6",
"]. c #F3C4C4",
"[. c #F5CDCD",
"{. c #FAC6C6",
"}. c #E4D7D7",
"|. c #F5D2D2",
" X c #FFDDDD",
".X c #F7D9D9",
"XX c #E5E3E3",
"oX c #EEECEC",
"OX c #FDE5E5",
"+X c #FBECEC",
"@X c #EDF4F4",
"#X c #FFFCFC",
"$X c #F4F5F5",
"%X c None",
/* pixels */
"%X%X%X%X%X%X%X%X%X%X%X%X%X%X%X%X%X%X%X                .       %X%X%X%X%X%X%X%X%X%X%X%X%X%X%X%X%X%X%X",
"%X%X%X%X%X%X%X%X%X%X%X%X%X%X%X%X%X%X%X- - - ; - = ; = = ; - - %X%X%X%X%X%X%X%X%X%X%X%X%X%X%X%X%X%X%X",
"%X%X%X%X%X%X%X%X%X%X%X%X%X%X%X%X%X%Xf z x x x x l g i g l c c k %X%X%X%X%X%X%X%X%X%X%X%X%X%X%X%X%X%X",
"%X%X%X%X%X%X%X%X%X%X%X%X%X%X%X%X%X- x l.m.M.M.m.z.:.+.:.z.n.c.M , %X%X%X%X%X%X%X%X%X%X%X%X%X%X%X%X%X",
"%X%X%X%X%X%X%X%X%X%X%X%X%X%X%X%X+ 4 C N.XX$XoX}.Y.V.p.V.~.}.N.B 1 O %X%X%X%X%X%X%X%X%X%X%X%X%X%X%X%X",
"%X%X%X%X%X%X%X%X%X%X%X%X%X%X%X4 l N v.'.#X#XOX[.^.E.K.Q./.].Z.@.a * $ %X%X%X%X%X%X%X%X%X%X%X%X%X%X%X",
"%X%X%X%X%X%X%X%X%X%X%X%X%X%X1 n k.m.).@X#X XQ.G.J.^.]./.Q.G.t.Q u w 6 # %X%X%X%X%X%X%X%X%X%X%X%X%X%X",
"%X%X%X%X%X%X%X%X%X%X%X%X%Xo 1 C N.XX$X#X+X^.j.e.h.^..X].D.r.} T G Z q # O %X%X%X%X%X%X%X%X%X%X%X%X%X",
"%X%X%X%X%X%X%X%X%X%X%X%XX o 2 V ).#X#XOX].K.g.d.S.Q.].W.f...) ~ K A 9 # o . %X%X%X%X%X%X%X%X%X%X%X%X",
"%X%X%X%X%X%X%X%X%X%X%X%X%X  1 V '.#X XQ.G.G.J.K.K.K.G.g.7.{ _ ~ K Z 9 # o %X%X%X%X%X%X%X%X%X%X%X%X%X",
"%X%X%X%X%X%X%X%X%X%X%X%X  o 4 ,.).OX(.j.w.D.!.[.^.S.0.X...[ _ / L A q # O . %X%X%X%X%X%X%X%X%X%X%X%X",
"%X%X%X%X%X%X%X%X%X%X%X%X, 5 x x.U.].W.f.d.G.].|.Q.g.5.{ [ [ ] / P F e 8 # # %X%X%X%X%X%X%X%X%X%X%X%X",
"%X%X%X%X%X%X%X%X%X%X%X4 M V x.b.V.G.J.J.J.R.!.!.L.f.6.X. .{ ] _ / Y D e 9 8 # %X%X%X%X%X%X%X%X%X%X%X",
"%X%X%X%X%X%X%X%X%X%XO 5 V N.`.A.i.d.D.^.[.].E.C.a.i.y.6.X.{ [ [ ] ) Y F Z 0 % + %X%X%X%X%X%X%X%X%X%X",
"%X%X%X%X%X%X%X%X%X  O 5 ,.`.|.W.f.w.D./.|.~.H.i.y.y.q.6.X.{ [ [ [ ] / L A w # + o %X%X%X%X%X%X%X%X%X",
"%X%X%X%X%X%X%X%X%X  O 2 ;.Z.^.Q.K.J.J.P.K.H.a.u.8.3.| |  .{ [ { [ ] / I S w # + o %X%X%X%X%X%X%X%X%X",
"%X%X%X%X%X%X%X%X%X  O < b 1.H.^.{.].W.j.e.w.u.u.3.| R ( ` [ { { [ _ / L A w % O o %X%X%X%X%X%X%X%X%X",
"%X%X%X%X%X%X%X%X%X. O < b <.F.!.|.[.K.u.X.4.w.u.3.W P I ) [ { { [ ] / L A w % O o %X%X%X%X%X%X%X%X%X",
"%X%X%X%X%X%X%X%X%X  O 2 m B.R.^.^.W.D.w.4.6.y.y.3.R K L ( ] { { [ ] / L A w % O o %X%X%X%X%X%X%X%X%X",
"%X%X%X%X%X%X%X%X%X  O d >.U.[.Q.h.d.w.w.q.y.i.y.2.W P I / [ { { [ ` / I A w % O o %X%X%X%X%X%X%X%X%X",
"%X%X%X%X%X%X%X%X%X  O 5 l.`.|.P.e...X.9.y.i.i.u.2.W P I ( [ { { [ ) / L A w % O . %X%X%X%X%X%X%X%X%X",
"%X%X%X%X%X%X%X%X%X  O 2 C I.!.G.7.{  .4.9.y.i.u.2.W P I ) ] { { [ ] / L A w % O o %X%X%X%X%X%X%X%X%X",
"%X%X%X%X%X%X%X%X%X  O 2 m 1.D.f.o.[ [ ..5.9.y.y.2.W I L ( ] { { [ ] / L A w % O . %X%X%X%X%X%X%X%X%X",
"%X%X%X%X%X%X%X%X%X  O > v <.u.e.X.{ [ [  .5.w.y.3.W P I ) [ { { { ` / L A w % O o %X%X%X%X%X%X%X%X%X",
"%X%X%X%X%X%X%X%X%X. O > j -.q.7...{ ] ] { 5.w.y.2.W P I / [ { { [ ` / L A w % O o %X%X%X%X%X%X%X%X%X",
"%X%X%X%X%X%X%X%X%X  O > h -.q.7...[ [ ] { 5.q.y.3.W P I ) ] { { [ ] / L A w % O o %X%X%X%X%X%X%X%X%X",
"%X%X%X%X%X%X%X%X%X. O > j -.q.0.o.{ ] [  .4.w.y.3.W L I ( ] { { [ ] / L A w * O . %X%X%X%X%X%X%X%X%X",
"%X%X%X%X%X%X%X%X%X  O > j -.y.r.o.{ [ [  .4.w.y.3.W P I ) [ { { [ ` / L A w % O o %X%X%X%X%X%X%X%X%X",
"%X%X%X%X%X%X%X%X%X. O > j -.y.7.o.{ ] ]  .5.w.y.3.W I I ) ] { { [ _ / L A w % + o %X%X%X%X%X%X%X%X%X",
"%X%X%X%X%X%X%X%X%X  O > j -.y.r.o.{ [ {  .4.w.y.3.W P I / [ { { [ ] / L A w % + . %X%X%X%X%X%X%X%X%X",
"%X%X%X%X%X%X%X%X%X. O < j =.y.r...{ ] [  .4.q.y.3.W P I ( ] {  .{ ] / L A w # + o %X%X%X%X%X%X%X%X%X",
"%X%X%X%X%X%X%X%X%X. O < j =.d.r...{ ] [  .4.y.u.3.W P I / [ { { [ ` / L A w # + o %X%X%X%X%X%X%X%X%X",
"%X%X%X%X%X%X%X%X%X. O < j =.y.0.o.{ [ [ { 5.q.y.2.W P I / [ { { { ` / L A w % O o %X%X%X%X%X%X%X%X%X",
"%X%X%X%X%X%X%X%X%X. O > j =.y.0.o.{ ] ]  .o.6.3.| R K I ( [ { { [ ] / L A w % O o %X%X%X%X%X%X%X%X%X",
"%X%X%X%X%X%X%X%X%X  O > j -.y.0.o.{ ] [ [ { } ' R P K I ) ] { { [ ] / L A w % O o %X%X%X%X%X%X%X%X%X",
"%X%X%X%X%X%X%X%X%X. O > j -.y.0.o.{ ] [ [ _ R P P K L P ) [ { { [ ` / L A w % O . %X%X%X%X%X%X%X%X%X",
"%X%X%X%X%X%X%X%X%X  O > j -.u.r.o.[ [ [ [ ) ^ L K K I ^ ) [ { { [ _ / I S w % O o %X%X%X%X%X%X%X%X%X",
"%X%X%X%X%X%X%X%X%X. O > j -.u.r.o.[ [ [ [ ] / / ^ ^ ( ) ` [ { { { ] / I S w % O o %X%X%X%X%X%X%X%X%X",
"%X%X%X%X%X%X%X%X%X. O < v -.u.r.X.[ [ [ [ ] ] ] ` ` ] ` [ [ [ { [ ] / L A w * O . %X%X%X%X%X%X%X%X%X",
"%X%X%X%X%X%X%X%X%X%XO > j &.*.3.X. .{ { { { [ [ { { { [ [ { [ [ ] ) Y G Z 9 % O %X%X%X%X%X%X%X%X%X%X",
"%X%X%X%X%X%X%X%X%X%X%X> s j O.%.2.4.o...{ { { { { { { { { [ [ ] ) Y D y 0 8 # %X%X%X%X%X%X%X%X%X%X%X",
"%X%X%X%X%X%X%X%X%X%X%X%X; < s E *.q.7.o.{ { { [ { { { [ { [ ] ) ! J y 8 & # %X%X%X%X%X%X%X%X%X%X%X%X",
"%X%X%X%X%X%X%X%X%X%X%X%X%XO > h &.8.3.} [ ] ] ] ] ] ] ] [ ] ) T J Z 0 # + %X%X%X%X%X%X%X%X%X%X%X%X%X",
"%X%X%X%X%X%X%X%X%X%X%X%X%X%X; i v O.Q W ) _ _ / ) _ _ _ _ / Y D t 9 8 @ %X%X%X%X%X%X%X%X%X%X%X%X%X%X",
"%X%X%X%X%X%X%X%X%X%X%X%X%X%X%X3 p a u U I ! ! I ! I ! ! ! I F y 8 & # %X%X%X%X%X%X%X%X%X%X%X%X%X%X%X",
"%X%X%X%X%X%X%X%X%X%X%X%X%X%X%X%X+ # 0 Z G H H H H H H H H G Z 0 % + %X%X%X%X%X%X%X%X%X%X%X%X%X%X%X%X",
"%X%X%X%X%X%X%X%X%X%X%X%X%X%X%X%X%X@ 6 w r r r r r r r r t r w 8 @ %X%X%X%X%X%X%X%X%X%X%X%X%X%X%X%X%X",
"%X%X%X%X%X%X%X%X%X%X%X%X%X%X%X%X%X%X% & & 8 7 7 7 7 7 7 7 7 & % %X%X%X%X%X%X%X%X%X%X%X%X%X%X%X%X%X%X",
"%X%X%X%X%X%X%X%X%X%X%X%X%X%X%X%X%X%X%XO @ @ @ @ + @ O = @ @ O %X%X%X%X%X%X%X%X%X%X%X%X%X%X%X%X%X%X%X",
"%X%X%X%X%X%X%X%X%X%X%X%X%X%X%X%X%X%X%Xo o o o o o o o o o . o %X%X%X%X%X%X%X%X%X%X%X%X%X%X%X%X%X%X%X"
};
