/* XPM */
static char *result[] = {
/* columns rows colors chars-per-pixel */
"23 50 87 1 ",
"  c #405D63",
". c #436167",
"X c #45646C",
"o c #48686F",
"O c #4A6B74",
"+ c #4D6F78",
"@ c #4F717B",
"# c #51747E",
"$ c #537781",
"% c #557A85",
"& c #577D88",
"* c #587E89",
"= c #5B828D",
"- c #5E8692",
"; c #5F8995",
": c #618996",
"> c #698A96",
", c #638D9A",
"< c #698D9A",
"1 c #65909E",
"2 c #69919F",
"3 c #6793A1",
"4 c #6B95A4",
"5 c #6B98A7",
"6 c #6D9BAB",
"7 c #7197A5",
"8 c #7398A6",
"9 c #7A99A2",
"0 c #719EAD",
"q c #799EAE",
"w c #71A0AF",
"e c #72A2B2",
"r c #7AA4B4",
"t c #7FA8B6",
"y c #76A7B8",
"u c #77A9BA",
"i c #7AADBE",
"p c #7CAFC1",
"a c #7DB1C3",
"s c #81A6B7",
"d c #88ABB6",
"f c #82ABBD",
"g c #91ABB2",
"h c #83B3C4",
"j c #8AB3C5",
"k c #83B6C9",
"l c #8CB5C9",
"z c #86B9CC",
"x c #8BBACD",
"c c #96BAC6",
"v c #96BACA",
"b c #8CBDD1",
"n c #93C1D6",
"m c #9AC1D5",
"M c #97C4D9",
"N c #9BC6DA",
"B c #9DC8DE",
"V c #A3C2D0",
"C c #ACCAD7",
"Z c #A1C7DC",
"A c #A4CADE",
"S c #B5CFDA",
"D c #9FCAE0",
"F c #A4CDE3",
"G c #A8CDE4",
"H c #B2CEE0",
"J c #ACD1E3",
"K c #AED4EB",
"L c #BBD8E4",
"P c #B0D6EE",
"I c #B5DAF3",
"U c #BADBF0",
"Y c #C7D9DF",
"T c #CFDCE1",
"R c #C2DDEB",
"E c #D9E9EF",
"W c #C7E2F4",
"Q c #CBE4F5",
"! c #D3E7F2",
"~ c #DEEDF5",
"^ c #DDEEFA",
"/ c #E2EBED",
"( c #E2EFF8",
") c #E5F2FB",
"_ c #F5FAFC",
"` c white",
"' c None",
/* pixels */
"'''''':3133333rke''''''",
"'''''56eewww0ibbky'''''",
"''''eaaaaahpibGFxae''''",
"''''iaaaaaaixR!KFzi''''",
"'''ykkkkkkkiJ/Nxxba5'''",
"'''GKKKPKPAxQC7>2yaw'''",
"''')))))))CNA72s>$ie1''",
"''HQQQQQQWcBd7NKB=,y4''",
"''KIIIIIIGjM8mQPMy$45''",
"''bMMMMMMhljr!Wxya;=6''",
"'whaaaaaa6xrV^G8>ae$5:'",
"'epaaaaap5jrRUx4=ia*,,'",
"'466666654ffPFj8=ia;-:'",
"'355555534wlPMSs%pa3&,'",
"'4555555352mKL_Y9aa5$;'",
"'5555555,4:AGE`/daa6$;'",
":5555555,,,GMlYc&iie$=&",
",5555555,:2Gxrdt*iue&=&",
",5555555:=wNi5-w*iye-%%",
"35555555-#snu<&w=iye;@&",
"35555555-#fnw-=w*yyw;$=",
"35555564-#jke32r*ywe1@%",
":3111,1,=#dkaawr%wee3@%",
"%%%%%*%%*#raahww%6we3O%",
"%%%%%%%%=O0iaa0w%6ee1O%",
"$%%%%%%%=O5eii0e=6ew,O%",
"$%%%%%%%%O3eee3e%6ew;O%",
"$%%%%%%%=O1eew5e%6w6-o%",
"$%%%%%%%=O-ewe4e%6e5=O%",
"$%%%%%%%$@=6ee4e%663=O$",
"$%%%%%%%$O=6ee5w=633&O$",
"$%%%%%%%%O#5we56$333$O%",
"$%%%%%%%%+$1ee4e%111@O%",
"$$%%%$%%$$+;6e56#13,+@%",
"'$$$+$+$$+O*3636$11=O@'",
"'X$XOOOOO$X&-310#1,=o#'",
"'OOOOOOOO$O$*;,6#,-%O$'",
"'OOOOOOOO#O+-*-6#==@O$'",
"'oOOOOOOO@+O*=-4@==OO$'",
"'OOOOOOOO@@o%-*3+=&o@$'",
"''OOOOOOO+@OO=*-@=+o#''",
"''OOOOOOOO$OX*&$$$oO#''",
"''oOOOOOOO#+Xo*==OX+$''",
"'''OOOOOOO+$OXo@oXO#$''",
"'''OOOOOOOO$+OX XOO#'''",
"'''oOOOOOOO$@OOOOO+$'''",
"''''X XXXXXX%+O+O+$''''",
"''''        @%+O@$%''''",
"'''''        $=&&&'''''",
"''''''       X@&%''''''"
};
