/* XPM */
static char *result[] = {
/* columns rows colors chars-per-pixel */
"50 50 107 2 ",
"   c #0A0707",
".  c #0E0A0A",
"X  c #130D0D",
"o  c #1F0D0D",
"O  c #240D0D",
"+  c #2A0C0C",
"@  c #350B0B",
"#  c #3F0A0A",
"$  c #211313",
"%  c #291515",
"&  c #2F1919",
"*  c #331D1D",
"=  c #3C1F1F",
"-  c #3C2121",
";  c #4D0505",
":  c #430A0A",
">  c #4E0808",
",  c #550707",
"<  c #550808",
"1  c #580808",
"2  c #481F1F",
"3  c #581212",
"4  c #551818",
"5  c #5C1919",
"6  c #620606",
"7  c #6B0606",
"8  c #630808",
"9  c #6D0808",
"0  c #740505",
"q  c #7B0404",
"w  c #482626",
"e  c #4D2929",
"r  c #5A2525",
"t  c #502A2A",
"y  c #5A2E2E",
"u  c #5D3232",
"i  c #712121",
"p  c #653535",
"a  c #743B3B",
"s  c #7E3B3B",
"d  c #830303",
"f  c #8A0404",
"g  c #860A0A",
"h  c #8B0C0C",
"j  c #940505",
"k  c #9C0303",
"l  c #951616",
"z  c #A30202",
"x  c #AE0101",
"c  c #B50101",
"v  c #B90101",
"b  c #B40D0D",
"n  c #BE0C0C",
"m  c #AA1111",
"M  c #B31313",
"N  c #BF1515",
"B  c #912323",
"V  c #9D2323",
"C  c #952F2F",
"Z  c #993D3D",
"A  c #A42323",
"S  c #AF2121",
"D  c #BB2121",
"F  c #BB3E3E",
"G  c #C50505",
"H  c #C40B0B",
"J  c #C90D0D",
"K  c #C41414",
"L  c #CF1717",
"P  c #C31A1A",
"I  c #CB1B1B",
"U  c #D01111",
"Y  c #D51D1D",
"T  c #C62222",
"R  c #CB2424",
"E  c #CE2C2C",
"W  c #D42323",
"Q  c #D52B2B",
"!  c #C13232",
"~  c #D63434",
"^  c #D73B3B",
"/  c #DD3F3F",
"(  c #8A4646",
")  c #8B4949",
"_  c #9C4444",
"`  c #924A4A",
"'  c #9D5252",
"]  c #A94F4F",
"[  c #BC4949",
"{  c #A55454",
"}  c #A95757",
"|  c #B35353",
" . c #BE5E5E",
".. c #D34545",
"X. c #DC4141",
"o. c #D54B4B",
"O. c #C65050",
"+. c #CD5454",
"@. c #CF5F5F",
"#. c #DD5555",
"$. c #DF5858",
"%. c #E15A5A",
"&. c #CD6262",
"*. c #D26363",
"=. c #E16060",
"-. c #E46969",
";. c None",
/* pixels */
";.;.;.;.;.;.;.;.;.;.;.;.;.;.;.;.;.;.;.;.;.;.. . . . . . ;.;.;.;.;.;.;.;.;.;.;.;.;.;.;.;.;.;.;.;.;.;.",
";.;.;.;.;.;.;.;.;.;.;.;.;.;.;.;.;.;.;.;.;.;.$ $ $ $ $ $ ;.;.;.;.;.;.;.;.;.;.;.;.;.;.;.;.;.;.;.;.;.;.",
";.;.;.;.;.;.;.;.;.;.;.;.;.;.;.;.;.;.;.;.;.- w e e t e e - ;.;.;.;.;.;.;.;.;.;.;.;.;.;.;.;.;.;.;.;.;.",
";.;.;.;.;.;.;.;.;.;.;.;.;.;.;.;.;.;.;.;.% e a ) ` ` ( a t % ;.;.;.;.;.;.;.;.;.;.;.;.;.;.;.;.;.;.;.;.",
";.;.;.;.;.;.;.;.;.;.;.;.;.;.;.;.;.;.;.X % y `  .*.*. .` y % X ;.;.;.;.;.;.;.;.;.;.;.;.;.;.;.;.;.;.;.",
";.;.;.;.;.;.;.;.;.;.;.;.;.;.;.;.;.;.;.X % y { *.-.%.O.Z r % X ;.;.;.;.;.;.;.;.;.;.;.;.;.;.;.;.;.;.;.",
";.;.;.;.;.;.;.;.;.;.;.;.;.;.;.;.;.;.;.X % p ' *.*.o.F l 4 % X ;.;.;.;.;.;.;.;.;.;.;.;.;.;.;.;.;.;.;.",
";.;.;.;.;.;.;.;.;.;.;.;.;.;.;.;.;.;.;.X % u ' &.#.Q M g < O X ;.;.;.;.;.;.;.;.;.;.;.;.;.;.;.;.;.;.;.",
";.;.;.;.;.;.;.;.;.;.;.;.;.;.;.;.;.;.;.. % u ' @.o.T x d ; O X ;.;.;.;.;.;.;.;.;.;.;.;.;.;.;.;.;.;.;.",
";.;.;.;.;.;.;.;.;.;.;.;.;.;.;.;.;.;.;.. $ t ' @.o.T x q ; o . ;.;.;.;.;.;.;.;.;.;.;.;.;.;.;.;.;.;.;.",
";.;.;.;.;.;.;.;.;.;.;.;.;.;.;.;.;.;.;.X & u ' @.o.T b d ; O X ;.;.;.;.;.;.;.;.;.;.;.;.;.;.;.;.;.;.;.",
";.;.;.;.;.;.;.;.;.;.;.;.;.;.;.;.;.;.% & w a { +.X.R b f 8 # @ $ ;.;.;.;.;.;.;.;.;.;.;.;.;.;.;.;.;.;.",
";.;.;.;.;.;.;.;.;.;.;.;.;.;.;.;.;.& e p Z ` [ ..^ Q P m h 9 1 : + ;.;.;.;.;.;.;.;.;.;.;.;.;.;.;.;.;.",
";.;.;.;.;.;.;.;.;.;.;.;.;.;.;.;.X & u ) | O...~ Q Q R P b j q > + X ;.;.;.;.;.;.;.;.;.;.;.;.;.;.;.;.",
";.;.;.;.;.;.;.;.;.;.;.;.;.;.;.;.X & p { *.%.X.Q Q W R L H c f < + X ;.;.;.;.;.;.;.;.;.;.;.;.;.;.;.;.",
";.;.;.;.;.;.;.;.;.;.;.;.;.;.;.;.X * p } *.%.X.Q W I I K H c f < % X ;.;.;.;.;.;.;.;.;.;.;.;.;.;.;.;.",
";.;.;.;.;.;.;.;.;.;.;.;.;.;.;.;.X & p { *.%.X.Q I K n v v c f < + X ;.;.;.;.;.;.;.;.;.;.;.;.;.;.;.;.",
";.;.;.;.;.;.;.;.;.;.;.;.;.;.;.;.X & p { *.$.X.Q I H c c v c f < + X ;.;.;.;.;.;.;.;.;.;.;.;.;.;.;.;.",
";.;.;.;.;.;.;.;.;.;.;.;.;.;.;.;.X & p { *.$.X.Q I n c c c x f < + X ;.;.;.;.;.;.;.;.;.;.;.;.;.;.;.;.",
";.;.;.;.;.;.;.;.;.;.;.;.;.;.;.;.X & p { *.#.X.Q I n c c c x f < + X ;.;.;.;.;.;.;.;.;.;.;.;.;.;.;.;.",
";.;.;.;.;.;.;.;.;.;.;.;.;.;.;.;.X & p { *.%.X.Q I n c c v x f , + X ;.;.;.;.;.;.;.;.;.;.;.;.;.;.;.;.",
";.;.;.;.;.;.;.;.;.;.;.;.;.;.;.;.X & p { *.#.X.Q I H c c v x f < + X ;.;.;.;.;.;.;.;.;.;.;.;.;.;.;.;.",
";.;.;.;.;.;.;.;.;.;.;.;.;.;.;.;.X * p { *.%.X.Q I n c c c x f < + X ;.;.;.;.;.;.;.;.;.;.;.;.;.;.;.;.",
";.;.;.;.;.;.;.;.;.;.;.;.;.;.;.;.X @ p { *.#./ Q I N c c v c f , @ X ;.;.;.;.;.;.;.;.;.;.;.;.;.;.;.;.",
";.;.;.;.;.;.;.;.;.;.;.;.;.;.;.;.X & p { *.$.X.Q I n c c v c f < + X ;.;.;.;.;.;.;.;.;.;.;.;.;.;.;.;.",
";.;.;.;.;.;.;.;.;.;.;.;.;.;.;.;.X & p { *.$.X.Q L n c c v x f < + X ;.;.;.;.;.;.;.;.;.;.;.;.;.;.;.;.",
";.;.;.;.;.;.;.;.;.;.;.;.;.;.;.;.X & p { *.$.X.Q I n c c v x f < + X ;.;.;.;.;.;.;.;.;.;.;.;.;.;.;.;.",
";.;.;.;.;.;.;.;.;.;.;.;.;.;.;.;.X & p { *.$.X.Q I n c c c x f < % X ;.;.;.;.;.;.;.;.;.;.;.;.;.;.;.;.",
";.;.;.;.;.;.;.;.;.;.;.;.;.;.;.;.X & p { *.$.X.Q I n c c v x f , + X ;.;.;.;.;.;.;.;.;.;.;.;.;.;.;.;.",
";.;.;.;.;.;.;.;.;.;.;.;.;.;.;.;.X & p { *.$.X.Q I H c c v x f < + X ;.;.;.;.;.;.;.;.;.;.;.;.;.;.;.;.",
";.;.;.;.;.;.;.;.;.;.;.;.;.;.;.;.X & p { *.$.X.Q I n c c c x f < + X ;.;.;.;.;.;.;.;.;.;.;.;.;.;.;.;.",
";.;.;.;.;.;.;.;.;.;.;.;.;.;.;.;.X & p { *.$.X.Q L N c c v c f , + X ;.;.;.;.;.;.;.;.;.;.;.;.;.;.;.;.",
";.;.;.;.;.;.;.;.;.;.;.;.;.;.;.;.X & p { *.$./ Q L n c c v x f < + X ;.;.;.;.;.;.;.;.;.;.;.;.;.;.;.;.",
";.;.;.;.;.;.;.;.;.;.;.;.;.;.;.;.X & p { *.#.^ R K n c c c c f , + X ;.;.;.;.;.;.;.;.;.;.;.;.;.;.;.;.",
";.;.;.;.;.;.;.;.;.;.;.;.;.;.;.;.X * p } *.#.E K n v c c v c f 1 + X ;.;.;.;.;.;.;.;.;.;.;.;.;.;.;.;.",
";.;.;.;.;.;.;.;.;.;.;.;.;.;.;.;.X & p } @.o.T b c c c c c c f < + X ;.;.;.;.;.;.;.;.;.;.;.;.;.;.;.;.",
";.;.;.;.;.;.;.;.;.;.;.;.;.;.;.;.X & u ` | F D b v c c x z j q > + X ;.;.;.;.;.;.;.;.;.;.;.;.;.;.;.;.",
";.;.;.;.;.;.;.;.;.;.;.;.;.;.;.;.;.& e p s C S N H v c k d 7 1 : + ;.;.;.;.;.;.;.;.;.;.;.;.;.;.;.;.;.",
";.;.;.;.;.;.;.;.;.;.;.;.;.;.;.;.;.;.% * 2 i A T Y H x f 6 # + + ;.;.;.;.;.;.;.;.;.;.;.;.;.;.;.;.;.;.",
";.;.;.;.;.;.;.;.;.;.;.;.;.;.;.;.;.;.;.X + 5 A R Y J x d ; O X ;.;.;.;.;.;.;.;.;.;.;.;.;.;.;.;.;.;.;.",
";.;.;.;.;.;.;.;.;.;.;.;.;.;.;.;.;.;.;.. O 4 V E Y L x q > $ . ;.;.;.;.;.;.;.;.;.;.;.;.;.;.;.;.;.;.;.",
";.;.;.;.;.;.;.;.;.;.;.;.;.;.;.;.;.;.;.X % 5 V E Y K x d > $ X ;.;.;.;.;.;.;.;.;.;.;.;.;.;.;.;.;.;.;.",
";.;.;.;.;.;.;.;.;.;.;.;.;.;.;.;.;.;.;.X + 5 l R Y J x d > O X ;.;.;.;.;.;.;.;.;.;.;.;.;.;.;.;.;.;.;.",
";.;.;.;.;.;.;.;.;.;.;.;.;.;.;.;.;.;.;.X $ 3 l I U G c d < O X ;.;.;.;.;.;.;.;.;.;.;.;.;.;.;.;.;.;.;.",
";.;.;.;.;.;.;.;.;.;.;.;.;.;.;.;.;.;.;.X $ < h b G G x d > O X ;.;.;.;.;.;.;.;.;.;.;.;.;.;.;.;.;.;.;.",
";.;.;.;.;.;.;.;.;.;.;.;.;.;.;.;.;.;.;.X O > d k c x z q < + X ;.;.;.;.;.;.;.;.;.;.;.;.;.;.;.;.;.;.;.",
";.;.;.;.;.;.;.;.;.;.;.;.;.;.;.;.;.;.;.;.O : 6 0 q q 0 8 : $ ;.;.;.;.;.;.;.;.;.;.;.;.;.;.;.;.;.;.;.;.",
";.;.;.;.;.;.;.;.;.;.;.;.;.;.;.;.;.;.;.;.;.@ # : : : : # @ ;.;.;.;.;.;.;.;.;.;.;.;.;.;.;.;.;.;.;.;.;.",
";.;.;.;.;.;.;.;.;.;.;.;.;.;.;.;.;.;.;.;.;.;.O O $ o o $ ;.;.;.;.;.;.;.;.;.;.;.;.;.;.;.;.;.;.;.;.;.;.",
";.;.;.;.;.;.;.;.;.;.;.;.;.;.;.;.;.;.;.;.;.;.. . X X . X ;.;.;.;.;.;.;.;.;.;.;.;.;.;.;.;.;.;.;.;.;.;."
};
