/* XPM */
static char *result[] = {
/* columns rows colors chars-per-pixel */
"50 50 110 2 ",
"   c #3F5C62",
".  c #415E65",
"X  c #426067",
"o  c #45646B",
"O  c #48686F",
"+  c #476770",
"@  c #486770",
"#  c #4A6B74",
"$  c #4D6F78",
"%  c #4F717A",
"&  c #51747D",
"*  c #527681",
"=  c #557A85",
"-  c #5A7A83",
";  c #577E88",
":  c #587F89",
">  c #5B828D",
",  c #5E8692",
"<  c #5F8894",
"1  c #638591",
"2  c #618A96",
"3  c #698A96",
"4  c #638D9A",
"5  c #6A8D9A",
"6  c #65919E",
"7  c #6E919E",
"8  c #70929F",
"9  c #6793A1",
"0  c #6995A4",
"q  c #6B98A7",
"w  c #6E9CAC",
"e  c #7196A4",
"r  c #7398A7",
"t  c #7B9CA6",
"y  c #739DAC",
"u  c #789EAE",
"i  c #70A0AF",
"p  c #78A0AF",
"a  c #71A1B1",
"s  c #7CA4B4",
"d  c #76A7B8",
"f  c #7DA7B8",
"g  c #77A9BA",
"h  c #7AACBD",
"j  c #7CAFC0",
"k  c #7DB2C4",
"l  c #86A0A7",
"z  c #84A9B6",
"x  c #8AAAB5",
"c  c #83ACBE",
"v  c #8EAFBA",
"b  c #96ACB2",
"n  c #93B0B9",
"m  c #83AEC0",
"M  c #84B3C5",
"N  c #8BB3C6",
"B  c #83B6C9",
"V  c #8AB6C9",
"C  c #86B9CC",
"Z  c #8BBACD",
"A  c #98B6C3",
"S  c #92BBCD",
"D  c #99BBCE",
"F  c #8EBED2",
"G  c #93BED2",
"H  c #ABBCC0",
"J  c #93C1D5",
"K  c #9BC4D4",
"L  c #97C4D9",
"P  c #9AC6DB",
"I  c #9DC8DD",
"U  c #A5C9D5",
"Y  c #ADCBD7",
"T  c #A2C9DC",
"R  c #ABCDD9",
"E  c #B0D1DC",
"W  c #9FCAE0",
"Q  c #A3CDE3",
"!  c #A7D0E7",
"~  c #ACD1E4",
"^  c #ACD3EB",
"/  c #B4D5E3",
"(  c #BBD8E5",
")  c #B1D5EC",
"_  c #B8D9EC",
"`  c #B2D7F0",
"'  c #B6DAF3",
"]  c #BCDDF4",
"[  c #C6D2D7",
"{  c #C0D7E4",
"}  c #C4DCE5",
"|  c #C8DFE6",
" . c #C4DEEC",
".. c #C3DEF1",
"X. c #D2E3EC",
"o. c #DAE5E9",
"O. c #CCE5F4",
"+. c #D3E8F5",
"@. c #DDECF2",
"#. c #D3E9F8",
"$. c #DDEDF9",
"%. c #E1EDF6",
"&. c #E0EFF9",
"*. c #E5F0F5",
"=. c #E5F2FB",
"-. c #EBF5FB",
";. c #F1F7FB",
":. c #F3F9FC",
">. c #FEFFFF",
",. c None",
/* pixels */
",.,.,.,.,.,.,.,.,.,.,.,.,.,.,.,.,.z m M M V M h w q 9 4 4 4 4 4 ,.,.,.,.,.,.,.,.,.,.,.,.,.,.,.,.,.,.",
",.,.,.,.,.,.,.,.,.,.,.,.,.,.,.M C Z F F F F F F B k k h a q q w i w q ,.,.,.,.,.,.,.,.,.,.,.,.,.,.,.",
",.,.,.,.,.,.,.,.,.,.,.,.f V Z F J I ~ ! Q Q W P J B k k k k h a d k j j d ,.,.,.,.,.,.,.,.,.,.,.,.,.",
",.,.,.,.,.,.,.,.,.,.,.M F F P ^ +.-.@.] ^ ^ ^ ^ ! W J F k k k k d a j j k j a ,.,.,.,.,.,.,.,.,.,.,.",
",.,.,.,.,.,.,.,.,.a V F J / $.:.*.( I J Z Z V Z F F C F F C k k j w w j B B B j ,.,.,.,.,.,.,.,.,.,.",
",.,.,.,.,.,.,.,.p V G I O.-.@./ Z f r 5 5 3 3 5 5 5 4 d k C k k j a w d W ` ` ` ^ D ,.,.,.,.,.,.,.,.",
",.,.,.,.,.,.,.u M G Q ) / T N r 3 3 5 t s s z s u 1 o o ; w k k j a a w z | =.&.=.&.[ ,.,.,.,.,.,.,.",
",.,.,.,.,.,.u m Z Q ! P Z p 3 3 s M P Q ! ^ ^ ^ ^ P h 4 # o , g j d a a u N ..O.O.O...D ,.,.,.,.,.,.",
",.,.,.,.,.0 c N Q ! J M 7 3 a Z Q O.&.] ] ' ^ ! I J B k h 4 + # 4 q i a a i m ` ' ' ' ^ ,.,.,.,.,.,.",
",.,.,.,.,.q c I Q J m 5 7 M T O.;.;.#.' ! Z f f j B k k k k a % X : 4 q i a w j P L P P Z ,.,.,.,.,.",
",.,.,.,.4 q V Q G c 3 e Z / =.:.$.] _ T B p t 8 q M k k k k k h = X : 4 0 i i 4 d k k k k a ,.,.,.,.",
",.,.,., q w K L M 5 e G  .*.#.] ^ P E K s S 6 & 0 M k k k k k k j = o > 4 0 i 6 9 j j j j j ,.,.,.,.",
",.,.,.6 q a F C e 5 Z Q ] ] ' ! J F ( A J c < % 6 k k k k k k k j i # + < 4 q q < q i w w w 9 ,.,.,.",
",.,., q q h M q 3 M W ' ' ` I J F F X.( C g < % 6 k B k k k k k j a 4 o * 4 < 0 < < q q q q 0 ,.,.,.",
",.,.6 q q j w # r P ` ' ` I J J T / ;.*.R S 7 & 6 k k k k k k k d a i =   : < 6 4 < 9 q q q q 6 ,.,.",
",.,.6 0 r h * # m ^ ' ` I J J P Y o.>.:.| U t - 6 k k k k k k k d a a 9 + # < 6 < < < q q q q 0 ,.,.",
",.: 4 4 y 0 . 2 W ' ` W F F F V z D o.} k g < % 4 k k k k k k j a a a w =   * < 4 < , 9 q q q q 2 ,.",
",.< < , w = @ j ` ` W B C F F z S 6 H E k h < % 4 k k k k k k g a a a a 4 + + , 4 < > 6 q q q q 6 ,.",
",.4 < , 6 + = P ` ^ B k k k p N u % b U k h < % 4 k k k k k g a a i i a w $ . = < , : 4 q q q q 0 ,.",
"; 4 : : : . 0 ^ ' F j k k d m f = & l K k h < % 6 k k k k j a a a a a a i : . $ > : , < q q q q q ,.",
": 4 = : * . j ' ! k k k d u f < * 6 x K k h < % 4 k k k j a a a a a i a a 4 o + * , > , 9 q q q q < ",
", 4 = ; # @ S ' L k k k a w 0 9 q h v U k g < % 6 k k g a a a a a a a a a 9 o + % : > , 9 q q q q 4 ",
", 2 * = + # V ^ Z k k k k k k k k j v R k g < % 4 k d a a a a a a i a a a q # o $ : , > < 9 6 6 4 , ",
"< 2 & * + $ N G j k k k k k k k k k z P k h , % < a a a a a a a a a a a a q # o # = > ; = : = = : * ",
", < & & o $ m N a d j j k k j j k j f J k g , $ < a a a a i a a a a a a w 9 $ o # = < : = = = = = * ",
"< < * $ o # s h w a a d d j j j h h s J k g , * < a a a a a a i a a a w 0 6 $ . # = : : = = = = = * ",
"< < * $ @ # e s i a a a a a a a a i p J k g , $ < a a a a i a a a a w 0 9 < $   # * : : = = = = = * ",
", < * $ @ @ 4 w a a a i a a a a i i a L k g , * < a a a a a a i a w 0 9 9 , + + # * : = = = = = = * ",
"; , * % @ @ 2 7 i a a a i a i a a i y J k d , $ , a a a a a i i q 0 9 9 9 : + + # * : = = = = = = & ",
"= , * % # . > 4 q a a a a a a a a i u P k d , $ , a a a i a w 0 9 9 9 9 6 : . + # = : = * = = = = & ",
"* > = # # . = 4 4 w i a a a a a a i u P k d , $ , a a a a q 9 9 9 9 9 9 < * . # # = < = = = = = * ,.",
",.> ; $ # o # 4 4 9 i a a i a a a a u J k a , * , a a q 9 9 9 9 9 9 9 4 : # . # $ : : = = = ; ; * ,.",
",.: > % # + o > 4 4 q w a a a a a i p L k a , & , w 0 6 9 9 9 9 9 9 6 > > X o # % > > * = = = = * ,.",
",.= > & # # . % , , 2 9 a a a a a i p J k i > & > 6 9 9 9 9 9 9 9 6 , > & . # # & > = * = = = = & ,.",
",.,.> ; # # o o ; > , , 4 q q w w q r J k i > & > 9 9 9 9 9 9 9 6 > > > o o # # = > % % % % % % ,.,.",
",.,.; > % # # o $ > > > > , 4 9 6 6 r J k w , % > 9 9 9 9 9 6 < > > > % . # # % > > # # # # # # ,.,.",
",.,.* > = # # o . = > > > > > , 2 6 e J h w > & > 9 9 6 6 , , > > > > . o # # = > % # # # # # ,.,.,.",
",.,.,.> > % # # X X > > > > > > > > 7 J h 0 , & > < , , > > > > > > o X # # % > ; # # # # # # ,.,.,.",
",.,.,.,.> - # # # . + > > > , > > > 6 C h 9 , % * > > > > > , > > # . # # # = > % # # + # # ,.,.,.,.",
",.,.,.,.; > % # # # . + > , > > > > 7 M i 6 ; % ; > > > > > > > O . + # # % > = # # # # # # ,.,.,.,.",
",.,.,.,.,.; > # # # # X o = > > > > , i 6 < % % > > > > > > = +   + # # # ; ; # # # # # # ,.,.,.,.,.",
",.,.,.,.,.,.> = # # # # X X # > > > = ; ; * * * * > > > > % X X # $ # $ * > % # # # # # ,.,.,.,.,.,.",
",.,.,.,.,.,.- > * # # # # o X o % = > > > > > > > > = $ X X + # # # $ % > * # # # # + + ,.,.,.,.,.,.",
",.,.,.,.,.,.,.= > = # # # # + o .   o # % % % % # o X X o O # # # # % : * # # # # # + ,.,.,.,.,.,.,.",
",.,.,.,.,.,.,.,.* > = $ # # # % # # o   . X X X X o o # # # # # $ * > % # # # # # o ,.,.,.,.,.,.,.,.",
",.,.,.,.,.,.,.,.,.* > : & # # # # # # # # # # # # # # # # # # % ; ; % # # # # # ,.,.,.,.,.,.,.,.,.,.",
",.,.,.,.,.,.,.,.,.,.,.; > = % % # # # # # # # # # # # # # $ & > * # o o o o o ,.,.,.,.,.,.,.,.,.,.,.",
",.,.,.,.,.,.,.,.,.,.,.,.,.; > > - % % $ # # # # $ % % * ; > ; # X   .   . ,.,.,.,.,.,.,.,.,.,.,.,.,.",
",.,.,.,.,.,.,.,.,.,.,.,.,.,.,.; > > ; ; ; = = ; > > > > % O X       . ,.,.,.,.,.,.,.,.,.,.,.,.,.,.,.",
",.,.,.,.,.,.,.,.,.,.,.,.,.,.,.,.,.,.- ; ; > ; ; * % + X .     . ,.,.,.,.,.,.,.,.,.,.,.,.,.,.,.,.,.,."
};
