/* XPM */
static char *result[] = {
/* columns rows colors chars-per-pixel */
"10 50 89 1 ",
"  c #405D63",
". c #446269",
"X c #44636A",
"o c #45636B",
"O c #45646B",
"+ c #45646C",
"@ c #46656D",
"# c #46666D",
"$ c #47676F",
"% c #476770",
"& c #486870",
"* c #486871",
"= c #486971",
"- c #4A6B73",
"; c #4A6B74",
": c #4D6F78",
"> c #4D6F79",
", c #50737D",
"< c #527680",
"1 c #527681",
"2 c #537782",
"3 c #557A85",
"4 c #567B86",
"5 c #567B87",
"6 c #608996",
"7 c #618A97",
"8 c #628B98",
"9 c #628C99",
"0 c #638D9A",
"q c #638D9B",
"w c #638E9B",
"e c #648E9B",
"r c #648E9C",
"t c #648F9C",
"y c #648F9D",
"u c #658F9D",
"i c #65909D",
"p c #65909E",
"a c #66919E",
"s c #66919F",
"d c #6B98A7",
"f c #6C99A8",
"g c #6C9AA9",
"h c #6E9CAC",
"j c #6E9DAC",
"k c #6E9DAD",
"l c #6F9EAD",
"z c #709FAF",
"x c #70A0AF",
"c c #78ACBD",
"v c #79ACBD",
"b c #79ADBF",
"n c #7AAEBF",
"m c #7BB0C1",
"M c #7CB0C2",
"N c #7CB1C3",
"B c #7CB2C3",
"V c #7DB2C4",
"C c #7FB2C4",
"Z c #81AABB",
"A c #82ABBC",
"S c #80B2C4",
"D c #82B5C8",
"F c #82B6C8",
"G c #82B6C9",
"H c #96B8CC",
"J c #97B9CE",
"K c #A2BDCC",
"L c #A4BECD",
"P c #97C4D9",
"I c #98C5DA",
"U c #B1C3CB",
"Y c #B3C5CD",
"T c #A9D0E7",
"R c #ABD1E8",
"E c #ADD4EB",
"W c #ADD4EC",
"Q c #AED4EC",
"! c #B4D8F1",
"~ c #B4D8F2",
"^ c #B5DAF3",
"/ c #B6DAF3",
"( c #C9E2F4",
") c #CAE3F4",
"_ c #CCE5F7",
"` c #DFEDF7",
"' c #E0EEF7",
"] c #E4F1FB",
"[ c None",
/* pixels */
"[8pppppp9[",
"[gxzzzzxg[",
"[cVNNNNVv[",
"[bVVVVVVn[",
"[CFDDFFGS[",
"[TWEEQQQR[",
"U`]]]]]]'Y",
"K(______)L",
"H!/^^^^^~J",
"ZPIIIIIIPA",
"kNBBBBBBNl",
"jmMMMMMMml",
"thhhhhhhhi",
"9dddddddd0",
"0ddddddddq",
"wdddddddde",
"rddddddddt",
"tddddddddy",
"tddddddddu",
"uddddddddi",
"uddddddddp",
"pfddddddfa",
"6ssssssss7",
"2544444452",
"<333333331",
"<333333331",
"<333333331",
"<333333331",
"<333333331",
"<33333333<",
"<33333333<",
"<33333333<",
"<33333333<",
"<33333333<",
":,,,,,,,,>",
"*;;;;;;;;=",
"*;;;;;;;;=",
"*;;;;;;;;*",
"&;;;;;;;;*",
"&;;;;;;;;&",
"&;;;;;;;;&",
"&;;;;;;;;&",
"$;;;;;;;;%",
"$;;;;;;;;$",
"[;;;;;;;;$",
"[-;;;;;;;[",
"[.XoO+@@#[",
"[        [",
"[        [",
"[        ["
};
