/* XPM */
static char *result[] = {
/* columns rows colors chars-per-pixel */
"45 50 108 2 ",
"   c #415E64",
".  c #426067",
"X  c #45646B",
"o  c #4A6B74",
"O  c #4D6F78",
"+  c #4F717B",
"@  c #51747E",
"#  c #537781",
"$  c #557A85",
"%  c #597D87",
"&  c #577E88",
"*  c #587F89",
"=  c #5B828D",
"-  c #5D8692",
";  c #5F8894",
":  c #61848E",
">  c #628793",
",  c #618A96",
"<  c #698A96",
"1  c #638D9A",
"2  c #6A8D99",
"3  c #65919E",
"4  c #6D909D",
"5  c #6793A1",
"6  c #6A95A4",
"7  c #6B98A7",
"8  c #6D9CAB",
"9  c #7195A3",
"0  c #7498A6",
"q  c #729EAD",
"w  c #789EAD",
"e  c #70A0AF",
"r  c #78A0AF",
"t  c #72A2B2",
"y  c #7BA4B5",
"u  c #75A7B8",
"i  c #77A9BA",
"p  c #7BACBD",
"a  c #7BAFC0",
"s  c #7DB2C4",
"d  c #80A6B7",
"f  c #81A7B8",
"g  c #82ACBD",
"h  c #8EB0BA",
"j  c #96B5BF",
"k  c #98B3BD",
"l  c #A1B6BD",
"z  c #84AFC1",
"x  c #85B3C5",
"c  c #89B3C4",
"v  c #84B6C9",
"b  c #8AB6CA",
"n  c #86B8CB",
"m  c #8BBACE",
"M  c #92B5C5",
"N  c #96B6C8",
"B  c #91BACD",
"V  c #9ABBC9",
"C  c #8DBDD2",
"Z  c #93BDD1",
"A  c #99BED4",
"S  c #A1BFCD",
"D  c #93C1D4",
"F  c #9BC2D5",
"G  c #97C4D9",
"H  c #9AC6DB",
"J  c #9EC9DF",
"K  c #A7C2CF",
"L  c #B5C7CC",
"P  c #A2C6D3",
"I  c #ACC9D3",
"U  c #A4CBDD",
"Y  c #ADCFDD",
"T  c #9FCAE0",
"R  c #A3CDE3",
"E  c #ABCFE7",
"W  c #A7D0E7",
"Q  c #AED2E4",
"!  c #ACD3EB",
"~  c #B4D5E4",
"^  c #B9D6E0",
"/  c #B2D6ED",
"(  c #BBDBEC",
")  c #B5DAF3",
"_  c #BADCF3",
"`  c #C7D3D8",
"'  c #C1DBE5",
"]  c #C6DEE8",
"[  c #C2DEF0",
"{  c #CFE4EC",
"}  c #D3E2E7",
"|  c #DCE7EB",
" . c #D5E8EF",
".. c #C4E1F4",
"X. c #CBE5F6",
"o. c #D7E7F1",
"O. c #D4E9F4",
"+. c #DBEBF3",
"@. c #D3E9F8",
"#. c #DEEEF9",
"$. c #E4EEF1",
"%. c #E2EFF8",
"&. c #E5F2FB",
"*. c #EBF5FB",
"=. c #F1F7F9",
"-. c #F4F9FD",
";. c #FEFEFF",
":. c None",
/* pixels */
":.:.:.:.:.:.:.:.:.:.:.:.:.:.:.; , 1 5 3 3 5 q y x x b p t 7 :.:.:.:.:.:.:.:.:.:.:.:.:.:.:.",
":.:.:.:.:.:.:.:.:.:.:.:.:.7 8 e t q 8 q z n C C C C C m s s p u :.:.:.:.:.:.:.:.:.:.:.:.:.",
":.:.:.:.:.:.:.:.:.:.:.u a s s s a p n C D G R Q R R H G m s s s s u :.:.:.:.:.:.:.:.:.:.:.",
":.:.:.:.:.:.:.:.:.7 a s s s s a a m C G ( #.&.../ ! ! W R G D s s s i 1 :.:.:.:.:.:.:.:.:.",
":.:.:.:.:.:.:.:.y x v n x v a a C Z E #.=. .Y D Z b b m C n D C v s s t 5 :.:.:.:.:.:.:.:.",
":.:.:.:.:.:.:.F ! / ! ! / R z m G ( *.+.Y c r 4 2 < < 2 4 1 e s v s s u e 5 :.:.:.:.:.:.:.",
":.:.:.:.:.:.` %.&.&.&.&.o.M v G ! ~ U c 9 < < 0 r y y y 4 O X & u s s u t e 5 :.:.:.:.:.:.",
":.:.:.:.:.N [ X.X.X.X.[ S z Z E T C y < 4 y Z R ! ! ! ! W n 3 o X 1 a u t t e ; :.:.:.:.:.",
":.:.:.:.:.Q ) ) ) ) ) A p b R R m 0 < y D / +.X.) ) ! R G m s i - . & 7 8 e t 8 :.:.:.:.:.",
":.:.:.:.p G G G G H Z q z H R m 0 < p U O.-.#...! G z y y s s s s 6 X + 1 7 e t 3 :.:.:.:.",
":.:.:.:.p s s s s s 8 7 c R Z r 2 c Q &.=.X./ ~ D x w 0 < i s s s s 7 X # ; 7 e 7 :.:.:.:.",
":.:.:.t s s p s a u 6 7 Z G g < p ~ #.@._ W G Y m y c = & i s s s s s 1 X = 1 7 8 ; :.:.:.",
":.:.:.7 8 8 8 8 8 5 7 q m n 4 r G ( _ ) R D D { f B i = $ u s s s s s u $ o ; 1 7 1 :.:.:.",
":.:.1 7 7 7 7 7 5 3 7 t x 6 2 C ! ) / R m D J | V m u $ $ u s s s s s u 7 X # 1 5 3 - :.:.",
":.:.5 7 7 7 7 7 3 6 6 i 8 O y R ) ) R D F U { ;.| F c : $ u s s s s s t 8 & X - 1 1 ; :.:.",
":., 7 7 7 7 7 7 , 6 6 i * + m / ) R Z G U ' $.;.$.^ V < % u s s s s i t t 5 X + , 1 , $ :.",
":.3 7 7 7 7 7 3 ; 3 6 8 X 3 W ) ! D C C D p K =.D s t = @ i g s s s u t e 8 # X * 1 1 & :.",
":.3 7 7 7 7 7 3 ; - 5 - X z ) ! m n C C x f N } b s u = @ i s s s a e e e u ; X # ; ; * :.",
":.7 7 7 7 7 7 3 , * 3 O $ T ) T s s s s y c < L x s u @ = i s s s u t e e t 5 X o - - * :.",
"; 7 7 7 7 7 7 , , & - X 1 W / n s s s t h 6 @ l m s u = @ i s s a t e t e t 8 # X * - * $ ",
"; 7 7 7 7 7 7 , ; $ &   w ) T s s s u w w = = k D s t $ $ u p p t t e t t t t * . # = = $ ",
"3 7 7 7 7 7 7 ; ; $ $ X z ) m a s s u 7 5 5 u N P s u $ $ u p u t e t e e e t - . o * * & ",
"; 3 3 3 3 3 1 ; - # # X z E v s s s s s s s s h I p t = = e u e t t t 8 t t t 3 . o $ - & ",
"# $ $ & $ $ $ ; * # O X z m a s s s s s s s s y F s e = @ 8 e e t t t t t e t 1 X X $ * * ",
"# $ $ $ $ $ $ * - O o o y z t i s s s s s s s t D p u $ @ 7 e t t e t t e t 8 ; X X @ = = ",
"# $ $ $ $ $ $ ; - O o X w g e e t i i p p p i q D s t % $ 7 t e e q t e e e 6 - X o + = & ",
"# $ $ $ $ $ $ * - O O X 5 y q t e t t t t t t 7 D s t $ $ 7 t t t t t t e 6 5 - X o + = $ ",
"# $ $ $ $ * * * ; O O X , q t t t e q t t t w 7 B s t = @ 7 t t e t t e 6 5 5 *   o + = * ",
"# $ $ $ $ $ $ * - O O X - 5 e t e e t t t e t 7 B v e % $ 7 e e t t 8 5 5 5 3 $ . o + = $ ",
"# $ $ $ $ $ $ $ - O O   & 1 8 t t t t e e t t 7 D s t $ $ 7 t t e 8 5 5 5 5 1 @ . o @ = $ ",
"# # $ $ $ $ $ $ * # O X # ; 5 e t t t e e t t 0 B v e % $ 7 t e 7 5 5 5 5 3 ; O X o @ = # ",
":.# $ $ $ $ $ # * # O X o 1 1 7 e e t t t e t 7 B s 8 = @ 7 8 5 5 5 5 5 5 1 = X X o # = :.",
":.$ $ $ $ $ $ $ * $ o o X * ; 3 8 e e e t t e 7 D x 8 = # 3 5 5 5 5 5 5 3 - $ . o o $ = :.",
":.$ $ $ $ $ $ $ & * o o . # ; ; 3 8 t t t e t 9 B s 8 $ # 1 5 5 5 5 5 3 - = O . o O = = :.",
":.O # # O O # O # = # o X X * = ; 1 7 8 8 8 8 6 B s 7 = # 1 5 5 5 3 3 ; = = X X o @ = @ :.",
":.:.o X o o o o o * $ o o . # - = = = 3 3 6 3 3 m p 7 $ @ 3 5 3 5 3 - = - O X o o = = :.:.",
":.:.o o o o O o o # * o o X X * = = = = > 3 3 3 b s 7 % # 1 3 3 ; - = = = . X O + = $ :.:.",
":.:.:.o o o X o o # = # o o   # = = = = = = = > b p 5 % @ = - = = = - = o . o o # = :.:.:.",
":.:.:.o o o o o o o & & # o X . @ = = = = = = = x i 3 % @ = = = = = = + . o o O = $ :.:.:.",
":.:.:.:.o o o o o o O & # o o X X $ = = = = = = p e 3 @ @ = = = = - @ X X o o @ = :.:.:.:.",
":.:.:.:.o o o o o o o $ * O o o X . @ = = = = = 8 3 - O # $ = = = @ . X o o O * $ :.:.:.:.",
":.:.:.:.:.X o o o o o o * $ o o o X X O = = = = $ $ # # # = = = O   X o O o # = :.:.:.:.:.",
":.:.:.:.:.:.o o o o o o # * # o o o X . X + = = = = = = = = + X . X o O o @ = :.:.:.:.:.:.",
":.:.:.:.:.:.o o o X o o o # * # o o o o X . . X O @ + + X .   X o O o o + * $ :.:.:.:.:.:.",
":.:.:.:.:.:.:.O o o o o o o # & + o o O o o X X . .   . . X o O o o o + * $ :.:.:.:.:.:.:.",
":.:.:.:.:.:.:.:.X o o o o o o # = @ O o o o o o o o o o o o o o o O @ * $ :.:.:.:.:.:.:.:.",
":.:.:.:.:.:.:.:.:.X X X X X X X O = $ + O o o o o o o o o o o O + $ * # :.:.:.:.:.:.:.:.:.",
":.:.:.:.:.:.:.:.:.:.:.          . X # = = @ + O o o o o + + @ $ = % :.:.:.:.:.:.:.:.:.:.:.",
":.:.:.:.:.:.:.:.:.:.:.:.:.            X # * = * & $ $ $ = = = $ :.:.:.:.:.:.:.:.:.:.:.:.:.",
":.:.:.:.:.:.:.:.:.:.:.:.:.:.:.            X O # $ & = & $ @ :.:.:.:.:.:.:.:.:.:.:.:.:.:.:."
};
