/* XPM */
static char *result[] = {
/* columns rows colors chars-per-pixel */
"50 50 198 2 ",
"   c #0A0404",
".  c #0D0B0B",
"X  c #070505",
"o  c #100F0F",
"O  c #1A0E0E",
"+  c #1E0101",
"@  c #1D1111",
"#  c #240303",
"$  c #210D0D",
"%  c #2B0C0C",
"&  c #340707",
"*  c #330B0B",
"=  c #390A0A",
"-  c #211313",
";  c #2D1919",
":  c #2A1212",
">  c #321212",
",  c #3B1212",
"<  c #321B1B",
"1  c #3B1D1D",
"2  c #3C2020",
"3  c #363636",
"4  c #3F3B3B",
"5  c #420101",
"6  c #430909",
"7  c #4B0B0B",
"8  c #5C0606",
"9  c #5C0B0B",
"0  c #570909",
"q  c #401313",
"w  c #541A1A",
"e  c #640303",
"r  c #680505",
"t  c #760404",
"y  c #780505",
"u  c #740909",
"i  c #6B1616",
"p  c #711B1B",
"a  c #462525",
"s  c #482727",
"d  c #452C2C",
"f  c #4E2929",
"g  c #542D2D",
"h  c #5A2D2D",
"j  c #542222",
"k  c #453C3C",
"l  c #473737",
"z  c #583939",
"x  c #693434",
"c  c #7F3333",
"v  c #743C3C",
"b  c #773939",
"n  c #742C2C",
"m  c #4A4343",
"M  c #5E4444",
"N  c #634B4B",
"B  c #7F4A4A",
"V  c #646666",
"C  c #860505",
"Z  c #9C0202",
"A  c #960C0C",
"S  c #9F0A0A",
"D  c #801818",
"F  c #9D1212",
"G  c #A40303",
"H  c #A90202",
"J  c #A30808",
"K  c #B60404",
"L  c #BB0404",
"P  c #BD0B0B",
"I  c #A41C1C",
"U  c #B61212",
"Y  c #BA1212",
"T  c #BE1C1C",
"R  c #8E2323",
"E  c #9E2222",
"W  c #833737",
"Q  c #AA2F2F",
"!  c #BB2424",
"~  c #AA3030",
"^  c #C20707",
"/  c #C10A0A",
"(  c #CB0E0E",
")  c #C21717",
"_  c #CB1515",
"`  c #CB1A1A",
"'  c #D11C1C",
"]  c #CD2A2A",
"[  c #C62626",
"{  c #D52525",
"}  c #D72A2A",
"|  c #D92C2C",
" . c #C33535",
".. c #C73D3D",
"X. c #D63333",
"o. c #D83434",
"O. c #D53B3B",
"+. c #DA3B3B",
"@. c #854545",
"#. c #8D4242",
"$. c #8D4A4A",
"%. c #874D4D",
"&. c #904B4B",
"*. c #9E4E4E",
"=. c #AC4747",
"-. c #B64D4D",
";. c #B04545",
":. c #A55252",
">. c #BE5555",
",. c #B65A5A",
"<. c #846161",
"1. c #926A6A",
"2. c #8A7474",
"3. c #B56A6A",
"4. c #CC4B4B",
"5. c #C84646",
"6. c #D64343",
"7. c #DB4545",
"8. c #D64C4C",
"9. c #DD4B4B",
"0. c #C15656",
"q. c #C05F5F",
"w. c #CE5555",
"e. c #D75353",
"r. c #DD5353",
"t. c #D75B5B",
"y. c #DB5E5E",
"u. c #E14B4B",
"i. c #E15D5D",
"p. c #C56161",
"a. c #CA6363",
"s. c #D36464",
"d. c #DC6161",
"f. c #D76A6A",
"g. c #DB6B6B",
"h. c #C57B7B",
"j. c #C67575",
"k. c #DC7474",
"l. c #DC7C7C",
"z. c #E16363",
"x. c #E46D6D",
"c. c #E57474",
"v. c #E67C7C",
"b. c #E87C7C",
"n. c #848181",
"m. c #8B8585",
"M. c #9A8888",
"N. c #A28D8D",
"B. c #A49D9D",
"V. c #B58A8A",
"C. c #BDBCBC",
"Z. c #CF8383",
"A. c #C69292",
"S. c #DE9393",
"D. c #DE9999",
"F. c #E68383",
"G. c #E88484",
"H. c #E28D8D",
"J. c #EA8B8B",
"K. c #E49595",
"L. c #EB9393",
"P. c #E49C9C",
"I. c #ED9D9D",
"U. c #F19696",
"Y. c #F09999",
"T. c #C9AAAA",
"R. c #D8BDBD",
"E. c #D6A3A3",
"W. c #E6A3A3",
"Q. c #EDA4A4",
"!. c #EEAAAA",
"~. c #E7ADAD",
"^. c #F1ADAD",
"/. c #F1A5A5",
"(. c #EDB3B3",
"). c #EFB9B9",
"_. c #E2B8B8",
"`. c #F1B4B4",
"'. c #F2BDBD",
"]. c #C2C0C0",
"[. c #D9C5C5",
"{. c #DCD7D7",
"}. c #E8C8C8",
"|. c #F4C4C4",
" X c #F4CCCC",
".X c #F8C7C7",
"XX c #EFD3D3",
"oX c #EADEDE",
"OX c #F4D3D3",
"+X c #F9DBDB",
"@X c #FBD6D6",
"#X c #E3E0E0",
"$X c #FAE4E4",
"%X c #F4ECEC",
"&X c #FAEBEB",
"*X c #FFFCFC",
"=X c #FAF3F3",
"-X c None",
/* pixels */
"-X-X-X-X-X-X-X-X-X-X-X-X-X-X-X-X-X-X-X. . . . . . . . . . . . -X-X-X-X-X-X-X-X-X-X-X-X-X-X-X-X-X-X-X",
"-X-X-X-X-X-X-X-X-X-X-X-X-X-X-X-X-X-X-X- - - - - - $ - - $ - - -X-X-X-X-X-X-X-X-X-X-X-X-X-X-X-X-X-X-X",
"-X-X-X-X-X-X-X-X-X-X-X-X-X-X-X-X-X-X1 s f f f g f f f f f s s 2 -X-X-X-X-X-X-X-X-X-X-X-X-X-X-X-X-X-X",
"-X-X-X-X-X-X-X-X-X-X-X-X-X-X. X . - g v $.&.$.#.$.$.$.$.&.$.v g ; -X-X-X-X-X-X-X-X-X-X-X-X-X-X-X-X-X",
"-X-X-X-X-X-X-X-X-X-X-X-X-XO O O O < x *.p.a.a.q.a.q.p.a.a.q.*.x < O -X-X-X-X-X-X-X-X-X-X-X-X-X-X-X-X",
"-X-X-X-X-X-X-X-X-X-X-X-X1 a a a a h W -.y.d.i.y.y.y.y.i.z.t.;.W j q = -X-X-X-X-X-X-X-X-X-X-X-X-X-X-X",
"-X-X-X-X-X-X-X-X-X-X-X; g B #.@.@.$.=.4.9.7.9.u.u.7.9.u.9.6...Q R p w : -X-X-X-X-X-X-X-X-X-X-X-X-X-X",
"-X-X-X-X-X-X-X-X-X-XO 1 x :.3.a.p.0.4...X.X.X.X.X.X.X.X.X.X.X.} ! E i > O -X-X-X-X-X-X-X-X-X-X-X-X-X",
"-X-X-X-X-X-X-X-X-X; 2 h #.>.y.d.d.t.9.o.} } { } { | } } } } | | } ! D 7 & # -X-X-X-X-X-X-X-X-X-X-X-X",
"-X-X-X-X-X-X-X-X< g v #.=.4.9.9.u.9.+.X.} { } } | { } } { } | | } [ F t 8 5 # -X-X-X-X-X-X-X-X-X-X-X",
"-X-X-X-X-X-X-X@ a v :.0.6.O.o.o.o.o.X.| } } } } } | } | | } | | } [ Y S C 8 * O -X-X-X-X-X-X-X-X-X-X",
"-X-X-X-X-X-X; 1 h #.0.y.u.o.| | } } } } | | o.o.X.| | } } } } } } } ] ] Q W z l 3 -X-X-X-X-X-X-X-X-X",
"-X-X-X-X-X2 h v W =.4.9.+.| } { } } { } } o.6.6.6.+.| | } } } { { o.r.k.Z.V.B.V V k -X-X-X-X-X-X-X-X",
"-X-X-X-X@ a v :.0.4.O.o.o.| } } } } { } X.+.t.t.e.+.| } } | { { } 9.G.'.XXoXoXC.n.k @ -X-X-X-X-X-X-X",
"-X-X-X. @ a @.q.d.9.o.} } } } } } | | X.o.8.t.y.8.O.{ { { } | o.9.c.!.$X*X*X$XR.2.k @   -X-X-X-X-X-X",
"-X-X-X. @ a @.p.z.u.o.} { | } } } | o.6.8.e.8.8...] ' _ ' } +.i.F.^.+X*X*X@XW.h.B a @ X -X-X-X-X-X-X",
"-X-X-X. @ a @.p.d.9.o.} } } } } } X.6.e.t.e.6.O.] ) P / _ } u.J.'.$X*X*X$XW.t.~ p , @ . -X-X-X-X-X-X",
"-X-X-X. @ a @.q.d.u.o.} } } } } } O.9.e.y.e.+.} ` P K P [ 6.c.`.&X*X*X&X|.F.5.I i = @ . -X-X-X-X-X-X",
"-X-X-X. @ s @.q.y.9.o.| { } | O.6.6.8.e.8.6.X.} _ L K T 4.c.^.+X*X*X+X`.L.G.k.,.v 1 @ . -X-X-X-X-X-X",
"-X-X-X. @ a @.q.d.9.o.} { } X.6.e.t.e.6.O.X.X.{ _ K K  .l.'.$X*X*X$XQ.c.x.J.~.T.2.l O   -X-X-X-X-X-X",
"-X-X-X. @ s @.q.y.9.o.} { } o.8.t.t.e.6.X.} } } ` T ! w.W.$X*X*X&X XJ.i.z.L.|.[.m.l O   -X-X-X-X-X-X",
"-X-X-X. @ s @.q.d.9.o.} { } X.+.8.e.e.6.O.o.} } X.6.s.D.XX*X*X+X`.I.J.b.F.L.W.A.<.d O . -X-X-X-X-X-X",
"-X-X-X. $ a @.0.d.9.o.} } } | o.+.6.8.e.t.6.} X.e.F.~.OX=X*X+XQ.c.c.I.`.^.H.s.=.n 1 O . -X-X-X-X-X-X",
"-X-X-X. - s @.3.d.8.o.} } } | } } o.6.y.y.e.6.9.c.(.%X*X*X&X|.G.y.z.I. X|.v. .S r = O o -X-X-X-X-X-X",
"-X-X-X. @ a @.q.d.9.o.} } } } { { X.6.t.f.f.g.b.!.+X*X*X+X'.I.G.b.b.Q.`.I.y.T Z e & O o -X-X-X-X-X-X",
"-X-X-X. @ s @.q.d.9.o.} } } } { } X.O.t.f.F.I.'.+X*X*X$X!.b.v.L.^.^.I.b.z. .P Z e = O o -X-X-X-X-X-X",
"-X-X-X. @ a @.q.d.8.o.} } } } } } X.7.y.l.W.OX&X*X*X&X'.v.i.x.Q.OX.XJ.i.} _ P Z r = O o -X-X-X-X-X-X",
"-X-X-X. @ a @.q.d.9.o.} } } } { { o.e.c.P.}.%X*X=XOX~.K.v.x.v.Q.'./.c.+.' ( L Z r = @ . -X-X-X-X-X-X",
"-X-X-X. - s @.q.y.9.o.} } } } { { +.d.I. X&X*X*XXXH.f.f.H.!.!.I.J.x.u.X.` ( K Z e = O . -X-X-X-X-X-X",
"-X-X-X. O s @.q.d.9.o.} } } } } } 7.F.|.&X*X*X&X~.a. .w.P. X'.J.u.o.o.| { _ P Z r = @ o -X-X-X-X-X-X",
"-X-X-X. @ s @.q.d.9.o.{ { { | +.9.c.!.+X*X=X$X'.K.s.4.a.P.'.!.x.+.{ { } { _ P Z r = O . -X-X-X-X-X-X",
"-X-X-X. O a @.q.d.u.o.| ' { o.i.J.(.+X*X*X+XQ.F.v.H.K.K.K.G.c.9.o.{ { { [ _ P Z r = O o -X-X-X-X-X-X",
"-X-X-X. @ s @.q.y.9.o.} { } 9.F.'.$X*X*X&X`.b.r.c.!. X(.F.u.+.X.| } } | { _ K Z r = O o -X-X-X-X-X-X",
"-X-X-X. @ s @.q.y.u.o.} +.9.c.^.$X*X*X$X.XI.c.z.F.`..X^.x.+.{ { } } | } { _ P Z r = O o -X-X-X-X-X-X",
"-X-X-X. @ s @.p.i.u.| +.y.G.^.+X*X*X+X!.J.J.L.I.Q.I.J.c.u.| { { } | | | { _ ^ G r = O o -X-X-X-X-X-X",
"-X-X-X. @ s @.q.y.7.o.9.F.'.$X*X*X&X(.c.y.b.`.OX`.G.r.+.X.} } } } | | | { _ L Z r = O o -X-X-X-X-X-X",
"-X-X-X-X@ a v :.>.e.u.c.^.$X*X*X$X.XI.x.z.G.(..XQ.z.o.{ { } } | } } { { ` U J C 8 = O -X-X-X-X-X-X-X",
"-X-X-X-X-X1 g v $.3.K.`.@X*X=X@X^.L.J.J.L.I.I.L.c.9.} { { } | | | } { ` U A u 0 6 * -X-X-X-X-X-X-X-X",
"-X-X-X-X-X-X: 2 N M.R.&X*X*X&X^.c.i.G.`. X^.b.i.7.o.| } | } | } } { ` P J u 7 * % -X-X-X-X-X-X-X-X-X",
"-X-X-X-X-X-X-X@ m 2.].#X%X&XOXI.x.z.J.'. XQ.z.o.{ { } } } } } } { ` U G C 0 * O -X-X-X-X-X-X-X-X-X-X",
"-X-X-X-X-X-X-X-X3 V m.B.T.R.(.^.U.U.U./.I.c.u.| { } | | | } { { ` U A u 8 6 % -X-X-X-X-X-X-X-X-X-X-X",
"-X-X-X-X-X-X-X-X-X3 m N 1.Z.L.`. X X/.b.i.7.o.} { } | | | } { ` P J u 7 = % -X-X-X-X-X-X-X-X-X-X-X-X",
"-X-X-X-X-X-X-X-X-X-X@ 2 x :.j.E.[.}.P.i.} { { { { { { { { { ` U J C 8 % O -X-X-X-X-X-X-X-X-X-X-X-X-X",
"-X-X-X-X-X-X-X-X-X-X-X: j b %.1.M.N.3.~ ` ( _ _ ` ` ` ` ` ` U A u e 6 $ -X-X-X-X-X-X-X-X-X-X-X-X-X-X",
"-X-X-X-X-X-X-X-X-X-X-X-X1 a s l m M c I P ^ / P / P P / / P S u 7 = % -X-X-X-X-X-X-X-X-X-X-X-X-X-X-X",
"-X-X-X-X-X-X-X-X-X-X-X-X-X@ @ @ @ > 9 C H H H H H H H H H G C 0 * O -X-X-X-X-X-X-X-X-X-X-X-X-X-X-X-X",
"-X-X-X-X-X-X-X-X-X-X-X-X-X-X. X   + 5 e t t y t t t t t y t r 6 $ -X-X-X-X-X-X-X-X-X-X-X-X-X-X-X-X-X",
"-X-X-X-X-X-X-X-X-X-X-X-X-X-X-X-X-X-X& = 6 6 6 6 6 6 6 6 6 6 = * -X-X-X-X-X-X-X-X-X-X-X-X-X-X-X-X-X-X",
"-X-X-X-X-X-X-X-X-X-X-X-X-X-X-X-X-X-X-XO $ $ $ $ $ $ O $ $ $ $ -X-X-X-X-X-X-X-X-X-X-X-X-X-X-X-X-X-X-X",
"-X-X-X-X-X-X-X-X-X-X-X-X-X-X-X-X-X-X-Xo o o o o o o o o o o o -X-X-X-X-X-X-X-X-X-X-X-X-X-X-X-X-X-X-X"
};
