/* XPM */
static char *_5ac11e7af744352d0e781ecd03c33d3s01s5uXn1lQWBNL4[] = {
/* columns rows colors chars-per-pixel */
"50 50 209 2 ",
"   c None",
".  c #100602",
"X  c #150A04",
"o  c #1C0D05",
"O  c #1C1106",
"+  c #1E180B",
"@  c #0E0603",
"#  c #220E04",
"$  c #2D0C00",
"%  c #241106",
"&  c #2A1406",
"*  c #261309",
"=  c #2B1508",
"-  c #28190A",
";  c #341A09",
":  c #3C1D0A",
">  c #321606",
",  c #2D1E15",
"<  c #25210F",
"1  c #3C230C",
"2  c #34230E",
"3  c #2B2B13",
"4  c #272515",
"5  c #332511",
"6  c #3D2E14",
"7  c #372A17",
"8  c #2F3117",
"9  c #313216",
"0  c #343519",
"q  c #3B3C1C",
"w  c #383317",
"e  c #36380C",
"r  c #2F2A29",
"t  c #3A3629",
"y  c #393431",
"u  c #392B24",
"i  c #461C07",
"p  c #5C1E03",
"a  c #44220C",
"s  c #4A230C",
"d  c #4B290B",
"f  c #4C2E07",
"g  c #532B0C",
"h  c #5A2D0E",
"j  c #51240B",
"k  c #5C340C",
"l  c #5F390D",
"z  c #55330C",
"x  c #4A2B15",
"c  c #493817",
"v  c #543B12",
"b  c #583712",
"n  c #4A3A0C",
"m  c #6D2605",
"M  c #732906",
"N  c #63330E",
"B  c #643C0D",
"V  c #6C3C0D",
"C  c #6A350F",
"Z  c #643411",
"A  c #6B3611",
"S  c #6C3911",
"D  c #633E17",
"F  c #743A11",
"G  c #7A3E12",
"H  c #703D0C",
"J  c #433923",
"K  c #3F411E",
"L  c #43421D",
"P  c #4C451D",
"I  c #5B4215",
"U  c #55431A",
"Y  c #5E5307",
"T  c #78430E",
"R  c #674311",
"E  c #7B4313",
"W  c #7B4B13",
"Q  c #754511",
"!  c #6C560D",
"~  c #7E6C0D",
"^  c #796919",
"/  c #434521",
"(  c #464922",
")  c #4B4C24",
"_  c #4D4C28",
"`  c #534C24",
"'  c #584B24",
"]  c #4E5126",
"[  c #4F5328",
"{  c #525325",
"}  c #54552A",
"|  c #55592A",
" . c #5A5D2C",
".. c #58572A",
"X. c #5D5C32",
"o. c #555639",
"O. c #4D4C31",
"+. c #655928",
"@. c #7B5D24",
"#. c #625E32",
"$. c #5D622E",
"%. c #60642F",
"&. c #6C622E",
"*. c #6B6828",
"=. c #626631",
"-. c #656A32",
";. c #6A6D34",
":. c #6D6D3A",
">. c #696433",
",. c #726D35",
"<. c #726C39",
"1. c #6D7236",
"2. c #6F7538",
"3. c #717436",
"4. c #717638",
"5. c #747A3A",
"6. c #797D3C",
"7. c #7C7934",
"8. c #796C2B",
"9. c #5A5647",
"0. c #524C47",
"q. c #615E54",
"w. c #6F704D",
"e. c #7B7B41",
"r. c #686859",
"t. c #797967",
"y. c #6B6960",
"u. c #8A390D",
"i. c #953206",
"p. c #834413",
"a. c #8D4914",
"s. c #895617",
"d. c #965715",
"f. c #8F500D",
"g. c #B24C12",
"h. c #B85A17",
"j. c #A75514",
"k. c #966B0D",
"l. c #907007",
"z. c #AA6A18",
"x. c #A47A15",
"c. c #B97817",
"v. c #857028",
"b. c #C55D1A",
"n. c #C7681A",
"m. c #DA7821",
"M. c #E37D22",
"N. c #7E833E",
"B. c #7F8144",
"V. c #9A8A0D",
"C. c #AB8F03",
"Z. c #81853E",
"A. c #87873A",
"S. c #CCB403",
"D. c #E88723",
"F. c #DAB43E",
"G. c #EAC501",
"H. c #FEE601",
"J. c #FFEC29",
"K. c #838542",
"L. c #858A42",
"P. c #8A8D44",
"I. c #8E8D4C",
"U. c #85854B",
"Y. c #8D9246",
"T. c #8F9849",
"R. c #929446",
"E. c #94944B",
"W. c #959A4A",
"Q. c #9B9E4C",
"!. c #9C9C47",
"~. c #959450",
"^. c #9D9D53",
"/. c #9B9F5E",
"(. c #898A50",
"). c #A09E4D",
"_. c #A19E55",
"`. c #9CA24D",
"'. c #9FA251",
"]. c #A1A54E",
"[. c #A4A652",
"{. c #A4A951",
"}. c #AAAD54",
"|. c #AEAC5C",
" X c #A6A556",
".X c #B1AE55",
"XX c #B2AF5F",
"oX c #ADB155",
"OX c #B1B457",
"+X c #B4B659",
"@X c #B6B95A",
"#X c #BBBC5C",
"$X c #8C8C6D",
"%X c #BCBA63",
"&X c #B5B660",
"*X c #C9B845",
"=X c #C8BD51",
"-X c #C4BD69",
";X c #BFC05E",
":X c #C1C15E",
">X c #C2C363",
",X c #CCCB6C",
"<X c #D4D46E",
"1X c #D8D772",
"2X c #E7E67B",
"3X c #94948C",
"4X c #EEED80",
"5X c #FFFC8A",
"6X c #C3C3BB",
/* pixels */
"                                      > m a.d.z.k.                                                  ",
"                                      $ m i.g.m.D.c.                                                ",
"                                p M i.a.h.h.n.M.D.D.x.                                              ",
"                            $ M g.b.b.m.m.@.s.z.d.d.s.                                              ",
"                            # m g.p.&.@.s.:.L.;.K.Y.P.6. .                                          ",
"                            j g.b.+.T.Y.3.R.{.OX;X:X:X;X+X{. X                                      ",
"                          $ m u.A -.Y.{.{.{.{.oXoX+X#X;X;X#X@XI.                                    ",
"                            % c ;.6.Q.Q.Q.`.{.{.`.N.W.oXoX`.Q.{.B.                                  ",
"                            6 1.N.N.A.].oX;X;X;X@XQ.3.`.W.1.W.{.Q.                                  ",
"                  / =.{     | 4.1.A.OX;X;X;X;X;X:X:X{.`.`.`.#X;X X .                                ",
"                  $.`.Q.Q.3.| 1.N.T.oX;X;X@X;X;X#X;X@X`.Q.}.;X:X>X X                                ",
"                  / 5.4.1.{.Z.-.N.T.`.`.N.1.*.N.A.A.6.P.P.L.W.}.#X>XK.                              ",
"                    $.4.-.1.`.$.-.1.1.] l.C.S.S.*X*.$.].oX*.~ ^ A.%Xe.                              ",
"                  + ] 4.1.-.Y.;.N.$.$.K l.G.H.J.-X] ;.}.:XA.C.H.*X#.                                ",
"                < q 0 -.2.N.N.4.`.`.`.N.L ! V.A.P 1.4.W.;XY.Y S.=X                                  ",
"                3 q 9 0 $.N.1.2.A.`.`.`.w.| } 9.7.W.K.$.B.2.X.O.{ y.                                ",
"              8 ] 1.3.( 8 ] 1.2.Y.{.{.'.6X$XB.B.o.o.1.N.B.B.T.B.$X3X                                ",
"            K ;.Y.{.}.{.1.8 $.2.N.T.T.B.3Xw.r.B.{.&X;X;XoXOX;X>X%X~.                                ",
"          K -.Z.].+X;X@X>Xt | 4.N.W.Y.B.N.`.;X;XoXT.B.B.B.B.Y.`.#X X                                ",
"        3 $.N.`.oX;X:X;X<X4.K 2.2.B.{.{.{.`.`.`.`.`.{.{.{.{.'.{.>X:.                                ",
"        ) 2.P.{.;X:X;X;X<X X0 %.2.N.T.`.`.{.{.{.{.{.{.{.{.{.{.{.&X                                  ",
"      3 $.N.`.oX:X:X;X;X<XXX[ ) 1.1.N.T.{.{.{.{.{.`.`.N.`.{.{.oX&X                                  ",
"      K 2.N.].#X:X:X:X#X<X'.-.( [ N.1.N.N.B.T.N.N.N.N.N.N.N.`.oX|.                                  ",
"      ] 4.Y.}.;X:X:X:X@X1XB.1.;./ | 1.2.2.2.N.1.-.N.-.N.1.N.B.oXI.                                  ",
"      $.4.W.oX;X;X;X;X;X,X-.4.5.2.L ] 1.4.4.4.4.N.-.N.-.1.1.B.`.                  % % > f           ",
"    3 $.5.`.{.oXOXOXOX,X/.-.P.{.{.W.;.) | ;.2.4.-.N.1.N.N.-.N./.4.            o = f : s T           ",
"    K 5.W.{.`.{.@X1X1X1X=.4.`.#X:X;X;X`.4.$.|  .| -.-.$.| $.B.<X_.        X * = ; d a s H           ",
"    | W.{.].oX@X+X>X5X X{ 5.`.;X:X;X:X;X+X`.`.Q.N.T.B.N.N.`.`.W.-X      X * = > 1 s a a C B         ",
"  3 $.P.'.OX;X;X:X@X2X^.{ 4.`.@X:X:X:X:X@X].oX;X:X:X#XI.`..X}.Q.+X~.    o * = : s s a s g H         ",
"  K 1.P.{.;X:X:X:X@X2X|.] 1.Y.oX;X:X:X:X@X].{.;X:X-X}.L.oX}..X}.}.XX    # * = : s a : s j V         ",
"  | 4.T.{.oX;X;X;X@X2X|.P 2.1.Y.OX;X:X;XoX`.W.}.#X@XK.R.Q.I.v.>...,.    o = * ; a s ; i s N         ",
"  | 1.2.4.N.N.A.W.`.2X'.K ;.1.| 2.L.W.Y.5.4.3.;.L.6.J ) R l B l d T s.    * * = : x a : s g k       ",
"X < 5 2 5 v I I P P  XI.3 %.3.1.$.[ } $.1.3.5.K.N.} # & a l R Q B f.l.    o o = : s a ; a s N       ",
"X O % & > f z l l g N R 4 | 4.3.5.R.}.#X+XW.A.+X;X#.# d Q B l z N d.      @ o = : s x ; : i g d     ",
"@ % = : l Q W W W k d.l.< K -.1.P.OX:X:X:XY.-.#X:X' > ; a d z z U @.    . X o # ; i x ; i a s g     ",
"  % = > 1 d d g g C d.n r y t t X.L._.}.`.A.6.Q.Q.t = ; U &.( ;.}.E.O # ; ; o o * : a 1 1 i s g     ",
"  % = 5 c U v b d u.k.O - , r r y 0.9.0.@.*Xv.q.r.y * :.[.Q.| P..X-Xx g N i o o * ; a i a a i s g   ",
"  -  .Y.{.}.].Y.6.v.Y X 2 d g i > , u u v x.R J x + q >.} 5 - +.3.,.x a ; %   o * = : ; = = ; 1 S k ",
"  q Y.oX:X:X:X:X-XOX_ o s S N A h x Z g g h h g h : O * & : a  .>.a =         X * * = * d k G E d.s.",
"  K Y.+X:X:X:X:XOX,XI.o a a s Z F h Z Z A Z h ' x a ; : x #.c R.+X<.            * * 1 A F p.G Z p.W ",
"  K Y.{.#X:X;X;X@X2X~.. w ;.5 s h 1 d h a ; ' E.c : ; ` ..[.L.7.-X_.            o d G F a.p.F F p.b ",
"    -.B.oX#X#X@X#X2XI.  q Y.;.6 P.6.2 c :.>.!.XX' o 3 _.:.R.|.*.!.K.            = p.S C F F A S b   ",
"      [ }.>X'.@X1X~.    9 N.].Q.#X+X6.;.R.Q.).}.#.  9 ).^.;.%X` e               h a.p.E F N a       ",
"         X,X4.+X-X      3 ;.`.{.oX+Xe.1.R.).].).      ..U.9 }                     h N C N d         ",
"                        9 N.{.@X-X#X%.Z.E..X.XE.                                                    ",
"                        0 L.{.@X+XE.q Z.R.E.Z.#.                                                    ",
"                        8 4.].}.!.L.O.#.A.E.R.Z.t                                                   ",
"                        9 Z.].@X#X`.U.B.6.6.w.=.{                                                   ",
"                        3 1.L.T.B.e.4.} } :.;.| 0                                                   ",
"                          3 8 q ) (                                                                 "
};
