/* XPM */
static char *_8c3396cfd854a2bb8b81072399b00422LL6c0KipUFuo6Yd[] = {
/* columns rows colors chars-per-pixel */
"50 50 209 2 ",
"   c None",
".  c #100602",
"X  c #150A04",
"o  c #1C0D05",
"O  c #1C1106",
"+  c #1E180B",
"@  c #0E0603",
"#  c #220E04",
"$  c #2D0C00",
"%  c #241106",
"&  c #2A1406",
"*  c #261309",
"=  c #2B1508",
"-  c #28190A",
";  c #341A09",
":  c #3C1D0A",
">  c #321606",
",  c #2D1E15",
"<  c #25210F",
"1  c #3C230C",
"2  c #34230E",
"3  c #2B2B13",
"4  c #272515",
"5  c #332511",
"6  c #3D2E14",
"7  c #372A17",
"8  c #2F3117",
"9  c #313216",
"0  c #343519",
"q  c #3B3C1C",
"w  c #383317",
"e  c #37380C",
"r  c #2F2A29",
"t  c #3A3629",
"y  c #393431",
"u  c #392B24",
"i  c #461C07",
"p  c #5C1E03",
"a  c #44220C",
"s  c #4A230C",
"d  c #4B290B",
"f  c #4C2E07",
"g  c #532B0C",
"h  c #5A2D0E",
"j  c #51240B",
"k  c #5C340C",
"l  c #5F390D",
"z  c #55330C",
"x  c #4A2B15",
"c  c #493817",
"v  c #543B12",
"b  c #583712",
"n  c #4B3A0C",
"m  c #6D2605",
"M  c #732906",
"N  c #63330E",
"B  c #643C0D",
"V  c #6C3C0D",
"C  c #6A350F",
"Z  c #643411",
"A  c #6B3611",
"S  c #6C3911",
"D  c #633E17",
"F  c #743A11",
"G  c #7A3E12",
"H  c #703D0C",
"J  c #433923",
"K  c #3F411E",
"L  c #43421D",
"P  c #4C451D",
"I  c #5B4215",
"U  c #55431A",
"Y  c #5E5307",
"T  c #78430E",
"R  c #674311",
"E  c #7B4313",
"W  c #7B4B13",
"Q  c #754511",
"!  c #6C560D",
"~  c #7E6C0D",
"^  c #796919",
"/  c #434521",
"(  c #464922",
")  c #4B4C24",
"_  c #4D4C28",
"`  c #534C24",
"'  c #584B24",
"]  c #4E5126",
"[  c #4F5328",
"{  c #525325",
"}  c #54552A",
"|  c #55592A",
" . c #5A5D2C",
".. c #58572A",
"X. c #5D5C32",
"o. c #555639",
"O. c #4D4C31",
"+. c #655928",
"@. c #7B5D24",
"#. c #625E32",
"$. c #5D622E",
"%. c #60642F",
"&. c #6C622E",
"*. c #6B6828",
"=. c #626631",
"-. c #656A32",
";. c #6A6D34",
":. c #6D6D3A",
">. c #696533",
",. c #726D35",
"<. c #726C39",
"1. c #6D7236",
"2. c #6F7538",
"3. c #717436",
"4. c #717638",
"5. c #747A3A",
"6. c #797D3C",
"7. c #7C7934",
"8. c #796C2B",
"9. c #5A5647",
"0. c #524C47",
"q. c #615E54",
"w. c #6F704D",
"e. c #7B7B41",
"r. c #686859",
"t. c #797966",
"y. c #6B6960",
"u. c #8A390D",
"i. c #953206",
"p. c #834413",
"a. c #8D4914",
"s. c #895617",
"d. c #965715",
"f. c #8F500D",
"g. c #B24C12",
"h. c #B85A17",
"j. c #A75514",
"k. c #966B0D",
"l. c #907007",
"z. c #AA6A18",
"x. c #A47A15",
"c. c #B97817",
"v. c #857028",
"b. c #C55D1A",
"n. c #C7681A",
"m. c #DA7821",
"M. c #E37D22",
"N. c #7E833E",
"B. c #7F8144",
"V. c #9A8A0D",
"C. c #AB8F03",
"Z. c #81853E",
"A. c #87873A",
"S. c #CCB403",
"D. c #E88723",
"F. c #DAB43E",
"G. c #EAC501",
"H. c #FEE601",
"J. c #FFEC29",
"K. c #838542",
"L. c #858A42",
"P. c #8A8D44",
"I. c #8E8D4C",
"U. c #85854B",
"Y. c #8D9246",
"T. c #8F9849",
"R. c #929446",
"E. c #94944B",
"W. c #959A4A",
"Q. c #9B9E4C",
"!. c #9C9C47",
"~. c #959450",
"^. c #9D9D53",
"/. c #9B9F5E",
"(. c #898A50",
"). c #A09E4D",
"_. c #A19E55",
"`. c #9CA24D",
"'. c #9FA251",
"]. c #A1A54E",
"[. c #A4A652",
"{. c #A4A951",
"}. c #AAAD54",
"|. c #AEAC5C",
" X c #A6A556",
".X c #B1AE55",
"XX c #B2AF5F",
"oX c #ADB155",
"OX c #B1B457",
"+X c #B4B659",
"@X c #B6B95A",
"#X c #BBBC5C",
"$X c #8C8C6D",
"%X c #BCBA63",
"&X c #B5B560",
"*X c #C9B845",
"=X c #C8BD51",
"-X c #C4BD69",
";X c #BFC05E",
":X c #C1C15E",
">X c #C2C363",
",X c #CCCB6C",
"<X c #D4D46E",
"1X c #D8D772",
"2X c #E7E67B",
"3X c #94948C",
"4X c #EEED80",
"5X c #FFFC8A",
"6X c #C3C3BB",
/* pixels */
"                                                  k.z.j.a.m $                                       ",
"                                                c.D.M.g.i.m $                                       ",
"                                              x.D.M.M.b.h.j.a.i.M p                                 ",
"                                              s.s.d.z.v.@.m.m.b.b.g.M $                             ",
"                                           .6.P.Y.N.;.L.,.s.@.&.a.g.M #                             ",
"                                      {.{.+X:X:X:X;XOX{.R.4.T.E.+.b.g.p                             ",
"                                    I.@X#X:X:X#XOXoXoX{.'.{.{.Y.-.D u.m $                           ",
"                                  e.{.Q.Q.oXoXW.N.`.{.{.`.Q.`.Q.6.1.c #                             ",
"                                  ^.}.W.1.W.`.2.`.@X#X#X@XOX{.A.4.2.1.w                             ",
"                                 .{.#X#X`.`.`.{.:X:X:X:X:X:X:X@XY.2.4.|     ] =./                   ",
"                                 X:X:X;X}.`.`.+X:X#X#X#X;X@X;XoX`.5.1. .4.!.Q.`.$.                  ",
"                              U.>X#X{.Q.L.L.P.6.A.A.7.1.1.N.`.`.W.5.-.Z.{.1.4.6./                   ",
"                              e.%XA.l.^ *.OX[. .*.*XS.S.C.l.{ 1.2.;.$.`.1.-.4.$.                    ",
"                                X.*XH.C.A.>X}.1.{ >XJ.H.G.l.K $.$.N.1.Y.-.1.5.) +                   ",
"                                  =XS.Y P.:XT.5.,.P A.V.Y L 3.`.'.W.2.N.N.1.-.0 q <                 ",
"                                y.[ O.| 3.Z.$.Z.W.7.9. .$.w.`.{.{.T.2.1.N.$.0 9 q 3                 ",
"                                3X$XU.I.L.B.N.2.$.| t.t.$X6X/.}.`.Y.2.1.] 8 ( 3.1.] 3               ",
"                                ~.&X;X@XoX;X;X@XOX'.L.-.r.3XB.Y.T.N.2.$.8 1.{.}.{.Y.-./             ",
"                                 X#X`.P.B.N.N.L.`.}.@X@X`.B.B.Y.T.N.2.| K >X@X#X+X].L.;.q           ",
"                                w.>X].{.{.{.{.`.`.`.'.{.{.{.{.{.P.2.2.K 4.<X#X>X;XoX`.6.-.3         ",
"                                  @X}.].{.{.`.{.{.{.`.{.{.{.{.T.5.4.=.0  X<X;X;X;X;X}.Y.1.)         ",
"                                  &X}.].`.`.`.T.`.{.{.{.`.{.T.N.4.1.) ] |.<X;X:X:X;XoX`.N.$.3       ",
"                                  |.oX`.B.N.4.N.N.N.B.T.L.N.N.1.2.| ( -.^.<X#X;X:X;X#X{.N.1.K       ",
"                                  I.OXP.5.4.1.4.1.1.4.4.4.2.2.2.$./ -.2.B.1X#X;X:X:X#X}.Y.4.]       ",
"          f > % &                   _.L.2.4.4.1.N.1.1.1.N.N.-.] P 1.5.2.-.,X;X;X;X;X;XoX`.2.$.      ",
"          T s 1 d - o             <._.6.1.4.4.4.N.1.1.N.%.| ] -.W.{.{.Y.-.^.,XoXOXOXoX{.`.N.$.<     ",
"          H s a s ; * * X         _.,XI. .| =.=.| $.$.| $.1.`.;X;X:X#X`.4.=.1X1X1X@X{.`.`.W.5.K     ",
"        B N a a a i ; = % X       %X!.].Q.6.e.A.B.W.W.`.`.oX;X;X;X;X#X`.N.] _.5X>XOX@XoX{.`.T.|     ",
"        H g j i s s 1 = = X     ~.XX)..X.X].I.#X;X;X;X}.{.;X;X;X:X:X@X`.4.[ ^.2X;X;X;X;XoX{.Y.$.3   ",
"        V j s : x s : * * %     XX}. X.X.X.XP. X;X;X;X}.{.;X;X;X;X;XoXY.4.] |.2X@X;X;X:X#X}.P.;.K   ",
"        N s i ; s a ; * * o     <.+.&.v.P.).Y.B.;X;X}.T.`.{.;X;X;XOXT.1.1.) |.2XOX;X;X@XoX{.W.4.{   ",
"      N g a : 1 s : = % %     s.G d l D R I P K N.N.1.2.2.N.A.T.P.1.| ;.;.q  X2X`.`.Y.N.6.4.2.1.|   ",
"      k s a ; s x : = # o     s.f.N Q R R a & % { 6.K.5.7.1.$.| [ $.1.4.$.3 I. X` U I v v 2 2 5 , X ",
"    d g i a ; s a : * o @       d.N k k R Q d # +.>X@XL.R.OX@X}.Y.5.4.4.| 4 I Z d l k z d ; % % O o ",
"    g j a 1 ; s a ; # o X .     @.U z z f a > > ' :X@X-.Y.-X>X-XOXL.1.-./ < l.d.k W W W Q B 1 > O . ",
"    d j i a 1 s ; * o o ; ; % + E. X;.( &.P 2 % J E.Q.N.A.)..X_.L.X.t t y r n j.C h f d d 1 > & %   ",
"  g s s i : 1 a ; % o o a N j x -X.XP...). X;.- y r.q.v.*X@.0.9.0.y r 4 , * # k.p.d b v U c 2 - O   ",
"l H : ; - = ; : = % o   % > s d <.4.+.- 5 ` ;.q + x J R V.v r x 4 - : h j 1 X Y v.6.Y.].}.{.Y...-   ",
"s.d.E G Z s & % = % X         & a >. .a ; > % O ; h g h h h x Z g h A Z A a o _ +X#X:X:X:X:XOXY.q   ",
"W E A G p.F S 1 % %             <.@XR.L &.a ; ; a x ` h Z A Z Z h F Z s x i o (.,XOX:X:X:X:XOXT.K   ",
"b E F G p.p.F G d %             _.-X7.L. X..` ; i c E.' ; a h g 1 z s 7 ;.w . ~.2X#X#X>X:X#X{.Y.q   ",
"  b S V F G C F p.-             K.!.*.|.R.;.^.7 X ' +X!.;.:.c ; 6.P.6 ;.Y.q   I.4X+X+X#X#XOXZ.-.    ",
"      a N F G p.a.h               e ` %X;._.).9   #.}.Q.!.R.;.e.+X@XW.`.6.9     ~.1X@X'.>X}.]       ",
"        a N S Z h                     | w U.{       _.].).R.;.6.+XOX}.`.;.3       %X&X4.,X X        ",
"                                                    ~.|..X!.N.=.%X:X@X{.N.9                         ",
"                                                    #.K.R.R.N.q E.+X@X{.L.q                         ",
"                                                  t K.E.I.Y.X.O.L.!.}.].4.9                         ",
"                                                  _ =.<.e.6.e.U.`.#X@X{.B.9                         ",
"                                                  0 | ;.;.{ | 5.e.B.T.L.1.3                         ",
"                                                                ( ) q 8 4                           "
};
