/* XPM */
static char *result[] = {
/* columns rows colors chars-per-pixel */
"50 50 201 2 ",
"   c #0C0C0B",
".  c #050605",
"X  c #150E0D",
"o  c #18120E",
"O  c #141413",
"+  c #191817",
"@  c #1C1C1B",
"#  c #1B1715",
"$  c #35100E",
"%  c #211E1D",
"&  c #281916",
"*  c #20201F",
"=  c #2A221E",
"-  c #33251A",
";  c #242423",
":  c #2D2624",
">  c #2A2827",
",  c #2C2C2A",
"<  c #332B24",
"1  c #312C2B",
"2  c #382D25",
"3  c #32312E",
"4  c #3C3128",
"5  c #343332",
"6  c #3B3633",
"7  c #3A3936",
"8  c #3C3B3A",
"9  c #39373A",
"0  c #541C18",
"q  c #43342C",
"w  c #46392B",
"e  c #5D302A",
"r  c #433B35",
"t  c #443E3B",
"y  c #4B3E3B",
"u  c #563531",
"i  c #7B2D2A",
"p  c #782924",
"a  c #64312F",
"s  c #7A312C",
"d  c #613A37",
"f  c #663A38",
"g  c #793934",
"h  c #4C422D",
"j  c #43413E",
"k  c #4B433D",
"l  c #5E5339",
"z  c #55413A",
"x  c #61433B",
"c  c #6A453E",
"v  c #75433C",
"b  c #79403E",
"n  c #796539",
"m  c #363C4A",
"M  c #3F424A",
"N  c #3E4350",
"B  c #454442",
"V  c #494642",
"C  c #4C4A46",
"Z  c #4D4C4A",
"A  c #514542",
"S  c #554C46",
"D  c #5A4B44",
"F  c #514F4C",
"G  c #5D4D4D",
"H  c #54524D",
"J  c #5C534D",
"K  c #5F5A4F",
"L  c #545453",
"P  c #595652",
"I  c #5B5955",
"U  c #5C5C5A",
"Y  c #484C58",
"T  c #674845",
"R  c #7E4D49",
"E  c #7A4944",
"W  c #6A564A",
"Q  c #645C55",
"!  c #6B5C54",
"~  c #615E5C",
"^  c #6A5B57",
"/  c #755C54",
"(  c #64625D",
")  c #6A655E",
"_  c #6C695E",
"`  c #74635B",
"'  c #7C655E",
"]  c #4F5462",
"[  c #5C626F",
"{  c #656563",
"}  c #6A6763",
"|  c #6B6964",
" . c #6C6C6B",
".. c #646668",
"X. c #7B6462",
"o. c #726D65",
"O. c #7B6E65",
"+. c #716E6B",
"@. c #776B69",
"#. c #6F706F",
"$. c #747167",
"%. c #74726B",
"&. c #7A766D",
"*. c #7A786B",
"=. c #6F7170",
"-. c #747473",
";. c #7B7572",
":. c #7A7975",
">. c #7D7D7B",
",. c #777A78",
"<. c #86352E",
"1. c #843E39",
"2. c #8A423E",
"3. c #8F743C",
"4. c #854D4A",
"5. c #86534F",
"6. c #855956",
"7. c #865553",
"8. c #935754",
"9. c #896B69",
"0. c #8A756D",
"q. c #9D7061",
"w. c #8C7473",
"e. c #847E7D",
"r. c #887C75",
"t. c #927D7B",
"y. c #AA7F71",
"u. c #94865D",
"i. c #BA984D",
"p. c #A58748",
"a. c #8B8374",
"s. c #82817D",
"d. c #89857B",
"f. c #B19862",
"g. c #AD8C71",
"h. c #BFAB68",
"j. c #CDA64F",
"k. c #D3AA51",
"l. c #D5B05E",
"z. c #C48A76",
"x. c #ECC25F",
"c. c #DCD07D",
"v. c #848481",
"b. c #898784",
"n. c #8C8A84",
"m. c #8D8C8A",
"M. c #868A8B",
"N. c #918C83",
"B. c #928F8A",
"V. c #959186",
"C. c #93928D",
"Z. c #9D978B",
"A. c #949492",
"S. c #999794",
"D. c #9C9D9B",
"F. c #999996",
"G. c #A29D91",
"H. c #A19F9D",
"J. c #A99F9C",
"K. c #9FA09E",
"L. c #AAA599",
"P. c #B6A195",
"I. c #9FA1A0",
"U. c #A3A3A3",
"Y. c #ACACAC",
"T. c #A7A9A8",
"R. c #B0AFAE",
"E. c #AFB0AF",
"W. c #B0B0AF",
"Q. c #B3B3B3",
"!. c #BCBCBB",
"~. c #B8B8B6",
"^. c #D89782",
"/. c #E19D87",
"(. c #C4AB91",
"). c #E4A18A",
"_. c #FFB89D",
"`. c #C5C288",
"'. c #C9C2B7",
"]. c #BFBFC1",
"[. c #BFC0C1",
"{. c #C4C4C4",
"}. c #C7C7C8",
"|. c #CDCCCC",
" X c #C8C8C8",
".X c #D0CFCE",
"XX c #CFD0D1",
"oX c #D4D4D4",
"OX c #D8D6D6",
"+X c #D8D7D8",
"@X c #DCDBDC",
"#X c #E0DFDE",
"$X c #DFDFE0",
"%X c #E4E3E4",
"&X c #E6E7E9",
"*X c #EDECED",
"=X c #E8E7E8",
"-X c #F0EFF0",
";X c #F3F2F3",
":X c #F9F9F9",
">X c None",
/* pixels */
">X>X>X>X>X>X>X>X>X>X>X>X>X>X>X>X>X>X>X>X>X>X>X>X>X>X>X>X>X>X>X>X>X>X>X>X>X>X>X>X>X>X>X>X>X>X>X>X>X>X",
">X>X>X>X>X>X>X>X>X>X>X>X>X>X>X>X>X>X>X>XOX+X+X|.|.oX#X@X@X%X>X>X>X>X>X>X>X>X>X>X>X>X>X>X>X>X>X>X>X>X",
">X>X>X>X>X>X>X>X>X>X>X>X>X>X>X>X>X>XOX@X%X&X&X+XoXXX$X$X%X*X;X%X>X>X>X>X>X>X>X>X>X>X>X>X>X>X>X>X>X>X",
">X>X>X>X>X>X>X>X>X>X>X>X>X>X>X>X>X>X@X&X&X%X$X$X@X+X@X=X-X*X*XOXQ.>X>X>X>X>X>X>X>X>X>X>X>X>X>X>X>X>X",
">X>X>X>X>X>X>X>X>X>X>X>X>X>X>X>X>XS.XX:X%X+X$X@XoXoX+X*X-X;X:X@XY.F.>X>X>X>X>X>X>X>X>X>X>X>X>X>X>X>X",
">X>X>X>X>X>X>X>X>X>X>X>X>X>X>X>X>XA.{.+X{.XX%X&X*X@X*X:X;X#X+XW.U.D.>X>X>X>X>X>X>X>X>X>X>X>X>X>X>X>X",
">X>X>X>X>X>X>X>X>X>X>X>X>X>X>X>XN.D.Y.].oX{.@X|. X%X;X@XOXoX|.D.F.I.v.>X>X>X>X>X>X>X>X>X>X>X>X>X>X>X",
">X>X>X>X>X>X>X>X>X>X>X>X>X>X>X>Xv.T.U.T.Q.Y.Q.].!.oX;X.X#X%XOXQ.D.A.v.>X>X>X>X>X>X>X>X>X>X>X>X>X>X>X",
">X>X>X>X>X>X>X>X>X>X>X>X>X>X>X>XA.~.{.{.}.{.{.}.].OX%XoX#X#X.X}.Q.U.A.>X>X>X>X>X>X>X>X>X>X>X>X>X>X>X",
">X>X>X>X>X>X>X>X>X>X>X>X>X>X>XB.I.].}.XX|.|.{.!.U.{.@X XoXoXoX.X!.Y.I.v.>X>X>X>X>X>X>X>X>X>X>X>X>X>X",
">X>X>X>X>X>X>X>X>X>X>X>X>X>X>XC.Y.].].].|.].].|.}.|. XoX|.}.}.'.!.Q.U.>.>X>X>X>X>X>X>X>X>X>X>X>X>X>X",
">X>X>X>X>X>X>X>X>X>X>X>X>X>X>X .m.T.Y.E.Q.!.!.].Q.Y.U.Y.!.~.Q.E.Q.U.>...>X>X>X>X>X>X>X>X>X>X>X>X>X>X",
">X>X>X>X>X>X>X>X>X>X>X>X>X>X>XV 5 L :.C.I.U.I.U.U.A.F.I.D.F.m.v.| B 3 V >X>X>X>X>X>X>X>X>X>X>X>X>X>X",
">X>X>X>X>X>X>X>X>X>X>X>X>X>X>X+.Y 1 6 Y [ -.,.v.M.v.v.>.-...] B 6 8 U  .>X>X>X>X>X>X>X>X>X>X>X>X>X>X",
">X>X>X>X>X>X>X>X>X>X>X>X>X>X>X>.M.#.Y B m 9 r V G Q A y 6 m N Z { >.,.;.>X>X>X>X>X>X>X>X>X>X>X>X>X>X",
">X>X>X>X>X>X>X>X>X>X>X>X>X>X>X:.M.m.w.e.v...G W z./.q.S U -.v.w.t.v.-.-.>X>X>X>X>X>X>X>X>X>X>X>X>X>X",
">X>X>X>X>X>X>X>X>X>X>X>X>X>X>X;.v.b.2.w.U.U.M.^ )._.y...H.I.H.8.4.#.@.| >X>X>X>X>X>X>X>X>X>X>X>X>X>X",
">X>X>X>X>X>X>X>X>X>X>X>X>X>X>X' 4.7.1.@.m.D.F.w.^./.g.:.A.A.A.9.g T E L 5 >X>X>X>X>X>X>X>X>X>X>X>X>X",
">X>X>X>X>X>X>X>X>X>X>X>X>X>X>X%.;.7.i E R 9.M.U A x A :.e.7.4.2.i T  .Z 9 ..>X>X>X>X>X>X>X>X>X>X>X>X",
">X>X>X>X>X>X>X>X>X>X>X>X>X>X>X&.,.X.b @.X.9.v.U 1 2 9 =.w.7.9.6.g L U 5 ; ~ >X>X>X>X>X>X>X>X>X>X>X>X",
">X>X>X>X>X>X>X>X>X>X>X>X>X>X>X( [ ^ f ..,.v.>.L : % m  . .-.;.^ a Z V ; ; L %.>X>X>X>X>X>X>X>X>X>X>X",
">X>X>X>X>X>X>X>X>X>X>X>X>X>X>X>X..G f ....>.e.P ; & 7 | #.+. .G a Z 9 >X@ L +.>X>X>X>X>X>X>X>X>X>X>X",
">X>X>X>X>X>X>X>X>X>X>X>X>X>X>X .I y f  .-.#.#.Y % X 9 { { @.} A e 9 O   @ L | Z.>X>X>X>X>X>X>X>X>X>X",
">X>X>X>X>X>X>X>X>X>X>X>X>X>X%.| Z 9 y ~  .[ { G & X 5 ~ ( ) I t > ; +   O L | V.>X>X>X>X>X>X>X>X>X>X",
">X>X>X>X>X>X>X>X>X>X>X>X>X..( U j 8 j H L U ..C & $ 1 P I F V 1 * * +     L } 9.>X>X>X>X>X>X>X>X>X>X",
">X>X>X>X>X>X>X>X>X>X>X>XC C B 8 3 7 8 P J y B 6 0 0 q 8 y V F , @ O       L } 5.1.>X>X>X>X>X>X>X>X>X",
">X>X>X>X>X>X>X>X>X>X>Xd.| V , + >X7 8 H o.` _ ( v i ' ) ) ` P > +   .   O L ~ 6.p >X>X>X>X>X>X>X>X>X",
">X>X>X>X>X>X>X>X>X>X>X(.'.:.> O >X5 7 B | %.&.*.4.<.a.%.$.%.C @   >X>X  , [ ) N.' >X>X>X>X>X>X>X>X>X",
">X>X>X>X>X>X>X>X>X>X>XP.'._ = o >X>X3 8 Q %.;.%.v <.r.$.$.$.5 O   >X>X- l [ %.d.' >X>X>X>X>X>X>X>X>X",
">X>X>X>X>X>X>X>X>X>X>XL.L.S : >X>X>X< 6 I %.&.%.v i *.$.$.~ *   >X>X>X- H P d.0.>X>X>X>X>X>X>X>X>X>X",
">X>X>X>X>X>X>X>X>X>X>X:.$.K P h >X>X>X4 S %.%.$.v s O.*.) S # o >X>X>X@ 5 H d.` >X>X>X>X>X>X>X>X>X>X",
">X>X>X>X>X>X>X>X>X>X*.`.c.u.#.J >X>X>X< w l ( Q W ` ' Q j < o   >X, ; @ + C O.T >X>X>X>X>X>X>X>X>X>X",
">X>X>X>X>X>X>X>X>X>X_ h.x.k.W P ) >X@ 7 k w 6 r w j k 7 @ * * * * + O * O 8 _ >X>X>X>X>X>X>X>X>X>X>X",
">X>X>X>X>X>X>X>X>X>X>XH 3.l.i.w M 7 > 7 P H 8 5 6 6 3 3 7 8 = + + @ * 3 + , >X>X>X>X>X>X>X>X>X>X>X>X",
">X>X>X>X>X>X>X>X>X>X>X>X< Z.(.p.h 7 3 j Q I H C Z k k k j k 3 @ @ ; 5 >   >X>X>X>X>X>X>X>X>X>X>X>X>X",
">X>X>X>X>X>X>X>X>X>X>X>X>XL.K.f.j.l j C  .*.( K I P H P P P 7 , * >X>X>X>X>X>X>X>X>X>X>X>X>X>X>X>X>X",
">X>X>X>X>X>X>X>X>X>X>X>X>X!.K.g.k.i.Q I ( V.a.*.$.$.$.$.%.U 7 j j 3 >X>X>X>X>X>X>X>X>X>X>X>X>X>X>X>X",
">X>X>X>X>X>X>X>X>X>X>X>X>X'.K.a.n l H U 8 | N.d.d.d.V.N.*.7 j I H j >X>X>X>X>X>X>X>X>X>X>X>X>X>X>X>X",
">X>X>X>X>X>X>X>X>X>X>X>X>X!.A.,.C 8 C H B 8 *.V.Z.G.G.N.Z 7 Z H Z H _ >X>X>X>X>X>X>X>X>X>X>X>X>X>X>X",
">X>X>X>X>X>X>X>X>X>X>X>X>X!.A.*.! d ! O.! j 8 V.Z.G.G._ 3 S o.O.R ` ` >X>X>X>X>X>X>X>X>X>X>X>X>X>X>X",
">X>X>X>X>X>X>X>X>X>X>X>X>X~.B.:.Q e c ` ! C >X>X>X>X>X>X7 D ! / g W ^ >X>X>X>X>X>X>X>X>X>X>X>X>X>X>X",
">X>X>X>X>X>X>X>X>X>X>X>X>XE.m.,.) u x $.) k >X>X>X>X>X>X>XV ) ` g Q >X>X>X>X>X>X>X>X>X>X>X>X>X>X>X>X",
">X>X>X>X>X>X>X>X>X>X>X>X>X>XU.S.~ j k I j , >X>X>X>X>X>X>X, F J D L >X>X>X>X>X>X>X>X>X>X>X>X>X>X>X>X",
">X>X>X>X>X>X>X>X>X>X>X>X>X>X>XL. .+.%.-.P , >X>X>X>X>X>X@ 7 { %.-. .%.>X>X>X>X>X>X>X>X>X>X>X>X>X>X>X",
">X>X>X>X>X>X>X>X>X>X>X>X>X>Xn.:.+.s.d.s.P >X>X>X>X>X>X>X>XB -.b.b.>.d.n.>X>X>X>X>X>X>X>X>X>X>X>X>X>X",
">X>X>X>X>X>X>X>X>X>X>X>X>XF.S.>.:.n.m.s.F >X>X>X>X>X>X>X>X>X+.m.C.m.A.C.A.>X>X>X>X>X>X>X>X>X>X>X>X>X",
">X>X>X>X>X>X>X>X>X>X>X>X>XS.C.>.-.m.A.s.Z >X>X>X>X>X>X>X>X>X} n.K.S.S.B.C.s.>X>X>X>X>X>X>X>X>X>X>X>X",
">X>X>X>X>X>X>X>X>X>X>X>X>X| | U ( %.-.U >X>X>X>X>X>X>X>X>X>XB } *.:.-.+.$.>X>X>X>X>X>X>X>X>X>X>X>X>X",
">X>X>X>X>X>X>X>X>X>X>X>X>X>X>X>X>X>X>X>X>X>X>X>X>X>X>X>X>X>X>X>X>X>X>X>X>X>X>X>X>X>X>X>X>X>X>X>X>X>X",
">X>X>X>X>X>X>X>X>X>X>X>X>X>X>X>X>X>X>X>X>X>X>X>X>X>X>X>X>X>X>X>X>X>X>X>X>X>X>X>X>X>X>X>X>X>X>X>X>X>X"
};
