/* XPM */
static char *_dec0ee09d404a50baee0605753d1fc8fJGlTMLZDgsG7N1L[] = {
/* columns rows colors chars-per-pixel */
"50 50 214 2 ",
"   c None",
".  c #0B0B0A",
"X  c #060605",
"o  c #120C0A",
"O  c #13100E",
"+  c #19120D",
"@  c #141413",
"#  c #1B1512",
"$  c #181817",
"%  c #1C1C1B",
"&  c #251B17",
"*  c #311312",
"=  c #22201E",
"-  c #29221C",
";  c #37281E",
":  c #242423",
">  c #2A2927",
",  c #2C2B2A",
"<  c #2A2120",
"1  c #342A23",
"2  c #3A2E24",
"3  c #312E2B",
"4  c #332621",
"5  c #33312D",
"6  c #3D322D",
"7  c #353432",
"8  c #393734",
"9  c #3A3936",
"0  c #3C3B3A",
"q  c #45110E",
"w  c #483B1F",
"e  c #67221D",
"r  c #7D231F",
"t  c #4D2B29",
"y  c #48362B",
"u  c #433B33",
"i  c #413E3C",
"p  c #493A37",
"a  c #5A3A37",
"s  c #513E37",
"d  c #5E2924",
"f  c #642A26",
"g  c #7D2A26",
"h  c #772A26",
"j  c #7B322D",
"k  c #673B39",
"l  c #763B37",
"z  c #67322D",
"x  c #43413E",
"c  c #494139",
"v  c #53433E",
"b  c #5C453C",
"n  c #584A3F",
"m  c #534933",
"M  c #75423C",
"N  c #64563B",
"B  c #614A35",
"V  c #383B46",
"C  c #3A435A",
"Z  c #454442",
"A  c #494643",
"S  c #4B4945",
"D  c #4D4C4A",
"F  c #44454B",
"G  c #534D46",
"H  c #524E4B",
"J  c #584843",
"K  c #4F504F",
"L  c #53524E",
"P  c #5A524D",
"I  c #494D57",
"U  c #555453",
"Y  c #595752",
"T  c #5D5B56",
"R  c #5C5C5A",
"E  c #664D45",
"W  c #794947",
"Q  c #64534E",
"!  c #6D534C",
"~  c #625D57",
"^  c #615E5B",
"/  c #6A5854",
"(  c #735C54",
")  c #7A5957",
"_  c #63615C",
"`  c #6A655C",
"'  c #73645D",
"]  c #7C645C",
"[  c #756D53",
"{  c #646463",
"}  c #696662",
"|  c #6D6A65",
" . c #6C6C6B",
".. c #666969",
"X. c #736C65",
"o. c #7E6B64",
"O. c #706E6B",
"+. c #746561",
"@. c #6F706F",
"#. c #75726C",
"$. c #7A756D",
"%. c #79766C",
"&. c #6F7171",
"*. c #737372",
"=. c #7B7673",
"-. c #777876",
";. c #7C7A74",
":. c #7C7C7B",
">. c #747879",
",. c #862E29",
"<. c #813F3B",
"1. c #813831",
"2. c #88423F",
"3. c #977B3C",
"4. c #864946",
"5. c #88524D",
"6. c #8B5853",
"7. c #915D5B",
"8. c #89665B",
"9. c #947D48",
"0. c #846A69",
"q. c #926A63",
"w. c #82756B",
"e. c #827C73",
"r. c #817E7B",
"t. c #8D7D7C",
"y. c #887673",
"u. c #917A75",
"i. c #A47667",
"p. c #B27D6B",
"a. c #AA7E70",
"s. c #7F807F",
"d. c #A38B56",
"f. c #BD9A4E",
"g. c #82817D",
"h. c #8A857B",
"j. c #89847B",
"k. c #91907E",
"l. c #908E6A",
"z. c #A5936B",
"x. c #C59E4C",
"c. c #C29D54",
"v. c #D7B259",
"b. c #CBA54F",
"n. c #E4B655",
"m. c #CF927E",
"M. c #D7BB7E",
"N. c #7F8080",
"B. c #848481",
"V. c #888783",
"C. c #8B8A84",
"Z. c #878989",
"A. c #8D8D8B",
"S. c #848788",
"D. c #938582",
"F. c #928D83",
"G. c #928E8A",
"H. c #998A88",
"J. c #8F908F",
"K. c #959186",
"L. c #93928D",
"P. c #9A948B",
"I. c #9E998E",
"U. c #959593",
"Y. c #9A9995",
"T. c #9C9C9B",
"R. c #979896",
"E. c #8C9090",
"W. c #A29D92",
"Q. c #AB9F86",
"!. c #A7A49C",
"~. c #B4AA9D",
"^. c #9FA1A0",
"/. c #A4A4A3",
"(. c #A8A8A7",
"). c #ACACAB",
"_. c #A8A5A5",
"`. c #B3B3B3",
"'. c #B7B8B6",
"]. c #BBBBBB",
"[. c #B9B7B6",
"{. c #B0AFAC",
"}. c #CE9D8C",
"|. c #FDB399",
" X c #F0A991",
".X c #C0BFBF",
"XX c #BFC0BF",
"oX c #F2E284",
"OX c #D0C7B8",
"+X c #BFBFC0",
"@X c #BFC0C0",
"#X c #C4C4C3",
"$X c #CCCBCC",
"%X c #C9C8C7",
"&X c #D0D0CF",
"*X c #CFCFD1",
"=X c #D1CFD1",
"-X c #CFD1D2",
";X c #D3D2D3",
":X c #D7D7D8",
">X c #DCDBDC",
",X c #D9D7D7",
"<X c #E0DEDE",
"1X c #DFDEE0",
"2X c #E2E1E2",
"3X c #E5E4E4",
"4X c #EAE9EA",
"5X c #EDEDED",
"6X c #EBECEC",
"7X c #E8E7E8",
"8X c #EFEFF0",
"9X c #F1EFF1",
"0X c #F3F2F3",
"qX c #FAF9FA",
/* pixels */
"                                                                                                    ",
"                                          *X%X$X,X:X>X                                              ",
"                                :X:X<X1X1X*X*X*X%X>X2X>X<X7X4X7X                                    ",
"                              ,X1X1X4X7X4X2X1X:X;X2X1X7X5X4X9X9X1X+X                                ",
"                            /.3X0X6X2X1X1X1X:X>X;X:X1X5X5X9X0X4X&X).U.                              ",
"                            T.-X6X3X*X:X2X1X1X>X$X>X6X0X9X4X0X9X$X(.W.                              ",
"                          G.^.+X-X;X+X-X7X2X3X3X3X6XqX0X4X>X&XOXT.T.(.U.                            ",
"                        r.U.).^.(.*X@X].-X].$X].>XqX2X+X:X,X:X#XT.U.T.A.                            ",
"                        r.T.'.(.).`.`.`.`.].$X`.,X0X2X>X7X3X,X$X'.(.T.U.B.                          ",
"                      P.J.).+X$X=X*X*X$X$X#X].`.;X3X$X%X:X1X:X&X$X].).T.U.                          ",
"                      G.T.+X+X#X$X*X$X%X+X#X'.).%X>X;X:X:X&X$X&X$X].`.).T.:.                        ",
"                      V./.'.'.[.].+X#X+X+X$X%X+X#X].@X%X%X#X#XXX].'.'.).T.-.                        ",
"                      U R N.T.T./.).).`.`.`.`.).T.T.!.(.{.{.(.(./.^.U.@.D H                         ",
"                      T 7 > i T &.Z.R.R.U.T.T.R.J.U.R.R.U.Z.B.*.{ J 3 , 0 R                         ",
"                      -.>.U 0 7 V C I U R }  .*.&. ...{ L I C C 9 i D { &.*.                        ",
"                      ;.Z.Z.N. .R U F V u p J 8.q.E s u u F I R ..:.A.s.*.$.                        ",
"                      -.Z.E.t.6.t.T.R.S...P i. X|.}.Q R N.E.R.H.7.7.S.&.=.*.                        ",
"                      0.0.B.y.,.0.E.^._.^...a.|.|.}./ Z.T.^.T.R.4.<.} / ) }                         ",
"                      X.W 4.l 1.) y.D.H.R.=.q.a.p.i.+.B.J.D.t.t.6.,.l k ) U : I                     ",
"                      =.>.N.5.j W W 4.0.S. .8 t t 3 T N.y.2.2.4.4.g Q ^  .F % R  .                  ",
"                      O.&.>.W l &.>.y.:.N. .7 4 4 7 R =.*.0.=.=.+.h H U D , @ F {                   ",
"                        ....k a { ..>.S.N. .V < & , R  .O.*.O.O.Q f H K i   @ 0 ^ =.                ",
"                      O.R R a k  . . .>.:.{ 8 % O , U *. .| X.^ v f K 0 :   $ 7 R O.                ",
"                    *.O.R F u a { @.&.....{ 8 # o , U } } X.X.~ p t 7 : @ X @ 7 ..{ Y.              ",
"                  | O.{ L 0 0 x U { { { { ..5 * + < K _ ^ ^ Y D 7 : % : @ . . > @.R D.K.            ",
"                _ R U L x 7 0 x L D D L R U - * q 4 0 L L D Z i : : % % @ . . : *.R q.8.            ",
"              D Z 0 8 3 > 3 0 0 H | E n F x c e e k S A J J / Z : % @ . . X X ,  .R 6.r             ",
"            !.P.*.8 : @     0 0 x | #.X.%.X.X.1.,.0.-.X.X.X.O.8 : @ X   X . . Z _ R u.5.            ",
"            }.OX!.0 = O     5 8 9 Y X.#.w.%.X.1.,.l.s.X.| #._ : $ O     o # - } Y *.C.j.            ",
"            ~.OXk.1 -         3 7 H | X.%.#.X.j r w.%.X.#.#.S # O .       ; n @.U j.h.]             ",
"            C.I.Y 0 5         2 5 x | %.$.%.X.h r ] %.#.X._ 3 O +         & x D ` h.e.!             ",
"          -.k.l.[ O.` c w       ; y ~ X.#.X.' M M ] %.` T D = + o       : % > , X.e.(               ",
"          l.oXoXv.o.{ ^ n     % 5 y y y n P G P T [ ` c 1 - + O $ > , = % % @ % } '                 ",
"          ` d.b.n.x.N x T     = 5 G G c 8 5 2 2 6 8 7 > - , > = = % @ @ @ > $ $ L `                 ",
"          Z x m d.M.x.B 5 Z 7 , 8 L T P x x x x 0 0 8 8 x x 5 = @ $ % > 8 7 @ @ 8                   ",
"                X.'.Q.c.3.u 0 5 0 T ` _ Y G G L G S S S S D x > = $ $       . O                     ",
"                  ).L.z.v.b.N D L Y g.g.X._ _ ~ ^ T _ _ _ ~ x 7 5 , >                               ",
"                %X`.P.z.f.x.d.L { H _ P.k.e.;.;.%.;.%.s.s.~ 9 x K D 0                               ",
"                $X`.L.s.n u 5 D Y i , ~ k.K.K.K.K.I.I.P.[ , , L K D S i Y                           ",
"                OX{.h.s._ S m Y _ ^ H 9 L k.K.P.W.W.I.` 5 x T _ _ Y ~ X.X.                          ",
"                @X{.g.:.( a f ( ] ( E c >   P.I.I.!.    5 v ! ' ] 2.M (                             ",
"                XX(.:.:.| P f E X.X._ S                 0 G ` +.[ j ! _                             ",
"                  (.C.B.#.G t a } _ D 5                   7 L ` E z Y                               ",
"                    ).!.*.D G L _ Y 7 >                 % > S T ~ ~ _ _                             ",
"                      P.#.@.g.;.g.#.0 >                   7 R ;.-.:.=.#.g.                          ",
"                    C.*.@.;.C.C.B.| 9                     0 R V.A.G.V.B.C.C.L.                      ",
"                L.!.L.s.-.s.A.L.C.{                         Y B.L.Y.L.L.U.L.Y.L.                    ",
"                s.J.B.#.#.:.P.L.:.Y                         S | V.Y.U.L.U.V.h.g.                    ",
"                  T L S L K R R D                             A L R ^ R ^ R _                       ",
"                                                                                                    "
};
