/* XPM */
static char *e40dea6400ec4e4b81099ae64333514dO6Ic3NoXqjQaDJfi[] = {
/* columns rows colors chars-per-pixel */
"50 50 181 2 ",
"   c None",
".  c #1B1B1B",
"X  c #141413",
"o  c #271F1A",
"O  c #20201F",
"+  c #3A2B1F",
"@  c #36281D",
"#  c #242424",
"$  c #292826",
"%  c #2D2C2A",
"&  c #282725",
"*  c #332922",
"=  c #3D2D21",
"-  c #332E2A",
";  c #34312D",
":  c #39322C",
">  c #3C3527",
",  c #343432",
"<  c #3A3632",
"1  c #3B3936",
"2  c #3D3C3A",
"3  c #4A3A18",
"4  c #412F22",
"5  c #443225",
"6  c #453727",
"7  c #573E2C",
"8  c #443A35",
"9  c #413E3B",
"0  c #4C3E32",
"q  c #753531",
"w  c #653A37",
"e  c #52411B",
"r  c #54462D",
"t  c #43413E",
"y  c #4B443D",
"u  c #53453B",
"i  c #604F2B",
"p  c #64413E",
"a  c #694D38",
"s  c #70423F",
"d  c #776435",
"f  c #3C3D41",
"g  c #464542",
"h  c #4A4643",
"j  c #4B4A45",
"k  c #4D4B49",
"l  c #554543",
"z  c #504E4C",
"x  c #5B4B46",
"c  c #53514D",
"v  c #5A534E",
"b  c #565047",
"n  c #565552",
"m  c #5A5752",
"M  c #5C5A55",
"N  c #5C5C5A",
"B  c #674E4A",
"V  c #754A46",
"C  c #685348",
"Z  c #79534E",
"A  c #635D55",
"S  c #625F5B",
"D  c #685750",
"F  c #715C57",
"G  c #716342",
"H  c #63615C",
"J  c #6B615B",
"K  c #746152",
"L  c #72625C",
"P  c #7A685D",
"I  c #7E7356",
"U  c #5D5F63",
"Y  c #656462",
"T  c #696663",
"R  c #6B6965",
"E  c #66696B",
"W  c #6C6C6A",
"Q  c #666867",
"!  c #7B6765",
"~  c #736D66",
"^  c #7C6C64",
"/  c #716D6A",
"(  c #786B6A",
")  c #74726D",
"_  c #7C756D",
"`  c #6D6F70",
"'  c #6F7274",
"]  c #747574",
"[  c #7A7673",
"{  c #7B7975",
"}  c #747779",
"|  c #76797B",
" . c #7A7C7C",
".. c #823B37",
"X. c #854846",
"o. c #835957",
"O. c #A4574D",
"+. c #87665D",
"@. c #836964",
"#. c #857068",
"$. c #827C75",
"%. c #817F7B",
"&. c #857A74",
"*. c #AB7267",
"=. c #BF7A6F",
"-. c #82817C",
";. c #89837A",
":. c #8B8577",
">. c #92887F",
",. c #AF8070",
"<. c #BCA460",
"1. c #ABA67B",
"2. c #D9BD60",
"3. c #C6B772",
"4. c #7B7E81",
"5. c #7E8183",
"6. c #838483",
"7. c #8C8A84",
"8. c #828588",
"9. c #868989",
"0. c #8A8C8C",
"q. c #888783",
"w. c #928B87",
"e. c #8D908F",
"r. c #9B9187",
"t. c #94938E",
"y. c #9E998E",
"u. c #999188",
"i. c #8C8F90",
"p. c #8D9091",
"a. c #959593",
"s. c #9A9995",
"d. c #9A9B9B",
"f. c #989896",
"g. c #A6968A",
"h. c #A39D92",
"j. c #9FA09F",
"k. c #A9A395",
"l. c #A2A29E",
"z. c #ABA69A",
"x. c #B6AB9E",
"c. c #9EA0A0",
"v. c #A3A4A4",
"b. c #ACADAD",
"n. c #A8A8A8",
"m. c #AFB0AF",
"M. c #AFB0B0",
"N. c #B3B3B3",
"B. c #B8B8B7",
"V. c #BBBBBB",
"C. c #BAB6AA",
"Z. c #D09784",
"A. c #C8A294",
"S. c #D2B0A2",
"D. c #BFC0BE",
"F. c #CDCC9E",
"G. c #E9DF86",
"H. c #C5C1BA",
"J. c #F3EEB7",
"K. c #BFBFC1",
"L. c #BFC0C1",
"P. c #C3C3C4",
"I. c #C7C6C8",
"U. c #CBCBCC",
"Y. c #C9C7C8",
"T. c #CECED0",
"R. c #D0CFD0",
"E. c #CFD0D0",
"W. c #D3D3D4",
"Q. c #DAD9DA",
"!. c #DDDCDD",
"~. c #D8D7D8",
"^. c #DFDFE1",
"/. c #E0DFE0",
"(. c #E6E5E6",
"). c #E0E0E1",
"_. c #E7E7E8",
"`. c #EAEAEB",
"'. c #F6F5F6",
"]. c #F2F2F3",
"[. c #F9F9F9",
/* pixels */
"                                                                                                    ",
"                        P.I.Y.I.V.V.K.V.                                                            ",
"                  V.U.W.E.E.W.~.~.~.T.I.I.K.b.                                                      ",
"                n.U.W.W.E.Y.U.Q.~.W.P.P.U.I.V.j.                                                    ",
"               .d._.`._.^.^._._.(.Q.W.^.~.P.V.v.6.                                                  ",
"               .f.P.Q.].[.'.[.[.'.'.'.[._.P.M.v.0.                                                  ",
"             .f.B.N.N.L.T.^.`.].].].].].`.U.B.d.f.6.                                                ",
"            -.N.U.I.L.N.B.L.L.W.W.~.^._./.N.d.j.n.a.q.                                              ",
"          ] f.B.P.D.H.V.N.K.K.L.L.U.Q.Q.^.L.K.L.b.v.0.                                              ",
"          { v.B.V.D.P.V.N.K.M.c.b.c.M.E.^.^.T.L.b.v.0.                                              ",
"           .l.b.B.L.I.L.K.N.c.d.c.f.c.L.U.^.~.S.v.a.-.                                              ",
"          [ s.l.v.M.N.N.M.M.c.c.M.M.K.L.T.E.R.B.a. .( +.                                            ",
"          ) w.h.s.v.v.c.n.v.c.d.c.c.N.N.N.N.v.%.U f x *.                                            ",
"          ) 7.g.h.t.0.0.i.p.i.i.5.p.p.p.0.U 9 < f f N #.Z.                                          ",
"          ~ r.r.r.w. .| 4.5.5.9.i.9.5.5.} N n Y E ( 6.q.#.                                          ",
"          H _ _ _ $. . .} 4.5.5.5.9.5.4.] ] 6.p.0.X.! { H                                           ",
"          M J H T R Q E E ` ' ' ' } } ' ] | 6.9.e.o.V Z S                                           ",
"          M _ ~ T T Q Q U E U U ' 4.} 5.}  .[ @.o...q F (                                           ",
"            ;.;._ ) E ) ] ] ` E Q | 5.' }  .@.V o.X.V E Q k                                         ",
"            _ >.&.$.{ 4.} 5.} E E } } } } W / { | F w H N % , g                                     ",
"            t T &.&.%.-.5.5.5.5.| 5.5.4.' ' } ' W B p ) H A g % 1                                   ",
"          , . % t c S W E ` ] 4.| } 4.| ' ] W W E u p T S ~ ) 2 #                                   ",
"          # & - & - F T M j t t f g g k g j k n m h l c m _ H $ #                                   ",
"        - O ; % & ; Z _ $.:.R N n c j t y 9 t 8 < , t j H T , #                                     ",
"        # , 1 ; % : C +._ M c N W Y M g t t h c 8 t c m h ; #                                       ",
"        % h t < ; : A &.c 2 M W { { ] S g t t k j h h < O .                                         ",
"      $ t c y 1 ; ; D _ t t Y ] ] ) ] Y g g g h z < # .                                             ",
"      % b c u 0 > 5 K ) 9 k ] ) { W Q c g t t g % . .                                               ",
"      2 M b 6 4 + 6 K ) t N { { W Q c , 1 1 2 2 O                                                   ",
"    $ j M H j y t r a K j S _ W H t % % , < 1 y h                                                   ",
"    O y ~ { -.~ H H C r u H W H n t % % : < 8 y                                                     ",
"    . O M >.k.y._ -.r.:.M R _ _ j.H.I @ + 4 + ;                                                     ",
"      $ t n ] -.H J y.C.y.:.*.=.A.S.k.: : y t                                                       ",
"                    u.k.z._ +.O.g.x.z.J H :.F.                                                      ",
"                    ;.7.k.I v V P { ~ R N 1.J.                                                      ",
"                    -.>.G.3.c H ) ` { E t 3 d d Y W / / / / W R E T T T Y T T Y H S S S S E W       ",
"                    { :.2.<.H R ] Q W R v O 3 r g k z z k k k k z j j h h h h g g 9 9 2 9 n m       ",
"                      -.  r k c k z c j y : e                                                       ",
"                          + ; % # # % ; < > i                                                       ",
"                          2 y 2 2 , 2 , < h W ] ) ) ] [ ]                                           ",
"                          k g g j t k M M b n n n c n N H N                                         ",
"                          u y t ; A ~ J C : % % % % , , , 1                                         ",
"                          6 6 5 % M J D B o X X                                                     ",
"                          > = + @ j A M v                                                           ",
"                          n 2 1 2 t g k N R H R W  .q.s.s.                                          ",
"                          H N g g g n Y R W ] -.-.q.t.t.q.q.                                        ",
"                          g j 2 t j c Q ) %.7.f.s.s.l.t.q.W                                         ",
"                                    t j M N R { 7.-.a.[ Y                                           ",
"                                                                                                    ",
"                                                                                                    "
};
