/* XPM */
static char *result[] = {
/* columns rows colors chars-per-pixel */
"50 50 190 2 ",
"   c #0D0D0C",
".  c #070707",
"X  c #140F0C",
"o  c #12110F",
"O  c #151414",
"+  c #1C1915",
"@  c #1C1C1B",
"#  c #221B13",
"$  c #291D14",
"%  c #22201E",
"&  c #2C241D",
"*  c #2E2516",
"=  c #3A281C",
"-  c #342A1E",
";  c #3F3218",
":  c #252423",
">  c #2C2925",
",  c #2C2C2A",
"<  c #2A2622",
"1  c #332B24",
"2  c #31302E",
"3  c #3E342B",
"4  c #3B3026",
"5  c #343432",
"6  c #393634",
"7  c #3A3936",
"8  c #3C3C3A",
"9  c #412D1F",
"0  c #463A1E",
"q  c #432F21",
"w  c #4D3A2C",
"e  c #4E3727",
"r  c #563B29",
"t  c #583D2A",
"y  c #443C35",
"u  c #4B3C32",
"i  c #403E3B",
"p  c #513E30",
"a  c #793B35",
"s  c #46422F",
"d  c #5F422D",
"f  c #514221",
"g  c #44423E",
"h  c #4C453C",
"j  c #56493E",
"k  c #5B4A3D",
"l  c #534336",
"z  c #62442F",
"x  c #664731",
"c  c #6D4E38",
"v  c #664C39",
"b  c #76463F",
"n  c #6E5C34",
"m  c #7A632F",
"M  c #444442",
"N  c #494743",
"B  c #4B4946",
"V  c #4C4C4A",
"C  c #524E4A",
"Z  c #5A4E44",
"A  c #52514D",
"S  c #5A554F",
"D  c #5E5643",
"F  c #545452",
"G  c #595751",
"H  c #5C5A55",
"J  c #575859",
"K  c #5D5C5B",
"L  c #645549",
"P  c #6A5B4D",
"I  c #635041",
"U  c #7D584F",
"Y  c #635D56",
"T  c #615F5B",
"R  c #6C5E57",
"E  c #755C51",
"W  c #63615D",
"Q  c #69655E",
"!  c #7A645C",
"~  c #75675B",
"^  c #5E5F60",
"/  c #646463",
"(  c #686663",
")  c #6C6964",
"_  c #686769",
"`  c #6D6D6C",
"'  c #666868",
"]  c #726D65",
"[  c #776E68",
"{  c #74716B",
"}  c #7A746C",
"|  c #7C786F",
" . c #7F7066",
".. c #6D6E70",
"X. c #6E7174",
"o. c #747472",
"O. c #7A7674",
"+. c #777876",
"@. c #7D7A73",
"#. c #777878",
"$. c #7B7C7B",
"%. c #767779",
"&. c #8A2721",
"*. c #8D2B23",
"=. c #8E2E28",
"-. c #902823",
";. c #89322B",
":. c #863B34",
">. c #883732",
",. c #85453C",
"<. c #91423C",
"1. c #8A6E34",
"2. c #8F7134",
"3. c #864E47",
"4. c #82554D",
"5. c #845B53",
"6. c #885E53",
"7. c #8C6C62",
"8. c #9C6D67",
"9. c #82746B",
"0. c #83786D",
"q. c #867268",
"w. c #9B7069",
"e. c #827C74",
"r. c #837F79",
"t. c #887C74",
"y. c #A6853D",
"u. c #858177",
"i. c #86837C",
"p. c #8A857C",
"a. c #8C887F",
"s. c #8A8076",
"d. c #97857E",
"f. c #CBA953",
"g. c #D8B65B",
"h. c #C0B165",
"j. c #E2C366",
"k. c #E6D474",
"l. c #7E7F80",
"z. c #7F8183",
"x. c #838383",
"c. c #8D8A83",
"v. c #8A8B89",
"b. c #888682",
"n. c #938C83",
"m. c #8F908F",
"M. c #959086",
"N. c #96938A",
"B. c #9B958C",
"V. c #9D998E",
"C. c #939494",
"Z. c #9C9992",
"A. c #9C9D9C",
"S. c #999692",
"D. c #A29D93",
"F. c #A6A297",
"G. c #AAA59B",
"H. c #AAA69C",
"J. c #A3A4A3",
"K. c #AAA9A5",
"L. c #ACACAC",
"P. c #B4B4B3",
"I. c #B8B7B7",
"U. c #B7B8B7",
"Y. c #B8B8B7",
"T. c #BCBDBC",
"R. c #C0C0BF",
"E. c #C1BEC0",
"W. c #C4C4C5",
"Q. c #CBC7CA",
"!. c #CBCACB",
"~. c #C9C7C6",
"^. c #D0CECE",
"/. c #D4D3D4",
"(. c #DAD6D9",
"). c #DDDCDB",
"_. c #D7D7D7",
"`. c #E2DEE1",
"'. c #DFE0E0",
"]. c #E4E2E3",
"[. c #EAE8E6",
"{. c #EAE7E8",
"}. c #EDEBEC",
"|. c #E8E7E5",
" X c #F0EEEF",
".X c #F1F0EF",
"XX c #F1EFF0",
"oX c #F5F3F4",
"OX c #FBFBFB",
"+X c None",
/* pixels */
"+X+X+X+X+X+X+X+X+X+X+X+X+X+X+X+X+X+X+X+X+X+X+X+X+X+X+X+X+X+X+X+X+X+X+X+X+X+X+X+X+X+X+X+X+X+X+X+X+X+X",
"+X+X+X+X+X+X+X+X+X+X+X+X+X+X+X+X+X+X+X+X+X+X+X+X+X+X+X+X+X+X+X+X+X+X+X+X+X+X+X+X+X+X+X+X+X+X+X+X+X+X",
"+X+X+X+X+X+X+X+X+X+X+X+X+X+X+X+X+X+X+X+X+X+X+X+X+X+X+X+X+X+X+X+X+X+X+X+X+X+X+X+X+X+X+X+X+X+X+X+X+X+X",
"+X+X+X+X+X+X+X+X+X+X+X+X+X+X+X+X+X+X+X+X^.^.(./.~.W.Q.Q.!.E.+X+X+X+X+X+X+X+X+X+X+X+X+X+X+X+X+X+X+X+X",
"+X+X+X+X+X+X+X+X+X+X+X+X+X+X+X+X+X+XL./.}.}.}.`.(.).(.`.`.`.`./.+X+X+X+X+X+X+X+X+X+X+X+X+X+X+X+X+X+X",
"+X+X+X+X+X+X+X+X+X+X+X+X+X+X+X+X+XA./.oXoXoX}.{.`.).{. XoXoXoX XE.+X+X+X+X+X+X+X+X+X+X+X+X+X+X+X+X+X",
"+X+X+X+X+X+X+X+X+X+X+X+X+X+X+X+X+XS.].OXOXoX XXX`.`.`.{.XXoXoX`.L.+X+X+X+X+X+X+X+X+X+X+X+X+X+X+X+X+X",
"+X+X+X+X+X+X+X+X+X+X+X+X+X+X+X+X#.C.R.'.oXoX XOXOX{.).OXoX)./.P.A.v.+X+X+X+X+X+X+X+X+X+X+X+X+X+X+X+X",
"+X+X+X+X+X+X+X+X+X+X+X+X+X+X+X+X..m.P.T./.).)..X}.{.Y.W./.W.K.A.A.m.X.+X+X+X+X+X+X+X+X+X+X+X+X+X+X+X",
"+X+X+X+X+X+X+X+X+X+X+X+X+X+X+X` +.A.L.P.R.^.!._.Q.(.T.Y.!._.R.L.J.C.#.+X+X+X+X+X+X+X+X+X+X+X+X+X+X+X",
"+X+X+X+X+X+X+X+X+X+X+X+X+X+X+X( l.J.P.U.Y.P.L.U.).].).[.}.'.!.L.J.C.x.+X+X+X+X+X+X+X+X+X+X+X+X+X+X+X",
"+X+X+X+X+X+X+X+X+X+X+X+X+X+X+X` v.K.P.L.P.H.H.P.!. XoX.X'._.W.L.J.A.x.+X+X+X+X+X+X+X+X+X+X+X+X+X+X+X",
"+X+X+X+X+X+X+X+X+X+X+X+X+X+X+X..m.L.P.U.P.P.A.v.C.!.}.'.'./.W.P.J.C.x.+X+X+X+X+X+X+X+X+X+X+X+X+X+X+X",
"+X+X+X+X+X+X+X+X+X+X+X+X+X+X+X( v.J.L.U.U.U.J.J.P.W._.'.!.T.U.J.m.m.$.+X+X+X+X+X+X+X+X+X+X+X+X+X+X+X",
"+X+X+X+X+X+X+X+X+X+X+X+X+X+X+XK @.v.C.A.L.P.K.L.U.R.T.T.P.L.J.C.x.x.o.+X+X+X+X+X+X+X+X+X+X+X+X+X+X+X",
"+X+X+X+X+X+X+X+X+X+X+X+X+X+X+XV ( { +.z.m.J.J.J.K.K.L.J.A.C.A.z.z.l.o.+X+X+X+X+X+X+X+X+X+X+X+X+X+X+X",
"+X+X+X+X+X+X+X+X+X+X+X+X+X+X+XF H ( ` ` $.b.c.c.v.D.G.G.S.l.l.z.l.$._ +X+X+X+X+X+X+X+X+X+X+X+X+X+X+X",
"+X+X+X+X+X+X+X+X+X+X+X+X+X+X+XF G Q ^ ' O.c.c.r.r.n.D.S.p.l.l.%.` ` ' +X+X+X+X+X+X+X+X+X+X+X+X+X+X+X",
"+X+X+X+X+X+X+X+X+X+X+X+X+XV M F H ] ^ K ] n.B.n.r.r.n.r.%.....^ ^ ..` +X+X+X+X+X+X+X+X+X+X+X+X+X+X+X",
"+X+X+X+X+X+X+X+X+X+X+X+X/ K M M W ) K K T O.d.n.t.} t.[ / ^ J J ' o.+.+X+X+X+X+X+X+X+X+X+X+X+X+X+X+X",
"+X+X+X+X+X+X+X+X+X+X+X+Xv./ C 5 F ] K J / e.t.t.s.r.r.O.^ J ^ ^ X.$.+.+X+X+X+X+X+X+X+X+X+X+X+X+X+X+X",
"+X+X+X+X+X+X+X+X+X+X+XH.i./ ^ +XM / K J K e.M.n.d.t.e.[ ^ _ _ ..#.@.+X+X+X+X+X+X+X+X+X+X+X+X+X+X+X+X",
"+X+X+X+X+X+X+X+X+X+X+XD.i./ _ +X: M K K T } M.B.v.O._ _ _ _ _ _ ..( +X+X+X+X+X+X+X+X+X+X+X+X+X+X+X+X",
"+X+X+X+X+X+X+X+X+X+X+XB.x./ K : + : M V H T O.p.t./ F C J ^ T K @.W W v.~.+X+X+X+X+X+X+X+X+X+X+X+X+X",
"+X+X+X+X+X+X+X+X+X+XZ.V.i.T 8 : , % B W W H Y W S C V F Y _ [ b.@.A W +.L.+X+X+X+X+X+X+X+X+X+X+X+X+X",
"+X+X+X+X+X+X+X+X+X+Xn.d.x.J 6 2 8 @ y Q  .| } ~ a a ! O.0.9.t.n.A 8 ( +.v.+X+X+X+X+X+X+X+X+X+X+X+X+X",
"+X+X+X+X+X+X+X+X+X+X<.w.i.F 8 5 g @ % Z b U 4.6.=.&.4.5.4.3.7.] , 7 ( +.$.+X+X+X+X+X+X+X+X+X+X+X+X+X",
"+X+X+X+X+X+X+X+X+X+X=.8.x.A M 6 2 o O g P ~ ~ ~ ;.&.U ! q.t.t.C @ : T ` { { +X+X+X+X+X+X+X+X+X+X+X+X",
"+X+X+X+X+X+X+X+X+X+Xt.V.z.V M , @ .   , G Q ] { :.*. .e.@.u.{ 7 @ +X8 F ` { B +X+X+X+X+X+X+X+X+X+X+X",
"+X+X+X+X+X+X+X+X+X+Xu.Z.$.V 8 : +X+X. @ h W ) ] ,.*.9.u.e.e.T > @ +X, N W ( H +X+X+X+X+X+X+X+X+X+X+X",
"+X+X+X+X+X+X+X+X+X+Xu.S.$.B N 2 + O X O 7 G ) [ ;.-.q.a.u.@.B & +X+X+XB K Q 9.+X+X+X+X+X+X+X+X+X+X+X",
"+X+X+X+X+X+X+X+X+X+X$.B.r.B N >   o X $ 4 j P E ,.,.6.0.~ P l = +X+X@ N H Q Q +X+X+X+X+X+X+X+X+X+X+X",
"+X+X+X+X+X+X+X+X+X+Xe.M.$.N 7 # +X+X+X+ * 4 r z c c c v f e s s +Xo # < h A H ' +X+X+X+X+X+X+X+X+X+X",
"+X+X+X+X+X+X+X+X+X+X} n.@.M 5 + O @ > N g y l j k k v P ~ } u.C +X0 ; * s S J Q +X+X+X+X+X+X+X+X+X+X",
"+X+X+X+X+X+X+X+X+X+X[ c.$.M 5 $ : , , A Q ] e.c.B.B.F.F.H.H.M.M - f m g.k.h.] ^ +X+X+X+X+X+X+X+X+X+X",
"+X+X+X+X+X+X+X+X+X+X+Xc.r.M i 5 V V , M Y Q u.B.F.H.F.F.F.F.i.5 % +Xy.g.j.f.k B +X+X+X+X+X+X+X+X+X+X",
"+X+X+X+X+X+X+X+X+X+X+Xr.r.g 8 +X+X@ : 2 S W { u.N.B.V.V.M.M.H : > +X+X1.2.n +X+X+X+X+X+X+X+X+X+X+X+X",
"+X+X+X+X+X+X+X+X+X+X+X0.r.M +X+XO O : % h H Q | p.M.M.a.a.p.7 , 7 , +X+X+X+X+X+X+X+X+X+X+X+X+X+X+X+X",
"+X+X+X+X+X+X+X+X+X+X+X! @.M +X+X% , , , 2 G W [ e.p.p.a.a.H & M V 7 % +X+X+X+X+X+X+X+X+X+X+X+X+X+X+X",
"+X+X+X+X+X+X+X+X+X+X+X+X@.i +XO , g B 8 , h H ] @.u.p.p.@.2 5 F ^ A , +X+X+X+X+X+X+X+X+X+X+X+X+X+X+X",
"+X+X+X+X+X+X+X+X+X+X+X+X( 5 V i 5 A F A 7 2 H ] | p.p.i.C @ 8 K G B 5 ( +X+X+X+X+X+X+X+X+X+X+X+X+X+X",
"+X+X+X+X+X+X+X+X+X+X+X+X5 , H / w j L Z u - h | u.a.p.+X* 1 j L L l Z +.u.+X+X+X+X+X+X+X+X+X+X+X+X+X",
"+X+X+X+X+X+X+X+X+X+X+X+X@ : H / u r x x t = +X+X+X+X+X+X$ = d x d e H ` ` ^ +X+X+X+X+X+X+X+X+X+X+X+X",
"+X+X+X+X+X+X+X+X+X+X+X+X+X: B V g 3 u u 3 1 +X+X+X+X+X+X+X1 3 w y y A H A +X+X+X+X+X+X+X+X+X+X+X+X+X",
"+X+X+X+X+X+X+X+X+X+X+X+X+X+X+X8 M V K F A 8 +X+X+X+X+X+X+X5 V F F V N g +X+X+X+X+X+X+X+X+X+X+X+X+X+X",
"+X+X+X+X+X+X+X+X+X+X+X+X+X+X+X+XM W ( ( / V +X+X+X+X+X+X, B K ` Q F +X+X+X+X+X+X+X+X+X+X+X+X+X+X+X+X",
"+X+X+X+X+X+X+X+X+X+X+X+X+X+X+X+X+XM F A M +X+X+X+X+X+X+X+X8 M J A +X+X+X+X+X+X+X+X+X+X+X+X+X+X+X+X+X",
"+X+X+X+X+X+X+X+X+X+X+X+X+X+X+X+X+X+X+X+X+X+X+X+X+X+X+X+X+X+X+X+X+X+X+X+X+X+X+X+X+X+X+X+X+X+X+X+X+X+X",
"+X+X+X+X+X+X+X+X+X+X+X+X+X+X+X+X+X+X+X+X+X+X+X+X+X+X+X+X+X+X+X+X+X+X+X+X+X+X+X+X+X+X+X+X+X+X+X+X+X+X",
"+X+X+X+X+X+X+X+X+X+X+X+X+X+X+X+X+X+X+X+X+X+X+X+X+X+X+X+X+X+X+X+X+X+X+X+X+X+X+X+X+X+X+X+X+X+X+X+X+X+X"
};
