/* XPM */
static char *result[] = {
/* columns rows colors chars-per-pixel */
"50 50 7 1 ",
"  c #72751B",
". c #7F8226",
"X c #7F8124",
"o c #787B21",
"O c #656C17",
"+ c #686F16",
"@ c white",
/* pixels */
"                                                  ",
"                              .                   ",
"                             .                  X ",
"                            oo                   X",
"                            ooO                 +o",
"                            OOo.                 +",
"                              oo                  ",
"                              OO                  ",
"                                                  ",
"         ..     .                                 ",
"          .oo o.                                  ",
"       o..OoOooO                                  ",
"        .ooOOooO                                  ",
"        Ooo  oO                         oXX       ",
"         Oo                              Xoo      ",
"                                         +oo      ",
"                                          ++      ",
"                                                  ",
"                                                  ",
"                                                  ",
"                                                  ",
"                                                  ",
"                                                  ",
"                                                  ",
"      oo                                          ",
"      +XX                                         ",
"       Xoo   o                                    ",
"       +oo Xo                                     ",
"       +oooXX            X                        ",
"        ++oo+           oo  XXo                   ",
"          ++         o  o+ ooX                    ",
"                      Xo+  oo+                    ",
"                      oo  oo+oX                   ",
"                       +  o+oo+                   ",
"                          ++o+                    ",
"                                                  ",
"                 XXo                              ",
"                  Xoo                             ",
"                  +oo                    XX    oo ",
"o                  ++                     Xoo XX  ",
"o                                      oXX+o+oo+  ",
"+                                       Xoo++oo+  ",
"                                        +oo  o+   ",
"      XX    oo                           +o       ",
"       Xo  oo                   XX                ",
"       +oo oo              o  ooX                 ",
"       +oo ++              XX+oo+                 ",
"        ++                 Xoo++                  ",
"                           +oo                    ",
"                                                  "
};
