/* XPM */
static char *_91abf6cfb434f659bdb01a11533f65354bzsJNFj29S7WR8[] = {
/* columns rows colors chars-per-pixel */
"40 40 139 2 ",
"   c None",
".  c #0D0303",
"X  c #140A0A",
"o  c #190F0F",
"O  c #1C1212",
"+  c #201717",
"@  c #241C1C",
"#  c #2A2223",
"$  c #2F2929",
"%  c #342C2C",
"&  c #382F2F",
"*  c #38302F",
"=  c #352F30",
"-  c #363131",
";  c #393334",
":  c #3F393A",
">  c #433C3C",
",  c #433F40",
"<  c #434040",
"1  c #4C4545",
"2  c #4E4A4B",
"3  c #524B4B",
"4  c #545152",
"5  c #5A5353",
"6  c #5E5B5C",
"7  c #625D5D",
"8  c #646263",
"9  c #6A6464",
"0  c #686768",
"q  c #6E6C6D",
"w  c #736E6F",
"e  c #706F70",
"r  c #747375",
"t  c #797779",
"y  c #7B7A7B",
"u  c #837E7E",
"i  c #817F81",
"p  c #848284",
"a  c #8A8686",
"s  c #878688",
"d  c #888789",
"f  c #8A898A",
"g  c #938E8E",
"h  c #918F91",
"j  c #959495",
"k  c #989698",
"l  c #9B999B",
"z  c #A39F9F",
"x  c #A19FA1",
"c  c #A5A3A4",
"v  c #A9A7A9",
"b  c #ADABAD",
"n  c #B1AFB1",
"m  c #B4B2B4",
"M  c #BAB7B7",
"N  c #B9B7B9",
"B  c #BCBABC",
"V  c #C0BEBE",
"C  c #C0BFC0",
"Z  c #C5C3C5",
"A  c #C8C6C7",
"S  c #C8C7C8",
"D  c #CDCBCD",
"F  c #D0CFD0",
"G  c #D5D4D5",
"H  c #D8D7D8",
"J  c #DCDBDC",
"K  c gainsboro",
"L  c #DDDCDC",
"P  c #DDDCDD",
"I  c #DEDDDE",
"U  c #DFDEDF",
"Y  c #DBDADB",
"T  c #E0DFDF",
"R  c #DFDFE0",
"E  c #E0DFE0",
"W  c #E0DFE0",
"Q  c #E1E0E1",
"!  c #E1E1E1",
"~  c #E2E1E1",
"^  c #E1E1E2",
"/  c #E2E2E2",
"(  c #E3E2E2",
")  c #E2E2E3",
"_  c #E3E2E3",
"`  c gray89",
"'  c #E4E3E4",
"]  c #E4E4E4",
"[  c #E4E4E5",
"{  c #E5E4E5",
"}  c gray90",
"|  c #E6E5E6",
" . c #E7E7E7",
".. c #E3E3E4",
"X. c #E8E7E8",
"o. c #E9E8E8",
"O. c #E9E9E9",
"+. c #EAE9EA",
"@. c #EAEAEA",
"#. c gray92",
"$. c #ECEBEC",
"%. c #ECECEC",
"&. c #EDECED",
"*. c gray93",
"=. c #EEEDEE",
"-. c #EEEEEE",
";. c #EFEEEF",
":. c #ECECED",
">. c gray94",
",. c #F1F0F0",
"<. c #F0F0F1",
"1. c #F1F1F1",
"2. c #F2F1F1",
"3. c #F2F1F2",
"4. c gray95",
"5. c #F3F2F2",
"6. c #F3F2F3",
"7. c #F3F3F3",
"8. c #F4F3F3",
"9. c #F4F4F4",
"0. c #F5F4F5",
"q. c gray96",
"w. c #F5F5F6",
"e. c #F6F6F6",
"r. c #F7F6F7",
"t. c gray97",
"y. c #F3F2F3",
"u. c #F7F7F8",
"i. c #F8F8F8",
"p. c #F9F8F9",
"a. c #F9F9F9",
"s. c gray98",
"d. c #FBFBFB",
"f. c gray99",
"g. c #FDFCFD",
"h. c #FDFDFD",
"j. c #FEFEFE",
"k. c white",
"l. c #FCFCFC",
/* pixels */
"                              . . . . . . . . . .                               ",
"                              % % % % % % % % % %                               ",
"                            > w a a a a a a a a w >                             ",
"                    + O X + 5 b T o.( T ( ( X.W b 5 + X O O                     ",
"                  & 3 4 4 5 i C ;.0.5.;.;.2.0.=.V u 5 3 5 3 &                   ",
"                X 1 g M V B V S D F D D D F D D A V B B M g 1 X                 ",
"              @ & 9 M 5.l.5.R S m n m m m m M B F @.s.k.,.M 9 % @               ",
"            @ 5 u x A W | W G C n b n b b n C F  .h.k.s.Q Z z u 7 #             ",
"          X % u D L D B B B N m m m m m m B G -.h.k.0.I Z D H D u % .           ",
"        & 1 9 z L Q Z m n n n n m B Z S Z F  .h.h.7.( G D H @.H a > + O         ",
"      O 2 g M A D Z M m n n n n N D Q #.O.%.a.k.7.H D H ] ] L B a 4 - @ O       ",
"      O 5 M 7.Q B m n m n m m m Z K 0.k.k.h.e.*.L A Z H ;.] S b s 8 < # o       ",
"    . O 5 B s.] M n n m n n B D K =.h.k.k.i.G n m D H J J F V v s 8 < # o X     ",
"      O 5 M 8.Q B n n m n m Z [ w.h.k.k.k.*.m i j D =.J Z N N v s 8 < # o       ",
"      O 5 B 7.Q B n n m B S H 7.k.k.k.s.1.K m j x D ' G N n m v f 8 , # o       ",
"      O 5 M 7.Q B n n N D [ <.f.k.k.k.>.H S S F F D S B m n m v f 8 , # o       ",
"      O 5 B 0.Q B n n B H 0.k.k.k.s.0.[ D Z G ^ K Z m m m m N v p 8 < # o       ",
"      O 5 M 8.Q B n b M H 0.k.k.s.@.H H H G Z N n b n n m m m v f 8 < # o       ",
"      O 5 M 2.Q B n n B H i.k.k.e.K Z D O.[ m i y l m m m m m v f 8 < # o       ",
"      O 5 B 2.T B m B G ] d.k.k.s.[ D H ] H l 0 q j n N m m N v f 8 < # o       ",
"      O 5 M 2.T N B G %.0.k.k.k.k.w.=.Q H B f 8 q j m m m m N v f 8 : # o       ",
"      O 5 M 0.] S D O.h.k.i.i.k.k.h.0.' D v p 8 e k n m n m m v f 8 < # o       ",
"      O 5 M i.<.R [ i.h.=.H Q <.s.>.I F B c p 8 e k n N m N N v f 8 > # o       ",
"      O 4 N h.k.i.i.k.w.I S D $.0.I Z N N v p 8 r k n N n m m v f 8 < # o       ",
"      O 5 m h.k.k.h.>.[ G D H 7.w.K N m m v p 8 e j m m m m N v f 8 < # O       ",
"      O 5 N l.k.h.<.H D G [ 7.k.w.K B m N v p 8 e j n N m m m v f 8 < # o       ",
"      O 5 M l.k.w.[ D Z H <.s.s.-.F m v v x p q y k m m m m m v f 8 < # o       ",
"    . O 5 B k.0.R G G Y H H H I F n f i i p p s j c n m m m N b f 8 < # o X     ",
"      O 5 M ,.Q Z D ) -.Y Z N B n h e 8 8 q p x b m m m m m m v d 8 , # o       ",
"      O 3 g M Z D G ) ) D m n m v h t q q t h n N m m m m n c h e 2 ; @ o       ",
"        * 1 9 z Y  .G S N m n n b c l j j l c n m m m N m c f q 2 % @ +         ",
"          X % u D R D B B B N m m m n m m m m m n b v b v h q 2 - + X           ",
"            @ 5 u z Z I ] W G Z N m N N N N N m v j f f f q 2 - # O             ",
"              @ % 9 M =.k.7.I Z m n n m n m N n l t 8 8 8 2 % O O               ",
"                X 1 g M V M n c l l l l l l l l i 6 < < > ; @ X                 ",
"                  & 3 5 5 5 7 q r t r r r r y r 6 : # # # # +                   ",
"                    O O o O $ , 4 4 4 4 4 4 4 4 < # O X O O                     ",
"                            O $ - ; - = % = - - $ @                             ",
"                              + + + + + + + + + O                               ",
"                              X X X X X X X X X X                               "
};
