/* XPM */
static char *ff2563c54c5e4d95a84f5c424a16ea9bQ6RUbLRBl5iwuiqO[] = {
/* columns rows colors chars-per-pixel */
"50 50 160 2 ",
"   c None",
".  c #4C250F",
"X  c #4C2611",
"o  c #4F2913",
"O  c #512B15",
"+  c #532F1A",
"@  c #55321C",
"#  c #5A361D",
"$  c #5D391F",
"%  c #573722",
"&  c #573823",
"*  c #5D3C23",
"=  c #5E3E29",
"-  c #613E23",
";  c #603E28",
":  c #5E412B",
">  c #644125",
",  c #64442B",
"<  c #69462C",
"1  c #67482C",
"2  c #6A4B2E",
"3  c #634630",
"4  c #664932",
"5  c #6C4D31",
"6  c #644E3C",
"7  c #684E38",
"8  c #704F33",
"9  c #6E5234",
"0  c #65513E",
"q  c #6B543E",
"w  c #715436",
"e  c #755837",
"r  c #735739",
"t  c #755A3A",
"y  c #795D3E",
"u  c #7B603F",
"i  c #675440",
"p  c #695642",
"a  c #6C5945",
"s  c #6D5C49",
"d  c #725B45",
"f  c #7A5F40",
"g  c #735E4A",
"h  c #7B6040",
"j  c #7C6040",
"k  c #7C6140",
"l  c #7D6140",
"z  c #7C6041",
"x  c #7C6141",
"c  c #7D6141",
"v  c #7D6240",
"b  c #7C6241",
"n  c #7D6241",
"m  c #7E6240",
"M  c #7E6241",
"N  c #7E6341",
"B  c #7F6341",
"V  c #7C6142",
"C  c #7D6142",
"Z  c #7D6143",
"A  c #7D6242",
"S  c #7D6342",
"D  c #7D6243",
"F  c #7D6343",
"G  c #7E6242",
"H  c #7E6342",
"J  c #7E6243",
"K  c #7F6243",
"L  c #7F6343",
"P  c #7F6442",
"I  c #7E6443",
"U  c #7D6344",
"Y  c #7F6344",
"T  c #7E6346",
"R  c #7F6444",
"E  c #7F6544",
"W  c #7E6445",
"Q  c #7F6545",
"!  c #7C6241",
"~  c #74624C",
"^  c #776652",
"/  c #796752",
"(  c #7B6A55",
")  c #7D6E5B",
"_  c #7F705D",
"`  c #806544",
"'  c #806445",
"]  c #816445",
"[  c #806545",
"{  c #826545",
"}  c #806645",
"|  c #816645",
" . c #816546",
".. c #816547",
"X. c #816646",
"o. c #816746",
"O. c #816747",
"+. c #806645",
"@. c #806648",
"#. c #816749",
"$. c #826748",
"%. c #826749",
"&. c #816848",
"*. c #836848",
"=. c #836949",
"-. c #83684A",
";. c #83694A",
":. c #836A4B",
">. c #846949",
",. c #856A48",
"<. c #85694A",
"1. c #856B4B",
"2. c #866B4B",
"3. c #856C4B",
"4. c #846A4C",
"5. c #856B4C",
"6. c #846B4D",
"7. c #866C4D",
"8. c #876C4D",
"9. c #876D4D",
"0. c #856C4E",
"q. c #866D4E",
"w. c #876D4E",
"e. c #846B4C",
"r. c #886D4C",
"t. c #886E4E",
"y. c #896F4E",
"u. c #896F4F",
"i. c #89704F",
"p. c #88704F",
"a. c #8A714F",
"s. c #8B724F",
"d. c #876F50",
"f. c #8A6F50",
"g. c #816E5A",
"h. c #897050",
"j. c #8A7151",
"k. c #8B7152",
"l. c #8B7252",
"z. c #8A7252",
"x. c #8C7353",
"c. c #8D7353",
"v. c #8D7455",
"b. c #8E7555",
"n. c #8E7556",
"m. c #8F7656",
"M. c #8F7657",
"N. c #82725D",
"B. c #917957",
"V. c #907758",
"C. c #917958",
"Z. c #927A59",
"A. c #957D5D",
"S. c #957E5D",
"D. c #847563",
"F. c #877863",
"G. c #897A65",
"H. c #897D6C",
"J. c #978061",
"K. c #8C8171",
/* pixels */
"                                                                                                    ",
"                                                                                                    ",
"                                      8 8 e 8 e e > 8 e e 8 e e                                     ",
"                            e e y 8 > r.s.c.f.r.{ $ m ,.r.r.r.r.- > 2 2 2                           ",
"                        t t 3.B.Z.r.- c.Z.Z.m.c.,.- { c.c.f.c.f.- 8 y y r 2 2 >                     ",
"                  8 2 > y.S.S.S.S.f.- <.c.c.r.r.r.- ] s.f.f.y.r.- w r.-.-.$.t > - <                 ",
"                e ] y < n.f.b.B.V.{ - e y e e y l - 8 y y y j j > w f Z d.6.*.2 < 8 ,               ",
"            < t { n.{ > { t *.*.] y > m m m y y l > e y m l l l 2 - 5 y h f *.2 w y 8 < *           ",
"            < ' c.k.t > e ] *...` y < y G G h h l < e m m m m y 2 e f ` y G h 2 r *.U 9 $           ",
"          < t 2.>.f w > e 3.$...{ y < y h h G G l 2 e m m m m m 2 t ' y G u y 5 9 h Z Q 9 >         ",
"          2 2.Z y t w < G ....Z ` u 2 u h G G h l 2 t B m m m m 2 t G f f u f 9 r f y b Q <         ",
"        5 f f.f t t w 2 G ` ..] { y 2 y h h f h l < y B m m l y 5 t G G f h h w r h h u 6.r : @     ",
"        5 2.y t t t w 2 ' ' ..] ` y 5 y h h h G u 2 y ` l m m m 8 t f f h h f w r u u u u p.2 O     ",
"        5 -.t t t y e 5 m ' ..f ' y 2 y h h h G m 2 u ` m m m m 8 r f y h f f r t u y u u p.4 o     ",
"        - 8 8 w 8 w 5 < t t y w e e 5 y y f u u u 2 B o.B B m u 8 8 w w t t t 2 9 r r r w e - o     ",
"        * , , < 2 2 2 8 5 5 8 -.g.8 2 y G y G u m 5 u o.u B u ' 2 4 6.g.5 5 4 2 4 , < < 1 > # o     ",
"        > / ( ( ) g.N.N.N.N.N.g.g.N.t w y h f u h 2 v ..u v v e y _ N.( N.N.( ( ( ( ( ( / / > .     ",
"        : a d ~ ~ ~ ~ ( ( ( ) ( g.g.f 8 r f d u u 2 v v v v y w b / ( ^ ( ^ ~ ~ ~ ~ ~ ~ s d : o     ",
"        # > : 1 2 1 1 4 9 4 4 ~ ~ 5 - t f y y u v 2 G E ` v G u - > h ~ 4 4 1 4 3 1 1 : : > # o     ",
"        @ # # # # * $ # $ * * : < ; 8 t f y f u h 2 h *.v v v u 5 : : : $ $ * $ * $ $ * $ $ @ o     ",
"        $ 9 9 9 9 9 2 > r r t 1 < 8 8 y y y d u h 2 v Q v v v G 5 9 2 : t r r 9 9 9 9 w 9 9 * o     ",
"        $ r r t e t 9 < u u h u w 5 8 y f y y f f 5 Q *.v v G G 2 e u u h h h r 9 t r t r r - o     ",
"        $ r r e e t 9 2 h d u h t 2 8 t t y t f h 2 Q Q b v u u 2 u h u u h u 9 9 r r w r r : o     ",
"        $ r w e e e 9 2 h y t y w 2 8 t y y y f y 2 v *.u h h u 7 t h h t u u 9 w r r r r r * o     ",
"        # r t e e r 9 5 u u t y t t 5 t y y t y y 2 Z ..G u u u 9 t G y t y y 9 9 r r 9 w r - X     ",
"        # r w e r r w 2 u u u t t t 5 t t t t t t < f f y u h u 9 t u y y y y 9 9 9 r r w r * O     ",
"        $ w r r r r w 2 y t t t t t 5 t t r 5 , < < 5 < 9 t u u r t u u t y t 9 9 9 9 r 9 r * O     ",
"        $ w r w w e 9 2 y r t r t r 5 t t < q G.F.F.D.F.d > y u 9 t u t y y y 9 9 r r 9 9 9 * o     ",
"        @ r r w w w w 9 y r e r r w 2 t t < < ~ ~ q ~ ~ 7 - y y 9 t u t t t t 5 5 9 9 9 9 w * o     ",
"        $ 9 9 r r w 9 9 y e r r r w 2 t t > : ~ a O q ~ 4 * t y 9 t u r t t t 2 2 9 9 9 9 9 * X     ",
"        @ r r r w r 9 9 y r r r r w 5 t t * * a t : q s : # e t 9 t u t t t t 2 2 9 9 9 9 q * o     ",
"        # 9 r r r r 9 9 h r r 2 2 r 2 r e < * = = : = * * - t r 2 t r 9 t u y 2 4 9 9 q 9 9 * o     ",
"        O : : > > : > > 1 > > r t , 2 e w w 4 * $ O $ $ , w e e 6 1 q h > 1 1 : - - * - * * + o     ",
"        $ q r q s t d ~ g ~ ~ ( _ ~ , r t r r 9 9 : 5 e q e e e 1 t _ ( ~ s t a a t a a q d * .     ",
"        $ s d ~ ~ ~ ~ / ( ( ( ( ( ( / 1 9 r r r w > 9 u e e w 1 / _ ^ ^ ^ ^ ~ ~ ~ ~ ~ ~ d s = .     ",
"        @ q q t s d ~ ~ ~ ~ ~ / ^ h : 2 9 r r r w : 9 w e e w 9 : q ~ ~ ~ ~ a t a a a t q q * .     ",
"        O @ O @ @ O @ @ @ @ @ 7 q @ : w r r r 9 w : 9 e w w e 9 : # 4 0 @ @ # @ @ @ @ @ @ + O o     ",
"        O : - - > > : $ < 1 < $ $ : > w r 9 r r e > 9 w w w e 9 > > * # > : : > * > - * - - + .     ",
"        # 2 9 9 9 9 2 * 9 r r 2 2 9 > 9 9 w r r 9 * 9 e 9 9 9 9 > 9 9 2 u e e > < 2 2 5 2 5 # o     ",
"        @ 9 9 9 9 9 2 : 9 9 9 9 w 9 , 9 r r 9 r 9 $ 2 w w 9 q 9 1 9 u w u e u : , 9 5 5 9 2 # .     ",
"        + 1 : 6 1 2 , : 1 4 2 4 4 3 * 3 2 2 4 < > @ : 1 1 4 1 2 * , 9 7 5 9 7 : * < : > > : @ X     ",
"        + : : : , , 1 4 1 , , 3 3 3 3 ; = , = 3 : O : 3 : 3 : : , 3 3 3 , , : : : : : : & = @ X     ",
"        : ( ) ) _ _ _ _ _ _ _ _ _ D.D._ D.D.D.H.D.@ ( K.K.F._ F.D._ _ _ _ ) _ _ _ _ ( _ _ _ : .     ",
"        # ~ ^ ^ ^ ^ ^ ^ ^ ^ ( ( ) ) ) ) ) ) _ D._ @ ~ F._ _ ) _ ) ) ^ ) ^ ( ^ ( ~ ^ ^ ^ ^ ^ : .     ",
"        @ 0 0 0 0 0 0 0 i i p a p a a p p a s s s @ i s s s s a s p a p i i i i 0 6 6 6 6 6 % .     ",
"        @ 0 0 0 0 i i i p p p p p a a a s s s s s @ a s s s s s a s a s a a i p 0 0 0 0 6 6 % .     ",
"        @ 0 0 0 i i a a p p p s p a a a a a s s s @ p ~ s s s s s s a a a i p i p p i i 0 0 % X     ",
"        o + + @ @ @ @ @ @ @ @ @ @ @ % @ @ % @ % % o @ @ @ @ @ $ @ @ @ @ @ @ @ @ @ @ @ @ + + o X     ",
"                                                                                                    ",
"                                                                                                    "
};
