/* XPM */
static char *result[] = {
/* columns rows colors chars-per-pixel */
"50 50 72 1 ",
"  c #4C240E",
". c #4D2610",
"X c #4F2913",
"o c #522C15",
"O c #522E18",
"+ c #573017",
"@ c #583217",
"# c #55311A",
"$ c #5A351B",
"% c #5E391E",
"& c #613A1E",
"* c #553622",
"= c #583721",
"- c #573924",
"; c #5C3B23",
": c #573C29",
"> c #5B3E2A",
", c #613D22",
"< c #5C412D",
"1 c #5C4532",
"2 c #5E4836",
"3 c #634126",
"4 c #694427",
"5 c #65452A",
"6 c #69462B",
"7 c #67492C",
"8 c #6B4A2D",
"9 c #624631",
"0 c #624934",
"q c #6C4D31",
"w c #624C3A",
"e c #714F32",
"r c #6D5134",
"t c #65503D",
"y c #6A523D",
"u c #735436",
"i c #735639",
"p c #765A3B",
"a c #795B3D",
"s c #695543",
"d c #6C5946",
"f c #6E5C49",
"g c #745C45",
"h c #795E42",
"j c #735E4A",
"k c #7D6243",
"l c #74614D",
"z c #7D664B",
"x c #756553",
"c c #7C6752",
"v c #7D6A54",
"b c #7A6B59",
"n c #816546",
"m c #816847",
"M c #816648",
"N c #856B4C",
"B c #886E4E",
"V c #87704F",
"C c #8A704F",
"Z c #896F51",
"A c #8B7353",
"S c #83725D",
"D c #8E7658",
"F c #8F7858",
"G c #907856",
"H c #937B5C",
"J c #947E61",
"K c #97805E",
"L c #98815F",
"P c #968063",
"I c #9B8565",
"U c None",
/* pixels */
"UUUUUUUUUUUUUUUUUUUUUUUUUUUUUUUUUUUUUUUUUUUUUUUUUU",
"UUUUUUUUUUUUUUUUUUUUUUUUUUUUUUUUUUUUUUUUUUUUUUUUUU",
"UUUUUUUUpiuq$UUUUUUUUUUUUUUUUUUUUUUUUUeuaaaUUUUUUU",
"UUUUUUU6mVkh$UUUUUUUUUUUUUUUUUUUUUUUUUeBABNeUUUUUU",
"UUUUUUqnNNkr$UUUUUUUUUUUUUUUUUUUUUUUUU6aCCCnuUUUUU",
"UUUUUU8ZANkq$UUUUUUUUUUUUUUUUUUUUUUUUUeaCGACuUUUUU",
"UUUUUUqACNk8@UUUUUUUUUUUUUUUUUUUUUUUUU6aALGAaUUUUU",
"UUUUUqAAAAzq$UUUUUUUUUUUUUUUUUUUUUUUUU6aAJHGAuUUUU",
"UUUUUqHDDkq0$UUUUUUUUUUUUUUUUUUUUUUUUU6anCIHHuUUUU",
"UUUUUeJDDkq8@UUUUUUUUUUUUUUUUUUUUUUUUU6akCIIHaUUUU",
"UUUUUqJDDkr7@UUUUUUUUUUUUUUUUUUUUUUUUUeakCIHHuUUUU",
"UUUUrBDDDkq7@UUUUUUUUUUUUUUUUUUUUUUUUU8anCIHHBuUUU",
"UUUUiJDDzrq7@UUUUUUUUUUUUUUUUUUUUUUUUU6annAJHJa,UU",
"UUUUiJDDprr7@UUUUUUUUUUUUUUUUUUUUUUUUU6anaBIJHa,UU",
"UUUUuJAZp887OUUUUUUUUUUUUUUUUUUUUUUUUUeannBJHDu&UU",
"UUUUuJAAp<;3oUUUUUUUUUUUUUUUUUUUUUUUUU,uaanIHDe&UU",
"UUUUqmhp%<9ooUUUUUUUUUUUUUUUUUUUUUUUUU44hzeNnn6&UU",
"UUUU5yir7;;%oUUUUUUUUUUUUUUUUUUUUUUUUU,8uigghg,,UU",
"UUUUqvvvd:$7oUUUUUUUUUUUUUUUUUUUUUUUUU&u86SSSSq&UU",
"UUUU7lll<%77oUUUUUUUUUUUUUUUUUUUUUUUUU&pheqzcc8+UU",
"UUUU,%%%38q<OUUUUUUUUUUUUUUUUUUUUUUUUU&unhe,44&$UU",
"UUUU3r888887OUUUUUUUUUUUUUUUUUUUUUUUUU&unnknau4+UU",
"UUUU7kkkr77<%UUUUUUUUUUUUUUUUUUUUUUUUU6uaknANm6+UU",
"UUUU5zkkr7,+w#UUUUUUUUUUUUUUUUUUUUUUU,c08nnBmN8+UU",
"UUUU7Mhhr7,O<OUUUUUUUUUUUUUUUUUUUUUUU&g78knCmz4oUU",
"UUUU5Maaq5,O<OUUUUUUUUUUUUUUUUUUUUUUU%g54akCkk4oUU",
"UUUU7zpar5%+<OUUUUUUUUUUUUUUUUUUUUUUU%g34akCkh4oUU",
"UUUU4khp83<,*UUUUUUUUUUUUUUUUUUUUUUUUU;8uaaVkh3oUU",
"UUUU4kpp833&OUUUUUUUUUUUUUUUUUUUUUUUUU@8uukChh3oUU",
"UUUU5kpp7<3<oUUUUUUUUUUUUUUUUUUUUUUUUU+7uuuNhh3.UU",
"UUUU<kpp733;oUUUUUUUUUUUUUUUUUUUUUUUUU+4equCpp;oUU",
"UUUU<kpi7%%;oUUUUUUUUUUUUUUUUUUUUUUUUU+,q8empp,XUU",
"UUUU<hii<%<#XUUUUUUUUUUUUUUUUUUUUUUUUUo@yy,mpp> UU",
"UUUU#433#%<XXUUUUUUUUUUUUUUUUUUUUUUUUUo&30y3;;@oUU",
"UUUU;lllt<O$OUUUUUUUUUUUUUUUUUUUUUUUUUO3,>jjjl>.UU",
"UUUU;lllt$X#1#UUUUUUUUUUUUUUUUUUUUUUUos>$;,jll3.UU",
"UUUU$yyy:##O<OUUUUUUUUUUUUUUUUUUUUUUUOw*%4;rsy:.UU",
"UUUUO#@@%$$-1XUUUUUUUUUUUUUUUUUUUUUUUO2<;44$$$ooUU",
"UUUU$rqr<+*21XUUUUUUUUUUUUUUUUUUUUUUUowf<#qpur%.UU",
"UUUU;hii3oO1-#UUUUUUUUUUUUUUUUUUUUUUUU-t;#rkpi;.UU",
"UUUU%hpy%$1<XUUUUUUUUUUUUUUUUUUUUUUUUU.2fw;kpp;.UU",
"UUUUX;$*O:11XUUUUUUUUUUUUUUUUUUUUUUUUUo0ltO%$$XXUU",
"UUUU=ffft2<XUUUUUUUUUUUUUUUUUUUUUUUUUUUO1xxdsd:XUU",
"UUUU:ldd21:XUUUUUUUUUUUUUUUUUUUUUUUUUUU.<cbssd;.UU",
"UUUU=ldd2<-XUUUUUUUUUUUUUUUUUUUUUUUUUUUU>fbsss- UU",
"UUUU-ldd2-XUUUUUUUUUUUUUUUUUUUUUUUUUUUUU 3bsss;.UU",
"UUUU=lddt-XUUUUUUUUUUUUUUUUUUUUUUUUUUUUU.>bsss:.UU",
"UUUU#:::*OUUUUUUUUUUUUUUUUUUUUUUUUUUUUUUU->:--#XUU",
"UUUUUUUUUUUUUUUUUUUUUUUUUUUUUUUUUUUUUUUUUUUUUUUUUU",
"UUUUUUUUUUUUUUUUUUUUUUUUUUUUUUUUUUUUUUUUUUUUUUUUUU"
};
