/* XPM */
static char *result[] = {
/* columns rows colors chars-per-pixel */
"50 50 246 2 ",
"   c #72751B",
".  c #72751A",
"X  c #727519",
"o  c #727518",
"O  c #72751D",
"+  c #73751F",
"@  c #737521",
"#  c #737625",
"$  c #757730",
"%  c #767738",
"&  c #76773A",
"*  c #767739",
"=  c #757738",
"-  c #747630",
";  c #737624",
":  c #717517",
">  c #72751E",
",  c #777846",
"<  c #797955",
"1  c #797959",
"2  c #797958",
"3  c #797957",
"4  c #777845",
"5  c #74762F",
"6  c #72751C",
"7  c #73761F",
"8  c #747629",
"9  c #77783F",
"0  c #7A7A59",
"q  c #7B7B6A",
"w  c #7C7B6E",
"e  c #7C7B6C",
"r  c #7C7B6B",
"t  c #7C7B6D",
"y  c #7B7B69",
"u  c #797A57",
"i  c #77783D",
"p  c #747628",
"a  c #73761E",
"s  c #747727",
"d  c #777933",
"f  c #797A42",
"g  c #7A7B53",
"h  c #7C7B65",
"j  c #7C7B70",
"k  c #7C7B73",
"l  c #7C7B72",
"z  c #7C7B71",
"x  c #7C7B6F",
"c  c #7C7B64",
"v  c #7A7B52",
"b  c #797A41",
"n  c #777832",
"m  c #747726",
"M  c #737620",
"N  c #777934",
"B  c #7C7C4D",
"V  c #7F7E60",
"C  c #7F7E69",
"Z  c #7D7C6D",
"A  c #7F7E68",
"S  c #7F7E5F",
"D  c #7B7C4A",
"F  c #767832",
"G  c #717518",
"H  c #737622",
"J  c #797A3C",
"K  c #7F7E5D",
"L  c #828173",
"P  c #818077",
"I  c #7E7D72",
"U  c #828172",
"Y  c #7E7E5A",
"T  c #787939",
"R  c #737621",
"E  c #717417",
"W  c #797A3F",
"Q  c #807F62",
"!  c #838178",
"~  c #82807A",
"^  c #7F7D73",
"/  c #7F7D74",
"(  c #82807B",
")  c #838177",
"_  c #7F7E5E",
"`  c #787A3B",
"'  c #717416",
"]  c #797A3E",
"[  c #7F7F60",
"{  c #838176",
"}  c #828079",
"|  c #7E7D73",
" . c #797A3D",
".. c #7F7F5F",
"X. c #838175",
"o. c #828078",
"O. c #838174",
"+. c #7F7E5C",
"@. c #78793A",
"#. c #807F60",
"$. c #838276",
"%. c #7B7B6D",
"&. c #7F7F5C",
"*. c #787A3A",
"=. c #808060",
"-. c #848277",
";. c #828179",
":. c #7B7A6D",
">. c #848276",
",. c #7F7F5D",
"<. c #797A3B",
"1. c #78793D",
"2. c #7E7E5E",
"3. c #828074",
"4. c #817F77",
"5. c #7D7C6F",
"6. c #817F78",
"7. c #828073",
"8. c #7E7D5B",
"9. c #757538",
"0. c #777655",
"q. c #7A786A",
"w. c #7C7A72",
"e. c #807F74",
"r. c #817F74",
"t. c #7D7B72",
"y. c #7B786A",
"u. c #787753",
"i. c #757636",
"p. c #737520",
"a. c #727517",
"s. c #727420",
"d. c #6F7031",
"f. c #6D6B48",
"g. c #6F6C5C",
"h. c #76736A",
"j. c #85847A",
"k. c #87857C",
"l. c #86857B",
"z. c #86847B",
"x. c #86857C",
"c. c #85837A",
"v. c #77746A",
"b. c #716E5D",
"n. c #6F6E48",
"m. c #717130",
"M. c #72741F",
"N. c #72761A",
"B. c #71731E",
"V. c #6C6C2B",
"C. c #66653B",
"Z. c #67634C",
"A. c #706D5E",
"S. c #7D7A6F",
"D. c #86837A",
"F. c #88867D",
"G. c #86847C",
"H. c #87847C",
"J. c #7D7B6F",
"K. c #726F5F",
"L. c #6A664E",
"P. c #69683B",
"I. c #6E6E2A",
"U. c #71741E",
"Y. c #737619",
"T. c #71741D",
"R. c #6D6E24",
"E. c #68672F",
"W. c #67653C",
"Q. c #6D6B4E",
"!. c #767461",
"~. c #7C796D",
"^. c #7D7B70",
"/. c #7D7A6E",
"(. c #7C7A6E",
"). c #7E7B6F",
"_. c #7E7B71",
"`. c #7D7A6D",
"'. c #777561",
"]. c #6F6D4F",
"[. c #69683D",
"{. c #6A6A2F",
"}. c #6E6F24",
"|. c #72741C",
" X c #6F721F",
".X c #6D6E23",
"XX c #6C6C2C",
"oX c #6C6B3C",
"OX c #6E6A59",
"+X c #6E6A5C",
"@X c #6E6A5B",
"#X c #6E6A5A",
"$X c #6E6B5B",
"%X c #706D5C",
"&X c #716D5D",
"*X c #706D5D",
"=X c #6F6C5B",
"-X c #6F6B5C",
";X c #706C5E",
":X c #706D5B",
">X c #6E6D3D",
",X c #6D6E2D",
"<X c #6E7024",
"1X c #70721F",
"2X c #707222",
"3X c #6B6B2F",
"4X c #666440",
"5X c #635F4A",
"6X c #625E4D",
"7X c #625E4C",
"8X c #635F4C",
"9X c #635F4B",
"0X c #625F4B",
"qX c #65614D",
"wX c #66624E",
"eX c #66634E",
"rX c #67634F",
"tX c #64604D",
"yX c #635F4D",
"uX c #65604F",
"iX c #66634D",
"pX c #696741",
"aX c #6D6E30",
"sX c #707221",
"dX c #737718",
"fX c #6B6B2A",
"gX c #63613A",
"hX c #5F5B44",
"jX c #5D5947",
"kX c #5E5A46",
"lX c #5E5A45",
"zX c #5F5B46",
"xX c #605C47",
"cX c #625D48",
"vX c #625E49",
"bX c #635E49",
"nX c #615D48",
"mX c #5F5A46",
"MX c #5F5B47",
"NX c #605C49",
"BX c #625F47",
"VX c #67653B",
"CX c #6D6E2A",
"ZX c #71741C",
"AX c #737618",
"SX c white",
/* pixels */
"                                                                                                    ",
"                                                                                                    ",
"                . . X X X X X X X X X X X X X X X X X X X X X X X X X X X X X X X X X . .           ",
"                . X X o o o o o o o o o o o o o o o o o o o o o o o o o o o o o o o X X .           ",
"                O + @ @ @ @ @ @ @ @ @ @ @ @ @ @ @ @ @ @ @ @ @ @ @ @ @ @ @ @ @ @ @ @ @ + O           ",
"          X o   # $ % & * * * * * * * * * * * * * * * * * * * * * * * * * * * * * & = - ;   o X     ",
"          o : > - , < 1 2 3 3 3 3 3 3 3 3 3 3 3 3 3 3 3 3 3 3 3 3 3 3 3 3 3 3 3 2 1 < 4 5 O : X     ",
"        6 6 7 8 9 0 q w e r r r r r r r r r r r r r r r r r r r r r r r r r r r t w y u i p a 6     ",
"    . . > s d f g h j k l z z z z z z z z z z z z z z z z z z z z z z z z z z z l k x c v b n m O X ",
"    X X M N B V C Z x j j x x x x x x x x x x x x x x x x x x x x x x x x x x x j j x Z A S D F 7 G ",
"    X G H J K L P I w w w w w w w w w w w w w w w w w w w w w w w w w w w w w w w w w I P U Y T R E ",
"    X G H W Q ! ~ ^ w t w w w w w w w w w w w w w w w w w w w w w w w w w w w w w t w / ( ) _ ` R ' ",
"    X G H ] [ { } | w w w w w w w w w w w w w w w w w w w w w w w w w w w w w w w w w ^ } { K ` R ' ",
"    X G H  ...X.o.I w w w w w w w w w w w w w w w w w w w w w w w w w w w w w w w w w ^ o.O.+.@.R ' ",
"    X G H  ...X.o.I w w w w w w w w w w w w w w w w w w w w w w w w w w w w w w w w w ^ o.O.+.@.R ' ",
"    X G H  ...X.o.I w w w w w w w w w w w w w w w w w w w w w w w w w w w w w w w w w ^ o.O.+.@.R ' ",
"    X G H  ...X.o.I w w w w w w w w w w w w w w w w w w w w w w w w w w w w w w w w w ^ o.O.+.@.R ' ",
"    X G H  ...X.o.I w w w w w w w w w w w w w w w w w w w w w w w w w w w w w w w w w ^ o.O.+.@.R ' ",
"    X G H  ...X.o.I w w w w w w w w w w w w w w w w w w w w w w w w w w w w w w w w w ^ o.O.+.@.R ' ",
"    X G H  ...X.o.I w w w w w w w w w w w w w w w w w w w w w w w w w w w w w w w w w ^ o.O.+.@.R ' ",
"    X G H  ...X.o.I w w w w w w w w w w w w w w w w w w w w w w w w w w w w w w w w w ^ o.O.+.@.R ' ",
"    X G H  ...X.o.I w w w w w w w w w w w w w w w w w w w w w w w w w w w w w w w w w ^ o.O.+.@.R ' ",
"    X G H  ...X.o.I w w w w w w w w w w w w w w w w w w w w w w w w w w w w w w w w w ^ o.O.+.@.R ' ",
"    X G H  ...X.o.I w w w w w w w w w w w w w w w w w w w w w w w w w w w w w w w w w ^ o.O.+.@.R ' ",
"    X G H  ...X.o.I w w w w w w w w w w w w w w w w w w w w w w w w w w w w w w w w w ^ o.O.+.@.R ' ",
"    X G H  ...X.o.I w w w w w w w w w w w w w w w w w w w w w w w w w w w w w w w w w ^ o.O.+.@.R ' ",
"    X G H  ...X.o.I w w w w w w w w w w w w w w w w w w w w w w w w w w w w w w w w w ^ o.O.+.@.R ' ",
"    X G H  ...X.o.I w w w w w w w w w w w w w w w w w w w w w w w w w w w w w w w w w ^ o.O.+.@.R ' ",
"    X G H  ...X.o.I w w w w w w w w w w w w w w w w w w w w w w w w w w w w w w w w w ^ o.O.+.@.R ' ",
"    X G H  ...X.o.I w w w w w w w w w w w w w w w w w w w w w w w w w w w w w w w w w ^ o.O.+.@.R ' ",
"    X G H  ...X.o.I w w w w w w w w w w w w w w w w w w w w w w w w w w w w w w w w w ^ o.O.+.@.R ' ",
"    X G H  ...X.o.I w w w w w w w w w w w w w w w w w w w w w w w w w w w w w w w w w ^ o.O.+.@.R ' ",
"    X G H  ...X.o.I w w w w w w w w w w w w w w w w w w w w w w w w w w w w w w w w w ^ o.O.+.@.R ' ",
"    X G H  ...X.o.I w w w w w w w w w w w w w w w w w w w w w w w w w w w w w w w w w ^ o.O.+.@.R ' ",
"    X G H  ...X.o.I w w w w w w w w w w w w w w w w w w w w w w w w w w w w w w w w w ^ o.O.+.@.R ' ",
"    X G H  ...X.o.I w w w w w w w w w w w w w w w w w w w w w w w w w w w w w w w w w ^ o.O.+.@.R ' ",
"    X G H  ...X.o.I w w w w w w w w w w w w w w w w w w w w w w w w w w w w w w w w w ^ o.O.+.@.R ' ",
"    X G H  ...X.o.I w w w w w w w w w w w w w w w w w w w w w w w w w w w w w w w w w ^ o.O.+.@.R ' ",
"    X G H  ...X.o.I w w w w w w w w w w w w w w w w w w w w w w w w w w w w w w w w w ^ o.O.+.@.R ' ",
"    X G H  ...X.o.I w w w w w w w w w w w w w w w w w w w w w w w w w w w w w w w w w ^ o.O.+.@.R ' ",
"    X G H ] #.$.} I w %.w w w w w w w w w w w w w w w w w w w w w w w w w w w w w %.w ^ } X.&.*.R ' ",
"    X G H ] =.-.;.I w :.:.t t t t t t t t t t t t t t t t t t t t t t t t t t t :.:.w ^ ;.>.,.<.R ' ",
"    X G H 1.2.3.4.I 5.w w x x x x x x x x x x x x x x x x x x x x x x x x x x x w w 5.^ 6.7.8.@.R E ",
"    X X @ 9.0.q.w.^ e.r.e.e.e.e.e.e.e.e.e.e.e.e.e.e.e.e.e.e.e.e.e.e.e.e.e.e.e.e.e.r.e.^ t.y.u.i.p.a.",
"    X X s.d.f.g.h./ j.k.l.z.z.z.z.z.z.z.z.z.z.z.z.z.z.z.z.z.z.z.z.z.z.z.z.z.z.z.l.x.c./ v.b.n.m.M.o ",
"    . N.B.V.C.Z.A.S.D.F.k.G.G.G.G.G.G.G.G.G.G.G.G.G.G.k.k.k.k.H.G.G.G.G.G.G.G.G.k.F.c.J.K.L.P.I.U.Y.",
"    . N.T.R.E.W.Q.!.~.^.S././././././././././.(././.J.).).).).).S./././././.(./.J._.`.'.].[.{.}.T.Y.",
"        |. X.XXXoXQ.OX+X@X#X#X#X#X#X#X#X#X#X#X#X#X$Xg.%X&X&X*X%X=X$X#X#X#X#X#X@X-X;X:X].>X,X<X1X6 . ",
"            |.2X3X4X5X6X7X8X8X8X8X8X8X8X8X8X9X0X9X8XqXwXeXrXwXwXtX8X9X9X8X9X0X8XyXuXiXpXaXsX6       ",
"          Y.dXT.fXgXhXjXkXlXlXlXlXlXlXlXlXlXlXlXlXzXxXcXvXbXvXnXxXmXlXlXlXlXlXlXMXNXBXVXCXZXAXY.    "
};
