/* XPM */
static char *_4e7a3257d3a45c6d9adce5fadf61d0anI5HN7jAHhSgO3E6[] = {
/* columns rows colors chars-per-pixel */
"50 50 146 2 ",
"   c None",
".  c #000000",
"X  c #080706",
"o  c #0B0907",
"O  c #05050A",
"+  c #090608",
"@  c #0C0B0A",
"#  c #110E0C",
"$  c #13100E",
"%  c #070711",
"&  c #070813",
"*  c #080915",
"=  c #0A0B19",
"-  c #150D12",
";  c #141413",
":  c #191512",
">  c #1D1915",
",  c #191A19",
"<  c #23151E",
"1  c #231E19",
"2  c #1F201F",
"3  c #27211C",
"4  c #0E0F23",
"5  c #0F1025",
"6  c #11122B",
"7  c #141632",
"8  c #161837",
"9  c #171939",
"0  c #181A3C",
"q  c #2B1B26",
"w  c #311E2B",
"e  c #242424",
"r  c #2E2720",
"t  c #2F2821",
"y  c #2C2C2C",
"u  c #342C25",
"i  c #382F27",
"p  c #383027",
"a  c #393129",
"s  c #3C2435",
"d  c #40362D",
"f  c #43392F",
"g  c #44293C",
"h  c #482C3F",
"j  c #463B31",
"k  c #4A3E34",
"l  c #4D4136",
"z  c #52463A",
"x  c #56493C",
"c  c #5A4C3F",
"v  c #1B1D43",
"b  c #1D1F48",
"n  c #1F214D",
"m  c #212454",
"M  c #25275C",
"N  c #25285D",
"B  c #262A60",
"V  c #292B66",
"C  c #2B2E6C",
"Z  c #2E3172",
"A  c #31357B",
"S  c #4C2E43",
"D  c #55334A",
"F  c #5A364F",
"G  c #5B3750",
"H  c #5D3852",
"J  c #5C4E41",
"K  c #5E5042",
"L  c #625445",
"P  c #6B5B4C",
"I  c #756452",
"U  c #796655",
"Y  c #7C6A57",
"T  c #7F6C59",
"R  c #826E5C",
"E  c #86725E",
"W  c #8A7661",
"Q  c #8E7963",
"!  c #917B66",
"~  c #957E69",
"^  c #97806A",
"/  c #9A826B",
"(  c #9E8670",
")  c #A28A72",
"_  c #A88F77",
"`  c #AC927A",
"'  c #B1967D",
"]  c #B4997F",
"[  c #333780",
"{  c #353884",
"}  c #363A88",
"|  c #393D8D",
" . c #3B3F92",
".. c #3C4197",
"X. c #3E439B",
"o. c #4145A1",
"O. c #4348A7",
"+. c #4347A8",
"@. c #454AAB",
"#. c #474CB2",
"$. c #484EB5",
"%. c #4A4EB8",
"&. c #4C51BD",
"*. c #4F55C6",
"=. c #4F54C5",
"-. c #4D53C2",
";. c #5055C7",
":. c #5156CA",
">. c #5257CC",
",. c #5358CE",
"<. c #5359D0",
"1. c #545AD2",
"2. c #555BD5",
"3. c #555BD6",
"4. c #575DDA",
"5. c #575DDB",
"6. c #585EDC",
"7. c #595FDF",
"8. c #5B61E3",
"9. c #5A60E1",
"0. c #5B61E4",
"q. c #5C62E5",
"w. c #5C62E6",
"e. c #5C62E7",
"r. c #5D63E8",
"t. c #5D63E9",
"y. c #5E64EB",
"u. c #BA9E84",
"i. c #BCA085",
"p. c #C2A589",
"a. c #C3A589",
"s. c #C7A98D",
"d. c #C8AA8E",
"f. c #CAAB8E",
"g. c #CDAE91",
"h. c #CFB092",
"j. c #D0B093",
"k. c #D4B395",
"l. c #D6B698",
"z. c #D7B698",
"x. c #D8B799",
"c. c #DAB99A",
"v. c #DBBA9B",
"b. c #DDBB9C",
"n. c #DEBD9D",
"m. c #DBBA9B",
/* pixels */
"                                                                                                    ",
"                                                                                                    ",
"                                                          . . .             .                       ",
"                                                    . . . . . .     . . . . .                       ",
"                                                . . . . . . . . . . . . O . .                       ",
"                                    . . . . . . . . 8 C & . . . . = b { V . .                       ",
"                                . . . . . . . . 7 A :.A . . . 6 B | &.t.A . . . . .                 ",
"                      . .   . . . . . . . O 7 Z $.7.,.5 O 8 Z X.o.-.7.t.C . . . . .                 ",
"                    . . . . . . 4 6 = 6 m [ #.1.0.t.o.n [ o.o.o.;.8.e.8.b . . . . .                 ",
"                  . . . . . . 5 ..$.;.>.,.4.8.e.e.e.4.;.$.O.O.,.e.e.e.3.6 . . O . . .               ",
"                . . . . . . * A &.q.q.y.8.8.e.e.e.e.e.e.8.6.9.e.e.e.e.-.* . b N . . .               ",
"              . . % M & . . N o.;.y.e.,.$.7.e.e.e.e.e.e.q.e.e.e.e.e.t.o.* A @.6 . . . .             ",
"            . . . N o.8 . 4  .o.$.4.&.o.O.7.e.e.e.$.$.t.q.q.q.y.e.e.e.@.+.-.9 . . . . . . . . .     ",
"            . . . A o.N . B o.o.o.O.o.o.O.4.e.t.&.6 5 %.y.q.e.e.e.e.e.e.y.-.o.X.0 . . . . .         ",
"            . . . M o.{ 7  .o.o.o.o.o.C A 1.t.,.0 . . 7 &.;.2.q.t.t.%.3.t.y.3.B . . .               ",
"              . . b o.X.{ o.o. ...o.A % = o.4.m . . . . 6 5 n :.-. . .9 { #.0 . . .                 ",
"              . . n o.o.o.o.A 5 0 [ 5 . . 6 m . . a k . . . . 7 n O m 4 . * . . . .                 ",
"        . . . . . 0 o.o.o.{ = . . * . . . . . . X z P ; . . . . . . . O . . . . . .                 ",
"          . . . . & B X.o.v . . . . . u k . . . . @ X X . r P o . . . . . . . X . . .               ",
"              . . . . 0 A & . : r . : ` d.r . @ e y y , O : ) ! : . . @ X . @ j X . .               ",
"            . . . # . . * . . z i.j W n.` $ @ y y y y y e . p p.u . , y e @ . : X . . .             ",
"            . . @ P u . . . . I n.j.l.n.P . , y y y y y y ; o P o ; y y y y ; . . . .               ",
"            . . $ W Q t . . . ! n.c.c.c.z . , e a y y , @ ; . u . ; y y y , ; . . . .               ",
"            . . $ E / R > . X ^ n.c.c.v.c . , e y y y e e , X k X ; e y y y , . . . .               ",
"            . . o T / / P @ @ E d.c.c.n.Q . # 2 y y y y y @ : ( 3 . , e y e O @ @ . .               ",
"            . . . L / / / l : E ) h.v.v.f.a . , 2 e e y , . P n./ , . @ @ X : P $ . .               ",
"              . . u ^ / / ! x ! / ) h.v.v.] u . % ; @ O X c h.v.v.` L a u J ` U . . .               ",
"              . . @ I / / / ^ ^ / / ) f.c.n.a.U p 1 3 j Q k.v.c.c.b.c.j.j.n.g.r . .                 ",
"                . . u ! / / / / / / ^ ( p.l.v.b.k.d.f.l.n.v.c.c.c.c.c.c.b.c.P . . .                 ",
"                . . . l ^ / / / / / / / / ' h.c.c.v.v.c.v.v.l.l.c.c.c.c.b.~ # . .                   ",
"                  . . X z ^ ( / / / / / / ^ ( i.k.c.v.l.i.! U P ( c.v.b./ : . .                     ",
"                    . . . f E / / ^ / / / / / / ) u.f.u._ i.h.i.( l.j.T $ . .                       ",
"                      . . . 1 P ! / / / / / / / / / / ` a.k.c.n.c.` k . . .                         ",
"                        . . . X u L W / / / / / / / / / / ) ) ! x $ . . .                           ",
"                            . . . . : p x P Y E E E R I K d > X . . .                               ",
"                                . . . . . X o # $ # o X . . . . .                                   ",
"                . . . . . . .       . . . . O . . . . + @ O . .     . . . . . . .                   ",
"              . . . . . . . . . .   . . O q s g g g S S h + . . . . . . . . . . . . .               ",
"            . . . . . . . . . . .   . . . q g G G G G H g . . . . . . . . . . . . . .               ",
"              . . . . . . . . . . .   . . < g D G F G H < . .     . . . . . . . . . . .             ",
"              . . . . . . . . . .     . . - s D F F F S + . .     . . . . . . . . . .               ",
"                . . . . . . . . .     . . O w S G G D q . .         . . . . . . . . .               ",
"                . . . . . . . .         . . o q g g < . . .         . . . . . . . .                 ",
"                    . . . . .           . . . . O . . . .               . . . . .                   ",
"                                            . . . . . .                                             ",
"                                    . . .             . . . .                                       ",
"                                    . . . . . .       . . . . . .                                   ",
"                                  . . . . . . . .     . . . . . . .                                 ",
"                                                                                                    ",
"                                                                                                    "
};
