/* XPM */
static char *_b29d7b10fe4470fe3401fff9e88f5e80YVFiW8N9PTvunjE[] = {
/* columns rows colors chars-per-pixel */
"50 50 188 2 ",
"   c None",
".  c #161616",
"X  c gray11",
"o  c #171718",
"O  c #252423",
"+  c #292827",
"@  c #2D2C2B",
"#  c #282726",
"$  c #332922",
"%  c #342C28",
"&  c #32312F",
"*  c #3B342D",
"=  c #343432",
"-  c #383532",
";  c #3A3936",
":  c #3D3C3B",
">  c #34343B",
",  c #5C110E",
"<  c #581612",
"1  c #4A1916",
"2  c #680F0B",
"3  c #69110D",
"4  c #7B130E",
"5  c #791B15",
"6  c #412D1F",
"7  c #57211E",
"8  c #63201C",
"9  c #73201A",
"0  c #442F21",
"q  c #4E2C28",
"w  c #42352A",
"e  c #423A35",
"r  c #4B3B36",
"t  c #413E3B",
"y  c #4C3E3A",
"u  c #5B3E3C",
"i  c #583833",
"p  c #712F2A",
"a  c #62332E",
"s  c #68312C",
"d  c #72312C",
"f  c #783A35",
"g  c #43423E",
"h  c #4E433F",
"j  c #56433E",
"k  c #67413F",
"l  c #454444",
"z  c #4A4642",
"x  c #4B4A45",
"c  c #4C4C4B",
"v  c #524F4B",
"b  c #544944",
"n  c #55534D",
"m  c #5B514B",
"M  c #4E4F50",
"N  c #4E525A",
"B  c #545453",
"V  c #5A5552",
"C  c #5B5A56",
"Z  c #5C5C5B",
"A  c #634A45",
"S  c #684946",
"D  c #7C4F4A",
"F  c #784745",
"G  c #66524F",
"H  c #76544E",
"J  c #6C5B54",
"K  c #635F59",
"L  c #655A55",
"P  c #755953",
"I  c #63615C",
"U  c #69635D",
"Y  c #74675F",
"T  c #646463",
"R  c #696763",
"E  c #6D6A65",
"W  c #6C6C6A",
"Q  c #716B65",
"!  c #736D69",
"~  c #6E706F",
"^  c #74716C",
"/  c #7B746D",
"(  c #7E786F",
")  c #6F7172",
"_  c #747472",
"`  c #7B7672",
"'  c #7C7A75",
"]  c #7C7D7B",
"[  c #870E08",
"{  c #84150F",
"}  c #8D1A15",
"|  c #961B16",
" . c #9F241F",
".. c #812B26",
"X. c #9D2622",
"o. c #86332D",
"O. c #95312D",
"+. c #9B3B36",
"@. c #9E463F",
"#. c #A4443F",
"$. c #834845",
"%. c #954A45",
"&. c #8C524B",
"*. c #935C56",
"=. c #A2504B",
"-. c #866A66",
";. c #83736D",
":. c #9A766D",
">. c #847C74",
",. c #827E7B",
"<. c #877973",
"1. c #9E7B75",
"2. c #AA6A65",
"3. c #AA6E69",
"4. c #A16C67",
"5. c #AA756D",
"6. c #7F807F",
"7. c #84827D",
"8. c #8A847B",
"9. c #8C857B",
"0. c #91897F",
"q. c #B78777",
"w. c #7F8181",
"e. c #838382",
"r. c #8C8583",
"t. c #8C8B84",
"y. c #8C8C8A",
"u. c #938C83",
"i. c #908F8C",
"p. c #9B8A83",
"a. c #8F908D",
"s. c #94928C",
"d. c #9A958C",
"f. c #969187",
"g. c #8F9090",
"h. c #939492",
"j. c #9A9791",
"k. c #9B9A94",
"l. c #9C9D9B",
"z. c #A88F89",
"x. c #B7908C",
"c. c #A19C94",
"v. c #A09F9B",
"b. c #B19792",
"n. c #B78883",
"m. c #9FA09F",
"M. c #A4A39D",
"N. c #A8A49E",
"B. c #9FA0A1",
"V. c #A3A4A3",
"C. c #AAA9A4",
"Z. c #ADADAB",
"A. c #ADA6A1",
"S. c #B3AAA5",
"D. c #BAAAA5",
"F. c #AFB0AF",
"G. c #B2B1AD",
"H. c #B4B4B3",
"J. c #B9B6B2",
"K. c #BAB9B6",
"L. c #BCBCBC",
"P. c #B7B8B7",
"I. c #C0BFBB",
"U. c #C3C2BD",
"Y. c #C8C2BD",
"T. c #BFBEC2",
"R. c #C4C4C3",
"E. c #C9C7C2",
"W. c #CBCAC6",
"Q. c #CECDCB",
"!. c #C8C7CB",
"~. c #D0CFCB",
"^. c #D2D1CD",
"/. c #D1CED2",
"(. c #D3D3D3",
"). c #D7D4D8",
"_. c #D9D6DA",
"`. c #DDDCDD",
"'. c #E0DFDF",
"]. c #E0E0DF",
"[. c #E1DEE1",
"{. c #E2E1E2",
"}. c #ECEBEC",
"|. c #E9E7E9",
" X c #F0EFF0",
".X c #EFF0F0",
"XX c #F3F1F3",
"oX c #FEFEFF",
/* pixels */
"                                                                                                    ",
"                                                          R.)./._._.[._._.(.!.                      ",
"                                                      L.R.(./.!._.[.{._././.(./.T.                  ",
"                                                    B.(.'._.(.(.].|.{.).).).[.[.).P.                ",
"                                                  ] v.`.}.}. X X}.|..X}.}.}.XX}.(.H.g.              ",
"                                                e.y.V.T.'.|. X[.!.(..XoXoXoXXX`.Q.F.h.              ",
"                                                w.l.R.T.C.Z.R.~.R./.].|.`.(./.R.T.Z.y.w.            ",
"                                              w.y.H.T.L.V.P.~.(.^.R.Q.R.T.L.L.P.H.Z.l.] )           ",
"                                              _ l.L.R.R.H.P.H.R.R.P.P.H.Z.F.L.R.L.H.V.h.e.          ",
"                                              ] B.P.T.R.R.F.V.P.H.H.H.F.F.H.H.L.I.H.Z.v.h.          ",
"                                              _ g.F.T.R.I.I.L.F.Z.h.Z.F.B.Z.H.P.L.H.Z.V.B.          ",
"                                            5.J ~ h.H.R.T.L.Z.V.B.B.C.B.l.V.F.H.H.Z.v.k.j.          ",
"                                            :.z > N W y.l.l.g.g.t.g.B.l.V.V.M.j.h.y.t.p.r.          ",
"                                          q.` W M : * = B e._ _ 6.e.y.w.e.w.6.6.,.8.9.0.7.          ",
"                                          L ] r.-.] W Z T E W W ) ) W R R W ^ ! >.9.>.( )           ",
"                                          V ` <.$.w.7.] ,.W T T Z T Z B C R Q Q <.>./ ^ W           ",
"                                          V D $.F ) w.w.,.E Z Z T T T Z E / >.>.u.u.;.^ )           ",
"                                          Z ! $.p F D ;.` T Z Z Z B T W Q / >.u.f.>.Q Q W           ",
"                                          Z ~ F S J P ;.` T T W T ~ _ ` / >.u.p.d.>.Q E             ",
"                                          B T S A T _ ,.` W W T W ~ ! _ ' 8.9.f.p.<.Q T             ",
"                                          B T u S T W <._ Z N B B M B Z E ( 8.0.>.K B               ",
"                                          c Z u G ! W U V c B V Z C B c c v E /                     ",
"                                            c l x M t > : c Z y.P.Z.r.T c c C Y                     ",
"                                                    y l l Z v.!.^.^.^.K.e.B B m                     ",
"                                                    M l Z M.W.Q.~.~.~.^.^.C.I c M                   ",
"                                                M c l W Z.E.E.Q.^.^.~.~.~.Q.H.^ l c                 ",
"        oXoXoXoXoXoXoXoXoXoXoXoXoXoX|.    B v x x I g.S.D.Y.E.W.~.~.Q.Q.U.Y.Y.J._ l l               ",
"      oXoXoXoXoXoXoXoXoXoXoXoXoXoXL.W c g l n E i.A.D.3.=.J.I.R.Y.W.Q.E.3.x.U.U.H.W g l             ",
"    XX}.|.{.].].].].].].`._._.(.H.g @ c ^ 8.s.m.N.1.@.O.| 5.H.L.U.Y.U.q. .#.3.S.J.M.C :             ",
"      ].`.(.(.(.(.(.(.(.^./.^.Q.P.: t 7.0.0.f.f.j.j.u.*.} | 4.N.C.A.2. . .2.b.S.G.G.s.l :           ",
"          {.].].].                  O K 8.;.9.9.0.0.f.f.:.O.} %.4.@.| @.z.G.Z.N.C.C.C.^ ;           ",
"                                    o @ I Q / / / 7.7.8.7.<.d [ [ { *.d.M.M.M.N.M.M.N.j.M =         ",
"                                      o + x I U U Y E Q P f 5 5 5 { &.9.d.d.j.k.k.k.k.k.6.;         ",
"                                          X = n n j i 7 , < a J J p { ..*.0.f.s.d.d.s.k.0.v =       ",
"                                            . O ; h r 1 w b n C C I k 9 4 k 9.0.0.0.s.k.k.^ =       ",
"                                                . O ; e h x x x v m I G s 2 9 P 6.9.t.s.s.i.x       ",
"                                                    . O @ ; g h h h v n V j 8 3 p Y 8.0.f.s.I &     ",
"                                                        ; + O & : g g g h m j j , 3 p D ;.f.6.=     ",
"                                                        v l & + O O & = g g h h i < a J ( 0.E &     ",
"                                        j.k.k.y.6.E I C x : ; = = & + + @ @ ; : g e h I E I ; +     ",
"                                        ~ ^ ~ E R B g ; h U U V g & & & g       + % & = & O X       ",
"                                          & & = ; = + + $ k J Y I & * e w                           ",
"                                                          m I I V $ 6 6 6                           ",
"                                                        Q V n n g $ * * e                           ",
"                                        j.k.s.t.7.7.e._ ' R C l : : t g M                           ",
"                                        y.M.m.m.k.k.k.s.y.y.' I I x g l v                           ",
"                                        E t.t.m.m.M.l.s.7.~ I C B x : =                             ",
"                                            E _ _ ^ R Z M x                                         ",
"                                                                                                    ",
"                                                                                                    "
};
