/* XPM */
static char *bc97b16f81b3430dfc13bd1abc4bd820kW2UIo15LpTgmO2V[] = {
/* columns rows colors chars-per-pixel */
"50 50 198 2 ",
"   c None",
".  c #0D0C0C",
"X  c #15110D",
"o  c #131312",
"O  c #1B1613",
"+  c #181817",
"@  c #1C1C1B",
"#  c #140E0A",
"$  c #211E1C",
"%  c #261B12",
"&  c #23211E",
"*  c #2B231A",
"=  c #32251B",
"-  c #392C1A",
";  c #242423",
":  c #282726",
">  c #2A2826",
",  c #2C2C2A",
"<  c #312F2D",
"1  c #382C24",
"2  c #33312E",
"3  c #39332E",
"4  c #343432",
"5  c #3C3630",
"6  c #3A3936",
"7  c #3D3D3B",
"8  c #43361A",
"9  c #422F22",
"0  c #463224",
"q  c #4C3927",
"w  c #513827",
"e  c #533B2A",
"r  c #5A3F2B",
"t  c #423A33",
"y  c #413F3B",
"u  c #5D412E",
"i  c #41413E",
"p  c #4C443A",
"a  c #5A4434",
"s  c #5E4A3B",
"d  c #554335",
"f  c #67532A",
"g  c #634530",
"h  c #644F3F",
"j  c #6E4735",
"k  c #444442",
"l  c #484743",
"z  c #4A4946",
"x  c #4C4C4B",
"c  c #5E4541",
"v  c #544D47",
"b  c #4F504F",
"n  c #53524E",
"m  c #59544D",
"M  c #5A5346",
"N  c #545453",
"B  c #595652",
"V  c #5B5955",
"C  c #5C5C5B",
"Z  c #575859",
"A  c #695545",
"S  c #665243",
"D  c #79564A",
"F  c #615D56",
"G  c #625F59",
"H  c #685D56",
"J  c #7D5B53",
"K  c #734C45",
"L  c #63615D",
"P  c #69655E",
"I  c #6A6257",
"U  c #72655C",
"Y  c #7F6A5D",
"T  c #78685C",
"R  c #766F51",
"E  c #5C5E60",
"W  c #5F6060",
"Q  c #646463",
"!  c #6A6762",
"~  c #6C6A64",
"^  c #666969",
"/  c #6C6C6C",
"(  c #666768",
")  c #716D65",
"_  c #7B6C62",
"`  c #716E6A",
"'  c #6F706F",
"]  c #74726C",
"[  c #7A746D",
"{  c #7A746B",
"}  c #747473",
"|  c #7A7771",
" . c #7C7B74",
".. c #767778",
"X. c #7B7C7A",
"o. c #777A7C",
"O. c #8E1E18",
"+. c #8B221D",
"@. c #8C2721",
"#. c #8D3029",
"$. c #85322D",
"%. c #903028",
"&. c #8F3832",
"*. c #87423B",
"=. c #997B3C",
"-. c #89763E",
";. c #824D45",
":. c #835346",
">. c #82534B",
",. c #835849",
"<. c #855C54",
"1. c #935650",
"2. c #8C665E",
"3. c #8C6B62",
"4. c #826A61",
"5. c #81746B",
"6. c #867669",
"7. c #827D75",
"8. c #817E79",
"9. c #887F76",
"0. c #7F807F",
"q. c #AC893F",
"w. c #888049",
"e. c #B79546",
"r. c #848077",
"t. c #86827A",
"y. c #8A857C",
"u. c #8D897F",
"i. c #91877D",
"p. c #E7BE5C",
"a. c #E0C261",
"s. c #FBDE7A",
"d. c #FAE17A",
"f. c #7C7F82",
"g. c #7F8282",
"h. c #838483",
"j. c #8A8680",
"k. c #8D8982",
"l. c #8B8C8C",
"z. c #878887",
"x. c #928C83",
"c. c #949086",
"v. c #95928A",
"b. c #9B948B",
"n. c #9D998E",
"m. c #9B9187",
"M. c #8C8F91",
"N. c #949594",
"B. c #9D9A92",
"V. c #9B9B9B",
"C. c #989998",
"Z. c #A08E87",
"A. c #A29D93",
"S. c #A19F9C",
"D. c #A99F97",
"F. c #A1978C",
"G. c #A5A196",
"H. c #AAA59B",
"J. c #A6A19A",
"K. c #9FA1A2",
"L. c #A3A3A3",
"P. c #A7A8A7",
"I. c #ABA9A4",
"U. c #ACACAC",
"Y. c #B3AEA3",
"T. c #AFB0AF",
"R. c #B5B0A4",
"E. c #B1B0AF",
"W. c #AFAFB0",
"Q. c #B4B4B3",
"!. c #B8B8B7",
"~. c #BBBBBA",
"^. c #C0BEBF",
"/. c #C1C0BF",
"(. c #C4C4C4",
"). c #CCCCCB",
"_. c #C8C8C7",
"`. c #CFD0CF",
"'. c #D2D2CF",
"]. c #D3CFD2",
"[. c #D3D2D3",
"{. c #D8D6D6",
"}. c #DDDCDD",
"|. c #D8D7D8",
" X c #E0DEDF",
".X c #E3E2DF",
"XX c #DEDFE1",
"oX c #E5E2E3",
"OX c #E8E6E7",
"+X c #E7E6E9",
"@X c #ECEAEA",
"#X c #E9E6E8",
"$X c #F1EEEE",
"%X c #F2F0EE",
"&X c #F2EFF1",
"*X c #F5F3F4",
"=X c #FCFBFC",
"-X c #F9F8F9",
/* pixels */
"                                                                                                    ",
"                                                                                                    ",
"                                                                                                    ",
"                                    `.}.}.}.oX}.[.).].].{.|.].].].                                  ",
"                                V.^.}.$X*X&X*XOXoX}.oXoXOX@X@X@X@X@X[.                              ",
"                              z.(.*X=X=X*X&X#X#X@X{.}.OX#X*X*X*X*X-XoXW.                            ",
"                              h.Q.#X=X=X=X*X*X-X$XoXXXoX#X*X*X$X*X+X(.P.z.                          ",
"                            } h.U.^.[.XX*X@X#X=X=X-X+X[.@X=X#X].(.Q.V.C.M.                          ",
"                          ' ' z.L.W.!.).{.{.{.oXoX}.OXU.I.(._.(.W.K.K.V.N.o.                        ",
"                        ] Q ..C.W.W.Q.Q./.(.^.).'._..X^./.[.|.}._.Q.P.K.C.g...                      ",
"                        ( ( X.V.Q.Q.Q.!.Q.L.P.U.).oX$XOX$X@X+XXX`.W.L.K.V.l.o.                      ",
"                        ( ] l.L.U.U.Q.Q.U.J.V.U.E.'.@X%X$XoX}.|._.!.P.P.V.l.o.                      ",
"                        C } N.P.T.Q.!.Q.T.Q.C.z.h.K./.oX+X.X|._.(.~.P.C.N.l.}                       ",
"                        Z ~ t.V.K.P.Q.!.!.Q.J.P.Q./.).`.'._.~.Q.W.P.M.M.l.0.'                       ",
"                        x V ` X.h.l.N.K.T.U.U.P.T.Q.!.!.Q.T.K.K.K.C.l.g.h.} /                       ",
"                        N x G ` / } } z.v.C.C.C.V.J.H.H.H.S.N.M.M.M.g.g.h.} Q                       ",
"                        G N B P ( ^ / } 8.z.j.9.8.j.A.D.D.B.l.f.f.g.o.o.../ C                       ",
"                        C N B ! L C Q ] 9.c.x.k.9.j.k.Z.m.j.....g.o.( ( / / Q                       ",
"                  6 b k 7 x C ~ ~ Z Z L 5.m.m.x.9.7.8.i.5.` / ( ^ Z C W / } /                       ",
"                  } E C   7 Z ~ P C C C ~ 9.j.x.j.9.] [ | / E Z Z N Z / } ..}                       ",
"                J.t.Q Q   < x Q ~ Z N C ` t.9.8.9.j.7.8.7.( Z E W ( ( ..0.0.                        ",
"                V.7.W /     7 b G C C C ) t.n.F.Z.j.5.` ] Q E / ' ^ ' ..}                           ",
"              G.b.X.C '     o , x N Z C ! [ x.m.k.8.( U C C Q ( ( C W ' P Z     _.).                ",
"              B.v.8.C ( $ , $ @ 6 l x B B B ~ 5.5.( b x x b N C F L | t.G G L l.!.).                ",
"            C.m.n.8.Z N @ < 6 @ , m ! ~ ~ P L H c c c c E ( ` [  .u.m.P i G L | J.`.                ",
"            i.2.m.X.N n @ 7 i ; o l H J Y 5.5.{ >.+.$.4.5.5.4.2.3.u.{ 4 4 Z ' 0.X.P.                ",
"            %.&.b.8.x N , 7 k ; . , M K K :.:.:.*.O.+.;.;.>.>.<.3.r.z ; , C ` }  .}                 ",
"            *.1.m...x b 4 7 : o . o y V P ) ) { <.O.#._ [ 5.8.j.t.! < + + y P Q ' ]                 ",
"            9.v.B. .l N 4 :     . . ; v F ! ~ ] <.O.#.6.7.7.7.8. .l : +   , i n ~ } N M             ",
"            7.x.B.| k b , ;     . . o 7 m P ~ { <.O.%.6.9.t.9.8.! 2 &       6 l C W V 6.            ",
"            | x.C.| i n i : o o # O O 3 x L ) [ D @.%.3.y.9.9. .m 1 =     & 7 m L P ) Y             ",
"            { k.n.X.i x 3 @       # % = q s A D K ,.:.:.Y R A s e 0     . X & p B F m L             ",
"            _ y.v. .7 l & O         > * = 1 w u u g g g u u e d M m     - - # % 6 z x V Q           ",
"            ) r.x. .7 k ; O o @ @ < m V n I I I I R T _ 6.r.i.v.c.{ , f q 8 f w.w.R V G C           ",
"              7.v.X.y k 1 : 4 i 4 , n P ~  .u.A.H.R.R.R.R.R.R.R.G.P , * - =.p.d.d.a.R Z n           ",
"              { x.8.7 k 5 4 x z , , y V L ) y.n.G.H.H.H.G.A.n.n.c.7 2 &     q.e.e.q.p 6             ",
"              T k.8.i i       . @ ; ; z V L [ r.c.n.n.A.n.c.u.v.L ; 6 4 ,                           ",
"                9.h.7 7     @ @ : ; & < B V P { r.u.u.u.c.u.u.r.6 , i i 4 @                         ",
"                _ 8.y 6   o ; 4 4 4 2 & i V L )  .r.r.r.u.u.u.z ; 7 C x l , ;                       ",
"                [ 7.7 4   @ < k z z y 2 , v G ~ { r.r.u.r.r.F & , x G C n 4 :                       ",
"                  C < 6 / 7 3 x b N x i > 3 I ) { 9.y.y.t.{ > $ 6 b L m n 5 b X.                    ",
"                  : : 6 / G q a s S s d 0 *     | r.t.      % 1 d h A h a d ~  .0.'                 ",
"                  @ @ k G V 5 0 e u u w -                   % - w u u w 0 v ! ~ P V                 ",
"                      y l l i 6 t p t 5 <                     > 3 5 p t i z Z n l                   ",
"                          6 k N L Q Z W x 6                 , 6 b L V C N z k                       ",
"                            7 C C ~ ! V N 7                 , x Z L ' G B                           ",
"                                  x l                             b l                               ",
"                                                                                                    ",
"                                                                                                    ",
"                                                                                                    "
};
