/* XPM */
static char *result[] = {
/* columns rows colors chars-per-pixel */
"50 50 72 1 ",
"  c #4C230D",
". c #4C2711",
"X c #4D2913",
"o c #522C14",
"O c #55321D",
"+ c #58331D",
"@ c #553622",
"# c #593721",
"$ c #563926",
"% c #5A3924",
"& c #563C2B",
"* c #5B3E2B",
"= c #5B412E",
"- c #574335",
"; c #5B4434",
": c #5A4739",
"> c #5D4B3C",
", c #63452E",
"< c #614633",
"1 c #634936",
"2 c #644C3A",
"3 c #694F3C",
"4 c #6A503D",
"5 c #5D4E42",
"6 c #5E5246",
"7 c #5F5549",
"8 c #614F41",
"9 c #615245",
"0 c #6A5343",
"q c #6B5946",
"w c #61564B",
"e c #685648",
"r c #64594E",
"t c #6C5B4D",
"y c #725E4B",
"u c #645D52",
"i c #6D5F52",
"p c #676156",
"a c #6A6156",
"s c #676358",
"d c #6B655B",
"f c #6E685E",
"g c #736354",
"h c #72675B",
"j c #746A5E",
"k c #786C5F",
"l c #6F6A61",
"z c #726C62",
"x c #796F63",
"c c #736F68",
"v c #777066",
"b c #7A7267",
"n c #767269",
"m c #7A756A",
"M c #7E796E",
"N c #7E7A70",
"B c #81776B",
"V c #807B6F",
"C c #817C72",
"Z c #858277",
"A c #888277",
"S c #868479",
"D c #8A867A",
"F c #8B887C",
"G c #90897F",
"H c #8E8C82",
"J c #928D84",
"K c #939087",
"L c #95928A",
"P c #99968D",
"I c #9C9890",
"U c None",
/* pixels */
"UUUUUUUUUUUUUUUUUUUUUUUUUUUUUUUUUUUUUUUUUUUUUUUUUU",
"UUUUUUU<<<<<<<1111212222222222122<<2<2<<<<<UUUUUUU",
"UUUUUU*hSSSSDZCZCNCCNCNNCNNMVMVVNVNNCMMMMAj*UUUUUU",
"UUUUU3VFHHHHHHHZZZZAZZZZAZSASZZSZZSSAZSZZADB3UUUUU",
"UUU*gCDDSSSSSSZZZZZZZZZZZZZZZSSFFHFSZZZZZZZZCg%UUU",
"UU3mAAZZZZZZZZZDSZZZZSZZZSZSFFHHHHHSZZZZZZZZSZB8UU",
"U*3AHZZZZZZSZzddfdhllzzzllzzcclczzzjnZSZZZZZZHC1%U",
"U*8CHZZZZZSVd>==;;;<>11>>2<;<<<:<;;;6sNSZZZZZHZ2#U",
"U,3CFZZSZZv7;2qqtiiiyaiiiiaygayee0eq2=evZZZSCHC3#U",
"U*4AFDZZSZq;4yfjbvmmvvbbvvvvvvvzjjjhi0=qZSZZAJC3#U",
"U,4GFDSZZZ4=gjzvvvvvvvbbvmmmvvvvbvbxzj,3ASZSZHF3%U",
"U*4AFZAZSZ4=aznvvvvvvmbmmmmmmvvvbbbbmb,4ZSSZZJF3#U",
"U*0DJASSSZ4=kmmmmvbvmmmmmmMmmmvbbbbbmx;3ZZZSSHF4%U",
"U,3AFASSSZ4,bMmMMmmvmbMmmmMmMmmbbbmbmb,4ZASSSHF4%U",
"U,3GHSSSDZ4,bMmMMmmmbMMMMMMMmMmmbmmbbx,4ZSSSSHF4#U",
"U*4GHSSDDZ4,mMMMMMMMMMMMMVMMMMBmmmmbmx,3ZDSSAJG4%U",
"U,qGFSSSDA41mNMNMMMMMMNNCBVVMNMMMmmbmv<4DDDADJG4%U",
"U%4FFFSFDA41MCNBMMmmMNMBNNMNNBMMMMmmmm<4GDDDDJG4%U",
"U=qFPFFFDAy4gmVVmxsaznmmMNCNCCCNBCVMbg0gFFDSDKJ4%U",
"U+qFIFKFDDFb2ykgiertqrtqthkkjjkkjjkky3BJJDDDDLJ4%U",
"U+4KPFGFDDDDDq,,<,,,,,,,,,,,,,,,,,,,yHHHHDDDDKJ4%U",
"U=4GIFGFDDDDDDDDDDFDFFDDFDDFDFDFDDDFHHDDDDDDFJF2+U",
"U%3bGPGGFDDDDFDDDDDDDDDDDDDDDFDDFFFFAFADDDDHJCr%oU",
"U%,xVZIGFFFDFDGFFFFFFFFFFFFFFFFFFFFFFFHHFDJJxpt%oU",
"U+<kmMZHIIPIPPPLLKPKJJKKKKKLLLLLKKKKLLLLLPZfaae@oU",
"U+=kmNHNcnnnncnnxzczczczjjnVMNNMczzzzlllcznndar@oU",
"U+,zZCcdlccclldlfdfddfzdfffjfzlfdzdlllhldlflMvt@oU",
"Uo%nMzfdilldlldlhlfflhdffffffffflhlhdlliddfffnx$ U",
"U $mndldddlddldllldlffffffhffdfflhldffzzzdddsnn& U",
"U $nnfdddddld2&&&$&&&$$$&$$$=$$$$%$$>fzzcdhdfvn# U",
"U.$ccsduillu*-::59999999669966999999>;accdddscz% U",
"U $lclullu5&:56wuruuurupuuprrpppuuuur9;9dlddflh% U",
"U #zcululi&&57wuuuuuruuutuiauuuuiuuuuu&*llddsld$ U",
"U $hzlulul&$5wuuurururuuuurruuuuuuuuuu&:didddld@ U",
"U @hzussll&&6ruururrrruuuuuuuwwrruuuur&:uddddld$ U",
"U $hzsssui:&67w7rururrrrrrrrwwwrwwwtur&*ddudulh@ U",
"U @hlppsdd&&6767uquruq7urrwwrwrwwwwrrw&-uddudld$ U",
"U @sfpppuu&&67677urruuuurrwwwwwrwrwwww&*pspduld@ U",
"U @afpppdu&$6w7777r77uuqrwrrrwwwrwwww6&&udssuhd@ U",
"U @afuuuuu&$6666777r77uu7w7w77779w97w6$&upusuld@ U",
"U Oafsppup5&566677777u77u777777777777>->uusupls@ U",
"U Osdpuupusp5&5&-->:::::::-;:::-:-:-:>uspuuuuld@ U",
"U.@pfsuuuuusl9&*==--================:spuupupudu@ U",
"U @slsdsupuwulllfffsfzffffzfzlzlzfffspuuuuuuudd@.U",
"UU@9ssddssuuuuruuuu7usssssdsddddpp7puuuuuuuuusr@UU",
"UUUX;psdssuurruu7uuuuuu7uuuuspdpp7uuuuuuuuuuu*XUUU",
"UUUUU$7sssuuuuu7uuuuuuuuuuuuuuuuuuuuuuupuuuu$UUUUU",
"UUUUUUX>u7777777777777777777w77w777777777u5XUUUUUU",
"UUUUUUUXXXXXXXXXXXXXXXXXXXXXXXXXXXXXoXXoXXoUUUUUUU",
"UUUUUUUUUUUUUUUUUUUUUUUUUUUUUUUUUUUUUUUUUUUUUUUUUU"
};
