/* XPM */
static char *_1eb4a2d91ec4f45fc2291f8a48a2b03PIQ5yZTFp0Y90Ycd[] = {
/* columns rows colors chars-per-pixel */
"50 50 186 2 ",
"   c None",
".  c black",
"X  c #010101",
"o  c gray1",
"O  c #040404",
"+  c gray2",
"@  c #070707",
"#  c #090909",
"$  c #0B0B0B",
"%  c #0C0C0C",
"&  c gray5",
"*  c #0E0E0E",
"=  c gray6",
"-  c #111111",
";  c #131313",
":  c gray8",
">  c #151515",
",  c gray9",
"<  c gray11",
"1  c gray12",
"2  c gray13",
"3  c #232323",
"4  c gray14",
"5  c gray16",
"6  c #2A2A2A",
"7  c #2D2D2D",
"8  c gray18",
"9  c #2F2F2F",
"0  c gray20",
"q  c #343434",
"w  c gray22",
"e  c #3C3C3C",
"r  c gray25",
"t  c gray26",
"y  c #464646",
"u  c #484848",
"i  c #494949",
"p  c gray30",
"a  c #4E4E4E",
"s  c gray31",
"d  c #515151",
"f  c #535353",
"g  c #565656",
"h  c gray34",
"j  c #5A5A5A",
"k  c gray36",
"l  c #5D5D5D",
"z  c gray37",
"x  c #5F5F5F",
"c  c #606060",
"v  c gray38",
"b  c #626262",
"n  c gray39",
"m  c #646464",
"M  c #656565",
"N  c gray40",
"B  c #676767",
"V  c #686868",
"C  c DimGray",
"Z  c #6A6A6A",
"A  c gray42",
"S  c #6C6C6C",
"D  c #6D6D6D",
"F  c gray43",
"G  c #6F6F6F",
"H  c gray44",
"J  c #717171",
"K  c #727272",
"L  c gray45",
"P  c #747474",
"I  c gray46",
"U  c #767676",
"Y  c #777777",
"T  c gray47",
"R  c gray48",
"E  c #7B7B7B",
"W  c #7C7C7C",
"Q  c gray49",
"!  c #7E7E7E",
"~  c gray50",
"^  c #808080",
"/  c #818181",
"(  c gray51",
")  c #868686",
"_  c #888888",
"`  c #898989",
"'  c gray54",
"]  c #8B8B8B",
"[  c gray55",
"{  c #8D8D8D",
"}  c gray56",
"|  c #909090",
" . c #929292",
".. c #939393",
"X. c gray58",
"o. c gray59",
"O. c #979797",
"+. c #989898",
"@. c #9A9A9A",
"#. c #9B9B9B",
"$. c gray61",
"%. c #9D9D9D",
"&. c gray62",
"*. c gray63",
"=. c #A2A2A2",
"-. c #A4A4A4",
";. c #A5A5A5",
":. c gray65",
">. c #A7A7A7",
",. c gray66",
"<. c #AAAAAA",
"1. c gray67",
"2. c gray68",
"3. c #AEAEAE",
"4. c #AFAFAF",
"5. c gray69",
"6. c #B1B1B1",
"7. c #B2B2B2",
"8. c gray70",
"9. c #B4B4B4",
"0. c gray71",
"q. c #B6B6B6",
"w. c #B7B7B7",
"e. c #B9B9B9",
"r. c #BBBBBB",
"t. c #BCBCBC",
"y. c gray",
"u. c gray75",
"i. c #C0C0C0",
"p. c #C1C1C1",
"a. c gray76",
"s. c #C3C3C3",
"d. c gray77",
"f. c #C5C5C5",
"g. c #C6C6C6",
"h. c gray78",
"j. c gray79",
"k. c #CACACA",
"l. c #CBCBCB",
"z. c gray80",
"x. c #CDCDCD",
"c. c #CECECE",
"v. c gray81",
"b. c #D0D0D0",
"n. c #D2D2D2",
"m. c LightGray",
"M. c #D5D5D5",
"N. c gray84",
"B. c #D7D7D7",
"V. c #D8D8D8",
"C. c gray85",
"Z. c #DADADA",
"A. c gainsboro",
"S. c #DDDDDD",
"D. c gray87",
"F. c gray88",
"G. c #E1E1E1",
"H. c #E2E2E2",
"J. c gray89",
"K. c #E4E4E4",
"L. c gray90",
"P. c #E6E6E6",
"I. c gray91",
"U. c #E9E9E9",
"Y. c #EAEAEA",
"T. c gray92",
"R. c #ECECEC",
"E. c gray93",
"W. c #EEEEEE",
"Q. c #EFEFEF",
"!. c gray94",
"~. c #F1F1F1",
"^. c gray95",
"/. c #F3F3F3",
"(. c #F4F4F4",
"). c gray96",
"_. c #F6F6F6",
"`. c gray97",
"'. c #F8F8F8",
"]. c #F9F9F9",
"[. c gray98",
"{. c #FBFBFB",
"}. c gray99",
"|. c #FDFDFD",
" X c #FEFEFE",
".X c white",
/* pixels */
"                                                                                                    ",
"                                                .X.X                                                ",
"                                            .X.X.X.X.X.X                                            ",
"                                          .X.X.X.X.X.X.X.X.X                                        ",
"                                        .X.X.X.X.X.X.X.X.X.X.X                                      ",
"                                      .X.X.X.X.X.X.X.X.X.X.X.X.X                                    ",
"                                    {..X.X.X.X.X.X.X.X.X.X.X.X.X.X                                  ",
"                                  F *.Q..X.X.X.X.X.X.X.X.X.X.X.X.XK.                                ",
"                                  V M ^ c..X.X.X.X.X.X.X.X.X.X.XB.                                  ",
"                              .X&.M M M F 1.!..X.X.X.X.X.X.X{.b.9.                                  ",
"                          .X.XQ.} F M M M M ` B..X.X.X.X.X{.c.8.8.                                  ",
"                        .X.X.XB.^ W F M M M M L 9.)..X.X).c.8.8.8.                                  ",
"                    .X.X.X.X.Xc.^ ^ T V M M V M M } S.).j.8.8.8.c.                                  ",
"                  .X.X.X.X.X.XH.) W ^ T V M M M M M U 8.8.8.8.2.Z..X                                ",
"                .X.X.X.X.X.X.X{.2.W ^ ^ U V M M M V M o.8.8.8.-.Z..X.X                              ",
"            .X.X.X.X.X.X.X.X.X.XQ.+.W ^ ^ T V V M M M } 8.8.8.+.U..X.X.X                            ",
"          {..X.X.X.X.X.X.X.X.X.X.XH.o.W ^ ^ T F M M M ` 9.8.*.+.)..X.X.X.X                          ",
"        F u..X.X.X.X.X.X.X.X.X.X.X.XS.} W W ^ T F M M ^ 9.8.` 9..X.X.X.X.X.X                        ",
"      M M F u..X.X.X.X.X.X.X.X.X.X.X.XB.} W W ^ W L M W 2.o.` H..X.X.X.X.X.X.X                      ",
"    M M M b F u..X.X.X.X.X.X.X.X.X.X.X.XZ. .W ^ ^ ^ U T o.^ e..X.X.X.X.X.X.X.X.X                    ",
"  M M M V M M L u..X.X.X.X.X.X.X.X.X.X.X.XH.&.^ W ^ ^ ^ W -.)..X.X.X.X.X.X.X.X.X.X                  ",
"w b M V M M M M F a..X.X.X.X.X.X.X.X.X.X.X.X).j.&.^ W W +.Q..X.X.X.X.X.X.X.X.X.X.X.X                ",
"  q M M M V M V M F a..X.X.X.X.X.X.X.X.X.X.X.X.X).B.1.+.H..X.X.X.X.X.X.X.X.X.X.X.X.X                ",
"  o r M M V M M M M F d..X.X.X.X)..X.X.X.X.X.X.X.X.X.X!.{.!.K.B.a.1. .b..X.X.X.X.X.X.X              ",
"  o + s M M V M V M M L d..X.X{.U..X.X.X.X.X.X.X.X.XQ.Z.j.e.2.1.-.1.L c..X.X.X.X.X.X.X.X            ",
"      ; h M V M M M M M L d..X.XS.)..X.X.X.X.X.X.X.X.X{..X.X.X.X.XK.U K..X.X.X.X.X.X.X.X).          ",
"    o   1 z M V M V M V M L d..XH.H..X.X.X.X.X.X.X.X.X.X.X.X.X.X.X-.L 9.c.H.)..X.X.X{.H.a.8.        ",
"    o o   9 b M M V M M M M L j.Q.d..X.X.X.X.X.X.X.X.X.X.X.X.X.X.X!.!.).{.{..X.X.XK.d.8.8.8.        ",
"      o o   w M M V M M M M M L a.8.)..X.X.X.X.X.X.X.X.X.X.X.X.X.X.X.X.X.X.X.XU.j.9.8.8.8.8.8.      ",
"      o o o + i M M M V M M M b F W B..X.X.X.X.X.X.X.X.X.X.X.X.X.X.X.X.X.XQ.c.9.8.8.8.8.8.8.8.8.    ",
"        o o   $ d M M V V b h s y r -..X.X.X.X.X.X.X.X.X.X.X.X.X.X.X.X!.b.e.8.8.8.8.8.8.8.8.9.9.    ",
"        o o o   ; j V M M M M M M M L j..X.X.X.X.X.X.X.X.X.X.X.X.X).B.u.8.9.8.8.8.8.8.8.8.8.8.9.9.  ",
"          o o o   < z M M M M V V M M U c..X.X.X.X.X.X.X.X.X.X).S.u.8.8.8.8.8.8.8.8.8.8.8.8.8.9.-.  ",
"            o o o   3 z M V M M M M M M L c..X.X.X.X.X.X.X.XH.a.9.8.8.8.8.8.8.8.8.8.8.8.8.8.8.`     ",
"              o o o   5 b M V M M V M V b U c..X.X.X.X{.K.d.9.8.8.8.8.8.8.8.8.8.8.8.8.8.9.-.z       ",
"              o o o o   9 b V M M V M M M M U c..X.XU.j.9.8.8.8.8.8.8.8.8.8.8.8.8.8.9.8.} 0         ",
"                o o o o   9 b M M V M M M V M U j.b.9.9.9.8.8.8.8.8.8.8.8.8.8.8.8.9.1.F %           ",
"                  o o o o   9 b V M M V M M M M } 8.8.8.8.8.8.8.8.8.8.8.8.8.8.8.8.o.r               ",
"                    o o o o   5 j M V M V M M M } 9.8.8.8.8.8.8.8.8.8.8.8.8.9.1.L >                 ",
"                      o o o o   3 z M M V M M V  .9.8.8.8.8.8.8.8.8.8.8.8.2.` w o                   ",
"                        o o o o   > d M M V M M o.9.8.8.8.8.8.8.8.8.8.8. .s +                       ",
"                          o o o o   % i M M V M +.9.8.8.8.8.8.8.9.2.` i %                           ",
"                            o o o o   o w b M V *.9.8.8.8.9.2.&.U q + o                             ",
"                                o o o o   3 h V *.9.8.1.+.U y ;   o                                 ",
"                                  o o o o   % y ` ^ z 0 %     o                                     ",
"                                      o o o   o $       o o                                         ",
"                                          o o o o o o o                                             ",
"                                            o o o o                                                 ",
"                                                                                                    ",
"                                                                                                    "
};
